G04 #@! TF.FileFunction,Legend,Top*
%FSLAX46Y46*%
G04 Gerber Fmt 4.6, Leading zero omitted, Abs format (unit mm)*
G04 Created by KiCad (PCBNEW 4.0.2+dfsg1-stable) date 2017年12月22日 星期五 14时14分46秒*
%MOMM*%
G01*
G04 APERTURE LIST*
%ADD10C,0.100000*%
%ADD11C,0.121920*%
%ADD12C,0.152400*%
%ADD13C,0.203200*%
%ADD14C,0.120000*%
%ADD15C,0.220000*%
%ADD16C,0.150000*%
%ADD17C,0.061772*%
%ADD18C,0.046329*%
%ADD19C,0.097536*%
%ADD20C,0.125000*%
%ADD21C,0.027025*%
G04 APERTURE END LIST*
D10*
D11*
X143395368Y-102404230D02*
X143395368Y-101904230D01*
X143919177Y-102356611D02*
X143895367Y-102380421D01*
X143823939Y-102404230D01*
X143776320Y-102404230D01*
X143704891Y-102380421D01*
X143657272Y-102332802D01*
X143633463Y-102285183D01*
X143609653Y-102189945D01*
X143609653Y-102118516D01*
X143633463Y-102023278D01*
X143657272Y-101975659D01*
X143704891Y-101928040D01*
X143776320Y-101904230D01*
X143823939Y-101904230D01*
X143895367Y-101928040D01*
X143919177Y-101951850D01*
X144109653Y-102380421D02*
X144181082Y-102404230D01*
X144300129Y-102404230D01*
X144347748Y-102380421D01*
X144371558Y-102356611D01*
X144395367Y-102308992D01*
X144395367Y-102261373D01*
X144371558Y-102213754D01*
X144347748Y-102189945D01*
X144300129Y-102166135D01*
X144204891Y-102142326D01*
X144157272Y-102118516D01*
X144133463Y-102094707D01*
X144109653Y-102047088D01*
X144109653Y-101999469D01*
X144133463Y-101951850D01*
X144157272Y-101928040D01*
X144204891Y-101904230D01*
X144323939Y-101904230D01*
X144395367Y-101928040D01*
X144609653Y-102404230D02*
X144609653Y-101904230D01*
X144800129Y-101904230D01*
X144847748Y-101928040D01*
X144871557Y-101951850D01*
X144895367Y-101999469D01*
X144895367Y-102070897D01*
X144871557Y-102118516D01*
X144847748Y-102142326D01*
X144800129Y-102166135D01*
X144609653Y-102166135D01*
D12*
X142793720Y-101092000D02*
X143428720Y-101727000D01*
X144698720Y-101727000D02*
X145333720Y-101092000D01*
X145333720Y-101092000D02*
X145968720Y-101727000D01*
X147238720Y-101727000D02*
X147873720Y-101092000D01*
X142793720Y-101092000D02*
X142793720Y-97282000D01*
X142793720Y-97282000D02*
X143428720Y-96647000D01*
X143428720Y-96647000D02*
X144698720Y-96647000D01*
X144698720Y-96647000D02*
X145333720Y-97282000D01*
X145333720Y-97282000D02*
X145968720Y-96647000D01*
X145968720Y-96647000D02*
X147238720Y-96647000D01*
X147238720Y-96647000D02*
X147873720Y-97282000D01*
X145333720Y-97282000D02*
X145333720Y-101092000D01*
X147873720Y-97282000D02*
X147873720Y-101092000D01*
X145968720Y-101727000D02*
X147238720Y-101727000D01*
X143428720Y-101727000D02*
X144698720Y-101727000D01*
X147873720Y-101092000D02*
X148508720Y-101727000D01*
X149778720Y-101727000D02*
X150413720Y-101092000D01*
X147873720Y-97282000D02*
X148508720Y-96647000D01*
X148508720Y-96647000D02*
X149778720Y-96647000D01*
X149778720Y-96647000D02*
X150413720Y-97282000D01*
X150413720Y-97282000D02*
X150413720Y-101092000D01*
X148508720Y-101727000D02*
X149778720Y-101727000D01*
X137588671Y-105410000D02*
G75*
G03X137588671Y-105410000I-359200J0D01*
G01*
X133350000Y-110366819D02*
X128393181Y-105410000D01*
X128393181Y-105410000D02*
X133350000Y-100453181D01*
X133350000Y-100453181D02*
X138055796Y-105158977D01*
X138055796Y-105661023D02*
X133350000Y-110366819D01*
X138055796Y-105661023D02*
X138055796Y-105158977D01*
D13*
X145415000Y-102133400D02*
X148971000Y-102133400D01*
X148971000Y-102133400D02*
X148971000Y-108686600D01*
X148971000Y-108686600D02*
X145415000Y-108686600D01*
X145415000Y-108686600D02*
X145415000Y-102133400D01*
D14*
X166198240Y-104286360D02*
X168858240Y-104286360D01*
X166198240Y-101686360D02*
X166198240Y-104286360D01*
X168858240Y-101686360D02*
X168858240Y-104286360D01*
X166198240Y-101686360D02*
X168858240Y-101686360D01*
X166198240Y-100416360D02*
X166198240Y-99086360D01*
X166198240Y-99086360D02*
X167528240Y-99086360D01*
D15*
X138563885Y-101051696D02*
X139695256Y-99920325D01*
X136301144Y-98788955D02*
X137432515Y-97657584D01*
D10*
G36*
X140743000Y-104013000D02*
X140943000Y-104013000D01*
X140943000Y-103813000D01*
X140743000Y-103813000D01*
X140743000Y-104013000D01*
G37*
D16*
X145161000Y-112522000D02*
X150241000Y-112522000D01*
X150241000Y-112522000D02*
X150241000Y-109982000D01*
X150241000Y-109982000D02*
X145161000Y-109982000D01*
X142341000Y-109702000D02*
X143891000Y-109702000D01*
X145161000Y-109982000D02*
X145161000Y-112522000D01*
X143891000Y-112802000D02*
X142341000Y-112802000D01*
X142341000Y-112802000D02*
X142341000Y-109702000D01*
D14*
X166198240Y-110153760D02*
X168858240Y-110153760D01*
X166198240Y-107553760D02*
X166198240Y-110153760D01*
X168858240Y-107553760D02*
X168858240Y-110153760D01*
X166198240Y-107553760D02*
X168858240Y-107553760D01*
X166198240Y-106283760D02*
X166198240Y-104953760D01*
X166198240Y-104953760D02*
X167528240Y-104953760D01*
X153383000Y-109033000D02*
X152580530Y-109033000D01*
X151965470Y-109033000D02*
X151163000Y-109033000D01*
X153383000Y-111508000D02*
X153383000Y-109033000D01*
X151163000Y-111508000D02*
X151163000Y-109033000D01*
X153383000Y-111508000D02*
X152836471Y-111508000D01*
X151709529Y-111508000D02*
X151163000Y-111508000D01*
X153383000Y-112268000D02*
X153383000Y-113028000D01*
X153383000Y-113028000D02*
X152273000Y-113028000D01*
D16*
X158424880Y-109875320D02*
X158424880Y-107335320D01*
X158424880Y-107335320D02*
X160964880Y-107335320D01*
X160964880Y-107335320D02*
X160964880Y-109875320D01*
X160964880Y-109875320D02*
X158424880Y-109875320D01*
X157154880Y-108605320D02*
X162234880Y-108605320D01*
X154614880Y-112415320D02*
X154614880Y-97175320D01*
X154614880Y-97175320D02*
X164774880Y-97175320D01*
X164774880Y-97175320D02*
X164774880Y-112415320D01*
X164774880Y-112415320D02*
X154614880Y-112415320D01*
D17*
X144630425Y-102015990D02*
X144630425Y-102373133D01*
X144606615Y-102444562D01*
X144558996Y-102492181D01*
X144487568Y-102515990D01*
X144439949Y-102515990D01*
X145082805Y-102182657D02*
X145082805Y-102515990D01*
X144963758Y-101992181D02*
X144844710Y-102349324D01*
X145154234Y-102349324D01*
D18*
D17*
X130745264Y-106619624D02*
X130391711Y-106266071D01*
X131081982Y-106215564D02*
X131081982Y-106249236D01*
X131048310Y-106316579D01*
X131014638Y-106350250D01*
X130947295Y-106383923D01*
X130879951Y-106383923D01*
X130829444Y-106367087D01*
X130745264Y-106316579D01*
X130694757Y-106266071D01*
X130644249Y-106181892D01*
X130627413Y-106131385D01*
X130627413Y-106064041D01*
X130661085Y-105996697D01*
X130694757Y-105963025D01*
X130762100Y-105929354D01*
X130795772Y-105929354D01*
X130879951Y-105777830D02*
X131098817Y-105558965D01*
X131115654Y-105811503D01*
X131166161Y-105760996D01*
X131216668Y-105744159D01*
X131250341Y-105744159D01*
X131300848Y-105760996D01*
X131385027Y-105845175D01*
X131401863Y-105895682D01*
X131401863Y-105929354D01*
X131385027Y-105979862D01*
X131284012Y-106080877D01*
X131233505Y-106097713D01*
X131199833Y-106097712D01*
D18*
X131297972Y-107439685D02*
X131466331Y-107271327D01*
X131365316Y-107574372D02*
X131129613Y-107102967D01*
X131601018Y-107338670D01*
X131314808Y-106917773D02*
X131516838Y-106715743D01*
X131769376Y-107170311D02*
X131415823Y-106816758D01*
X131988243Y-106951445D02*
X131634689Y-106597892D01*
X132005078Y-106732579D01*
X131870391Y-106362190D01*
X132223945Y-106715743D01*
X132207110Y-106362190D02*
X132324961Y-106244339D01*
X132560663Y-106379025D02*
X132392304Y-106547384D01*
X132038751Y-106193830D01*
X132207109Y-106025472D01*
X132560663Y-105705591D02*
X132510155Y-105722426D01*
X132459647Y-105772933D01*
X132425976Y-105840278D01*
X132425976Y-105907621D01*
X132442812Y-105958128D01*
X132493319Y-106042308D01*
X132543827Y-106092816D01*
X132628007Y-106143323D01*
X132678514Y-106160159D01*
X132745857Y-106160159D01*
X132813201Y-106126487D01*
X132846873Y-106092815D01*
X132880544Y-106025472D01*
X132880544Y-105991800D01*
X132762694Y-105873949D01*
X132695350Y-105941293D01*
X132947888Y-105789770D02*
X133116246Y-105621411D01*
X133015231Y-105924456D02*
X132779529Y-105453052D01*
X133250933Y-105688754D01*
X132981559Y-105251021D02*
X133200425Y-105032156D01*
X133217262Y-105284694D01*
X133267769Y-105234187D01*
X133318277Y-105217350D01*
X133351949Y-105217350D01*
X133402456Y-105234187D01*
X133486635Y-105318366D01*
X133503471Y-105368873D01*
X133503471Y-105402545D01*
X133486635Y-105453052D01*
X133385620Y-105554068D01*
X133335113Y-105570904D01*
X133301441Y-105570903D01*
X133368784Y-104931141D02*
X133368784Y-104897469D01*
X133385620Y-104846961D01*
X133469799Y-104762782D01*
X133520307Y-104745946D01*
X133553979Y-104745946D01*
X133604487Y-104762783D01*
X133638158Y-104796454D01*
X133671830Y-104863797D01*
X133671830Y-105267858D01*
X133890696Y-105048992D01*
X133890696Y-104644931D02*
X133840189Y-104661767D01*
X133806517Y-104661767D01*
X133756009Y-104644931D01*
X133739173Y-104628096D01*
X133722338Y-104577588D01*
X133722337Y-104543916D01*
X133739173Y-104493408D01*
X133806516Y-104426065D01*
X133857024Y-104409229D01*
X133890696Y-104409229D01*
X133941204Y-104426065D01*
X133958039Y-104442901D01*
X133974875Y-104493408D01*
X133974875Y-104527081D01*
X133958039Y-104577588D01*
X133890696Y-104644931D01*
X133873860Y-104695439D01*
X133873860Y-104729110D01*
X133890696Y-104779618D01*
X133958039Y-104846962D01*
X134008547Y-104863797D01*
X134042219Y-104863798D01*
X134092726Y-104846962D01*
X134160069Y-104779618D01*
X134176906Y-104729111D01*
X134176906Y-104695438D01*
X134160069Y-104644931D01*
X134092726Y-104577588D01*
X134042219Y-104560752D01*
X134008547Y-104560752D01*
X133958039Y-104577588D01*
X134378936Y-104560752D02*
X134025383Y-104207198D01*
X134160069Y-104072511D01*
X134210577Y-104055676D01*
X134244249Y-104055676D01*
X134294757Y-104072512D01*
X134345264Y-104123019D01*
X134362100Y-104173527D01*
X134362101Y-104207199D01*
X134345264Y-104257706D01*
X134210577Y-104392393D01*
X134597803Y-104072511D02*
X134867176Y-103803138D01*
X135052371Y-103685286D02*
X135220730Y-103516928D01*
X135119715Y-103819973D02*
X134884012Y-103348568D01*
X135355417Y-103584271D01*
X135119715Y-103112866D02*
X135405924Y-103399076D01*
X135456432Y-103415912D01*
X135490104Y-103415912D01*
X135540611Y-103399076D01*
X135607955Y-103331733D01*
X135624791Y-103281226D01*
X135624790Y-103247554D01*
X135607955Y-103197046D01*
X135321745Y-102910836D01*
D17*
X146148563Y-106480550D02*
X146148563Y-105980550D01*
X146672372Y-106432931D02*
X146648562Y-106456741D01*
X146577134Y-106480550D01*
X146529515Y-106480550D01*
X146458086Y-106456741D01*
X146410467Y-106409122D01*
X146386658Y-106361503D01*
X146362848Y-106266265D01*
X146362848Y-106194836D01*
X146386658Y-106099598D01*
X146410467Y-106051979D01*
X146458086Y-106004360D01*
X146529515Y-105980550D01*
X146577134Y-105980550D01*
X146648562Y-106004360D01*
X146672372Y-106028170D01*
X146862848Y-106028170D02*
X146886658Y-106004360D01*
X146934277Y-105980550D01*
X147053324Y-105980550D01*
X147100943Y-106004360D01*
X147124753Y-106028170D01*
X147148562Y-106075789D01*
X147148562Y-106123408D01*
X147124753Y-106194836D01*
X146839039Y-106480550D01*
X147148562Y-106480550D01*
X145893472Y-107516870D02*
X145655377Y-107516870D01*
X145655377Y-107016870D01*
X146060139Y-107516870D02*
X146060139Y-107016870D01*
X146226805Y-107374013D01*
X146393472Y-107016870D01*
X146393472Y-107516870D01*
X146893472Y-107516870D02*
X146607758Y-107516870D01*
X146750615Y-107516870D02*
X146750615Y-107016870D01*
X146702996Y-107088299D01*
X146655377Y-107135918D01*
X146607758Y-107159728D01*
X147369662Y-107516870D02*
X147083948Y-107516870D01*
X147226805Y-107516870D02*
X147226805Y-107016870D01*
X147179186Y-107088299D01*
X147131567Y-107135918D01*
X147083948Y-107159728D01*
X147845852Y-107516870D02*
X147560138Y-107516870D01*
X147702995Y-107516870D02*
X147702995Y-107016870D01*
X147655376Y-107088299D01*
X147607757Y-107135918D01*
X147560138Y-107159728D01*
X148012519Y-107016870D02*
X148345852Y-107016870D01*
X148131566Y-107516870D01*
D19*
X150702070Y-104278891D02*
X150702070Y-103800888D01*
X150996227Y-104058274D01*
X150996227Y-103947966D01*
X151032996Y-103874427D01*
X151069766Y-103837657D01*
X151143305Y-103800888D01*
X151327152Y-103800888D01*
X151400691Y-103837657D01*
X151437461Y-103874427D01*
X151474230Y-103947966D01*
X151474230Y-104168583D01*
X151437461Y-104242122D01*
X151400691Y-104278891D01*
X143283577Y-107668907D02*
X143798350Y-107668907D01*
X142989421Y-107852754D02*
X143540964Y-108036602D01*
X143540964Y-107558598D01*
X151474230Y-108274288D02*
X151474230Y-108715522D01*
X151474230Y-108494905D02*
X150702070Y-108494905D01*
X150812379Y-108568444D01*
X150885918Y-108641983D01*
X150922688Y-108715522D01*
X150785010Y-106553522D02*
X150748240Y-106516752D01*
X150711470Y-106443213D01*
X150711470Y-106259366D01*
X150748240Y-106185827D01*
X150785010Y-106149057D01*
X150858549Y-106112288D01*
X150932088Y-106112288D01*
X151042396Y-106149057D01*
X151483630Y-106590291D01*
X151483630Y-106112288D01*
D20*
X165910390Y-103411767D02*
X165410390Y-103411767D01*
X165410390Y-103221291D01*
X165434200Y-103173672D01*
X165458010Y-103149863D01*
X165505629Y-103126053D01*
X165577057Y-103126053D01*
X165624676Y-103149863D01*
X165648486Y-103173672D01*
X165672295Y-103221291D01*
X165672295Y-103411767D01*
X165458010Y-102935577D02*
X165434200Y-102911767D01*
X165410390Y-102864148D01*
X165410390Y-102745101D01*
X165434200Y-102697482D01*
X165458010Y-102673672D01*
X165505629Y-102649863D01*
X165553248Y-102649863D01*
X165624676Y-102673672D01*
X165910390Y-102959386D01*
X165910390Y-102649863D01*
D18*
X131581040Y-112278000D02*
X131542040Y-112278000D01*
X131464041Y-112239000D01*
X131425041Y-112200000D01*
X131386040Y-112122000D01*
X131386041Y-112044000D01*
X131405541Y-111985500D01*
X131464041Y-111888001D01*
X131522541Y-111829501D01*
X131620040Y-111771001D01*
X131678541Y-111751500D01*
X131756540Y-111751500D01*
X131834541Y-111790501D01*
X131873540Y-111829501D01*
X131912540Y-111907500D01*
X131912540Y-111946500D01*
X131932040Y-112707000D02*
X131698041Y-112473000D01*
X131815040Y-112590000D02*
X132224540Y-112180500D01*
X132127040Y-112200000D01*
X132049040Y-112200000D01*
X131990540Y-112180501D01*
X128078500Y-111332500D02*
X127844501Y-111098501D01*
X127961500Y-111215500D02*
X128371000Y-110806000D01*
X128273501Y-110825500D01*
X128195500Y-110825501D01*
X128137001Y-110806001D01*
X128741500Y-111176500D02*
X128780500Y-111215501D01*
X128800000Y-111274000D01*
X128800000Y-111313000D01*
X128780500Y-111371500D01*
X128722000Y-111469000D01*
X128624500Y-111566500D01*
X128527001Y-111625000D01*
X128468500Y-111644500D01*
X128429500Y-111644500D01*
X128371001Y-111625000D01*
X128332000Y-111586000D01*
X128312500Y-111527500D01*
X128312500Y-111488501D01*
X128332001Y-111430000D01*
X128390501Y-111332501D01*
X128488001Y-111235001D01*
X128585501Y-111176500D01*
X128644001Y-111157000D01*
X128683000Y-111157000D01*
X128741500Y-111176500D01*
X129131500Y-111566500D02*
X129170500Y-111605501D01*
X129190000Y-111664000D01*
X129190000Y-111703000D01*
X129170500Y-111761500D01*
X129112000Y-111859000D01*
X129014500Y-111956500D01*
X128917000Y-112014999D01*
X128858500Y-112034500D01*
X128819500Y-112034500D01*
X128761001Y-112015000D01*
X128722000Y-111976000D01*
X128702500Y-111917500D01*
X128702500Y-111878500D01*
X128722001Y-111820000D01*
X128780500Y-111722501D01*
X128878001Y-111625000D01*
X128975501Y-111566500D01*
X129034000Y-111547000D01*
X129073000Y-111547000D01*
X129131500Y-111566500D01*
X129307000Y-112015000D02*
X129034000Y-112288000D01*
X129268000Y-112054000D02*
X129307000Y-112054000D01*
X129365500Y-112073500D01*
X129424000Y-112132000D01*
X129443500Y-112190500D01*
X129424000Y-112249000D01*
X129209500Y-112463500D01*
X129755500Y-112580500D02*
X129619000Y-112444000D01*
X129404500Y-112658500D02*
X129814000Y-112249000D01*
X130009000Y-112444000D01*
X140748070Y-111731158D02*
X140509975Y-111897825D01*
X140748070Y-112016872D02*
X140248070Y-112016872D01*
X140248070Y-111826396D01*
X140271880Y-111778777D01*
X140295690Y-111754968D01*
X140343309Y-111731158D01*
X140414737Y-111731158D01*
X140462356Y-111754968D01*
X140486166Y-111778777D01*
X140509975Y-111826396D01*
X140509975Y-112016872D01*
X140748070Y-111516872D02*
X140248070Y-111516872D01*
X140248070Y-111326396D01*
X140271880Y-111278777D01*
X140295690Y-111254968D01*
X140343309Y-111231158D01*
X140414737Y-111231158D01*
X140462356Y-111254968D01*
X140486166Y-111278777D01*
X140509975Y-111326396D01*
X140509975Y-111516872D01*
X140748070Y-110754968D02*
X140748070Y-111040682D01*
X140748070Y-110897825D02*
X140248070Y-110897825D01*
X140319499Y-110945444D01*
X140367118Y-110993063D01*
X140390928Y-111040682D01*
X141568110Y-111694838D02*
X141568110Y-111980552D01*
X141568110Y-111837695D02*
X141068110Y-111837695D01*
X141139539Y-111885314D01*
X141187158Y-111932933D01*
X141210968Y-111980552D01*
X141568110Y-111480552D02*
X141068110Y-111480552D01*
X141568110Y-111194838D02*
X141282396Y-111409124D01*
X141068110Y-111194838D02*
X141353825Y-111480552D01*
D17*
X138355688Y-101954162D02*
X138524047Y-102122521D01*
X138052642Y-101886819D02*
X138355688Y-101954162D01*
X138288344Y-101651117D01*
X138944943Y-101701625D02*
X138742913Y-101903655D01*
X138843928Y-101802640D02*
X138490374Y-101449086D01*
X138507211Y-101533266D01*
X138507211Y-101600609D01*
X138490375Y-101651117D01*
D21*
X139200065Y-101340585D02*
X139063565Y-101477085D01*
X139131815Y-101408835D02*
X138892940Y-101169960D01*
X138904315Y-101226835D01*
X138904315Y-101272335D01*
X138892940Y-101306460D01*
X139165939Y-100896961D02*
X139120440Y-100942460D01*
X139109064Y-100976586D01*
X139109065Y-100999336D01*
X139120440Y-101056211D01*
X139154565Y-101113085D01*
X139245565Y-101204085D01*
X139279689Y-101215461D01*
X139302440Y-101215461D01*
X139336564Y-101204085D01*
X139382064Y-101158585D01*
X139393439Y-101124461D01*
X139393439Y-101101711D01*
X139382065Y-101067586D01*
X139325190Y-101010710D01*
X139291065Y-100999336D01*
X139268314Y-100999336D01*
X139234190Y-101010711D01*
X139188690Y-101056211D01*
X139177314Y-101090335D01*
X139177314Y-101113086D01*
X139188690Y-101147210D01*
X139529939Y-101010711D02*
X139291064Y-100771836D01*
X139541314Y-100862836D01*
X139450314Y-100612586D01*
X139689189Y-100851461D01*
X139802938Y-100737711D02*
X139564064Y-100498836D01*
X139677814Y-100612586D02*
X139814314Y-100476087D01*
X139939438Y-100601211D02*
X139700564Y-100362336D01*
X139871189Y-100350961D02*
X139996314Y-100225836D01*
X140030439Y-100510211D01*
X140155563Y-100385086D01*
D18*
X139926423Y-105604491D02*
X139347303Y-105604491D01*
X139347303Y-105383874D01*
X139374880Y-105328720D01*
X139402457Y-105301143D01*
X139457611Y-105273566D01*
X139540343Y-105273566D01*
X139595497Y-105301143D01*
X139623074Y-105328720D01*
X139650651Y-105383874D01*
X139650651Y-105604491D01*
X139347303Y-105080526D02*
X139926423Y-104942640D01*
X139512766Y-104832331D01*
X139926423Y-104722023D01*
X139347303Y-104584137D01*
X139926423Y-104032595D02*
X139650651Y-104225635D01*
X139926423Y-104363520D02*
X139347303Y-104363520D01*
X139347303Y-104142903D01*
X139374880Y-104087749D01*
X139402457Y-104060172D01*
X139457611Y-104032595D01*
X139540343Y-104032595D01*
X139595497Y-104060172D01*
X139623074Y-104087749D01*
X139650651Y-104142903D01*
X139650651Y-104363520D01*
X139347303Y-103508629D02*
X139347303Y-103784400D01*
X139623074Y-103811977D01*
X139595497Y-103784400D01*
X139567920Y-103729246D01*
X139567920Y-103591360D01*
X139595497Y-103536206D01*
X139623074Y-103508629D01*
X139678229Y-103481052D01*
X139816114Y-103481052D01*
X139871269Y-103508629D01*
X139898846Y-103536206D01*
X139926423Y-103591360D01*
X139926423Y-103729246D01*
X139898846Y-103784400D01*
X139871269Y-103811977D01*
X139347303Y-102984663D02*
X139347303Y-103094972D01*
X139374880Y-103150126D01*
X139402457Y-103177703D01*
X139485189Y-103232857D01*
X139595497Y-103260434D01*
X139816114Y-103260434D01*
X139871269Y-103232857D01*
X139898846Y-103205280D01*
X139926423Y-103150126D01*
X139926423Y-103039817D01*
X139898846Y-102984663D01*
X139871269Y-102957086D01*
X139816114Y-102929509D01*
X139678229Y-102929509D01*
X139623074Y-102957086D01*
X139595497Y-102984663D01*
X139567920Y-103039817D01*
X139567920Y-103150126D01*
X139595497Y-103205280D01*
X139623074Y-103232857D01*
X139678229Y-103260434D01*
X141879320Y-105324366D02*
X141851743Y-105379520D01*
X141851743Y-105462251D01*
X141879320Y-105544983D01*
X141934474Y-105600137D01*
X141989629Y-105627714D01*
X142099937Y-105655291D01*
X142182669Y-105655291D01*
X142292977Y-105627714D01*
X142348131Y-105600137D01*
X142403286Y-105544983D01*
X142430863Y-105462251D01*
X142430863Y-105407097D01*
X142403286Y-105324366D01*
X142375709Y-105296789D01*
X142182669Y-105296789D01*
X142182669Y-105407097D01*
X142430863Y-105048594D02*
X142044783Y-105048594D01*
X142155091Y-105048594D02*
X142099937Y-105021017D01*
X142072360Y-104993440D01*
X142044783Y-104938286D01*
X142044783Y-104883131D01*
X142403286Y-104469474D02*
X142430863Y-104524628D01*
X142430863Y-104634937D01*
X142403286Y-104690091D01*
X142348131Y-104717668D01*
X142127514Y-104717668D01*
X142072360Y-104690091D01*
X142044783Y-104634937D01*
X142044783Y-104524628D01*
X142072360Y-104469474D01*
X142127514Y-104441897D01*
X142182669Y-104441897D01*
X142237823Y-104717668D01*
X142403286Y-103973085D02*
X142430863Y-104028239D01*
X142430863Y-104138548D01*
X142403286Y-104193702D01*
X142348131Y-104221279D01*
X142127514Y-104221279D01*
X142072360Y-104193702D01*
X142044783Y-104138548D01*
X142044783Y-104028239D01*
X142072360Y-103973085D01*
X142127514Y-103945508D01*
X142182669Y-103945508D01*
X142237823Y-104221279D01*
X142044783Y-103697313D02*
X142430863Y-103697313D01*
X142099937Y-103697313D02*
X142072360Y-103669736D01*
X142044783Y-103614582D01*
X142044783Y-103531850D01*
X142072360Y-103476696D01*
X142127514Y-103449119D01*
X142430863Y-103449119D01*
X137941000Y-112132001D02*
X137941000Y-112171001D01*
X137902000Y-112249000D01*
X137863000Y-112288000D01*
X137785000Y-112327000D01*
X137707000Y-112327000D01*
X137648500Y-112307500D01*
X137551001Y-112249000D01*
X137492500Y-112190500D01*
X137434001Y-112093000D01*
X137414500Y-112034500D01*
X137414500Y-111956501D01*
X137453501Y-111878500D01*
X137492500Y-111839501D01*
X137570500Y-111800501D01*
X137609500Y-111800501D01*
X137707000Y-111625001D02*
X137980000Y-111352001D01*
X138214000Y-111937001D01*
X136390277Y-108855042D02*
X136156277Y-109089041D01*
X136273277Y-108972042D02*
X135863777Y-108562542D01*
X135883277Y-108660041D01*
X135883278Y-108738042D01*
X135863778Y-108796541D01*
X136468277Y-108231042D02*
X136741277Y-108504042D01*
X136292777Y-108406541D02*
X136507277Y-108621041D01*
X136565777Y-108640541D01*
X136624277Y-108621042D01*
X136682777Y-108562541D01*
X136702277Y-108504042D01*
X136702277Y-108465042D01*
X136858277Y-107958041D02*
X136721777Y-108094541D01*
X136936277Y-108309041D02*
X136526777Y-107899542D01*
X136721777Y-107704542D01*
D16*
X108352771Y-116619383D02*
X107844771Y-116619383D01*
X107844771Y-117417669D02*
X107844771Y-115893669D01*
X108570485Y-115893669D01*
X110021914Y-117417669D02*
X109513914Y-116691954D01*
X109151057Y-117417669D02*
X109151057Y-115893669D01*
X109731629Y-115893669D01*
X109876771Y-115966240D01*
X109949343Y-116038811D01*
X110021914Y-116183954D01*
X110021914Y-116401669D01*
X109949343Y-116546811D01*
X109876771Y-116619383D01*
X109731629Y-116691954D01*
X109151057Y-116691954D01*
X110602486Y-116982240D02*
X111328200Y-116982240D01*
X110457343Y-117417669D02*
X110965343Y-115893669D01*
X111473343Y-117417669D01*
X111981343Y-117417669D02*
X111981343Y-115893669D01*
X112489343Y-116982240D01*
X112997343Y-115893669D01*
X112997343Y-117417669D01*
X113723057Y-116619383D02*
X114231057Y-116619383D01*
X114448771Y-117417669D02*
X113723057Y-117417669D01*
X113723057Y-115893669D01*
X114448771Y-115893669D01*
X115900200Y-117417669D02*
X115029343Y-117417669D01*
X115464771Y-117417669D02*
X115464771Y-115893669D01*
X115319628Y-116111383D01*
X115174486Y-116256526D01*
X115029343Y-116329097D01*
X107743172Y-114837029D02*
X107743172Y-113313029D01*
X108106029Y-113313029D01*
X108323744Y-113385600D01*
X108468886Y-113530743D01*
X108541458Y-113675886D01*
X108614029Y-113966171D01*
X108614029Y-114183886D01*
X108541458Y-114474171D01*
X108468886Y-114619314D01*
X108323744Y-114764457D01*
X108106029Y-114837029D01*
X107743172Y-114837029D01*
X109267172Y-114837029D02*
X109267172Y-113313029D01*
X110138029Y-114837029D01*
X110138029Y-113313029D01*
X110863743Y-114837029D02*
X110863743Y-113313029D01*
X111444315Y-113313029D01*
X111589457Y-113385600D01*
X111662029Y-113458171D01*
X111734600Y-113603314D01*
X111734600Y-113821029D01*
X111662029Y-113966171D01*
X111589457Y-114038743D01*
X111444315Y-114111314D01*
X110863743Y-114111314D01*
D20*
X144593833Y-113327310D02*
X144593833Y-112827310D01*
X144784309Y-112827310D01*
X144831928Y-112851120D01*
X144855737Y-112874930D01*
X144879547Y-112922549D01*
X144879547Y-112993977D01*
X144855737Y-113041596D01*
X144831928Y-113065406D01*
X144784309Y-113089215D01*
X144593833Y-113089215D01*
X145355737Y-113327310D02*
X145070023Y-113327310D01*
X145212880Y-113327310D02*
X145212880Y-112827310D01*
X145165261Y-112898739D01*
X145117642Y-112946358D01*
X145070023Y-112970168D01*
X165854510Y-109446807D02*
X165354510Y-109446807D01*
X165354510Y-109256331D01*
X165378320Y-109208712D01*
X165402130Y-109184903D01*
X165449749Y-109161093D01*
X165521177Y-109161093D01*
X165568796Y-109184903D01*
X165592606Y-109208712D01*
X165616415Y-109256331D01*
X165616415Y-109446807D01*
X165354510Y-108994426D02*
X165354510Y-108684903D01*
X165544987Y-108851569D01*
X165544987Y-108780141D01*
X165568796Y-108732522D01*
X165592606Y-108708712D01*
X165640225Y-108684903D01*
X165759272Y-108684903D01*
X165806891Y-108708712D01*
X165830701Y-108732522D01*
X165854510Y-108780141D01*
X165854510Y-108922998D01*
X165830701Y-108970617D01*
X165806891Y-108994426D01*
X151276810Y-112315619D02*
X151253000Y-112363238D01*
X151205381Y-112410857D01*
X151133952Y-112482286D01*
X151110143Y-112529905D01*
X151110143Y-112577524D01*
X151229190Y-112553714D02*
X151205381Y-112601333D01*
X151157762Y-112648952D01*
X151062524Y-112672762D01*
X150895857Y-112672762D01*
X150800619Y-112648952D01*
X150753000Y-112601333D01*
X150729190Y-112553714D01*
X150729190Y-112458476D01*
X150753000Y-112410857D01*
X150800619Y-112363238D01*
X150895857Y-112339429D01*
X151062524Y-112339429D01*
X151157762Y-112363238D01*
X151205381Y-112410857D01*
X151229190Y-112458476D01*
X151229190Y-112553714D01*
X151229190Y-111863238D02*
X151229190Y-112148952D01*
X151229190Y-112006095D02*
X150729190Y-112006095D01*
X150800619Y-112053714D01*
X150848238Y-112101333D01*
X150872048Y-112148952D01*
D16*
X158711972Y-104744781D02*
X158378638Y-104268590D01*
X158140543Y-104744781D02*
X158140543Y-103744781D01*
X158521496Y-103744781D01*
X158616734Y-103792400D01*
X158664353Y-103840019D01*
X158711972Y-103935257D01*
X158711972Y-104078114D01*
X158664353Y-104173352D01*
X158616734Y-104220971D01*
X158521496Y-104268590D01*
X158140543Y-104268590D01*
X159616734Y-104744781D02*
X159140543Y-104744781D01*
X159140543Y-103744781D01*
X160473877Y-104744781D02*
X159902448Y-104744781D01*
X160188162Y-104744781D02*
X160188162Y-103744781D01*
X160092924Y-103887638D01*
X159997686Y-103982876D01*
X159902448Y-104030495D01*
M02*
