M48
;DRILL file {KiCad 4.0.2+dfsg1-stable} date 2017年12月22日 星期五 14时15分07秒
;FORMAT={-:-/ absolute / metric / decimal}
FMAT,2
METRIC,TZ
T1C0.400
T2C0.650
T3C0.762
T4C1.000
T5C1.016
%
G90
G05
M71
T1
X127.853Y-102.596
X128.666Y-100.614
X129.662Y-100.675
X130.007Y-106.004
X130.703Y-103.881
X132.039Y-102.382
X133.06Y-102.321
X133.792Y-103.236
X133.975Y-108.798
X134.Y-107.737
X134.539Y-102.616
X135.621Y-106.954
X135.941Y-105.476
X136.266Y-110.531
X138.298Y-109.179
X139.253Y-102.347
X139.314Y-107.493
X139.395Y-103.434
X141.651Y-106.822
X142.504Y-108.367
X143.906Y-108.047
T2
X152.273Y-109.728
X152.273Y-110.998
X152.273Y-112.268
T3
X155.885Y-98.445
X155.885Y-108.605
X155.885Y-111.145
X163.505Y-98.445
X163.505Y-108.605
X163.505Y-111.145
T4
X167.528Y-100.416
X167.528Y-102.956
X167.528Y-106.284
X167.528Y-108.824
T5
X143.891Y-111.252
X144.064Y-97.917
X144.064Y-100.457
X146.431Y-111.252
X146.604Y-97.917
X146.604Y-100.457
X148.971Y-111.252
X149.144Y-97.917
X149.144Y-100.457
T0
M30
