G04 #@! TF.FileFunction,Paste,Top*
%FSLAX46Y46*%
G04 Gerber Fmt 4.6, Leading zero omitted, Abs format (unit mm)*
G04 Created by KiCad (PCBNEW 4.0.2+dfsg1-stable) date 2017年12月22日 星期五 14时14分46秒*
%MOMM*%
G01*
G04 APERTURE LIST*
%ADD10C,0.100000*%
%ADD11R,2.235200X1.219200*%
%ADD12R,2.200000X3.600000*%
%ADD13C,0.898400*%
%ADD14R,0.650000X0.500000*%
%ADD15R,1.200000X1.200000*%
G04 APERTURE END LIST*
D10*
G36*
X138616673Y-103707994D02*
X139011804Y-104103125D01*
X138113779Y-105001150D01*
X137718648Y-104606019D01*
X138616673Y-103707994D01*
X138616673Y-103707994D01*
G37*
G36*
X138050987Y-103142309D02*
X138446118Y-103537440D01*
X137548093Y-104435465D01*
X137152962Y-104040334D01*
X138050987Y-103142309D01*
X138050987Y-103142309D01*
G37*
G36*
X137485302Y-102576624D02*
X137880433Y-102971755D01*
X136982408Y-103869780D01*
X136587277Y-103474649D01*
X137485302Y-102576624D01*
X137485302Y-102576624D01*
G37*
G36*
X136919616Y-102010938D02*
X137314747Y-102406069D01*
X136416722Y-103304094D01*
X136021591Y-102908963D01*
X136919616Y-102010938D01*
X136919616Y-102010938D01*
G37*
G36*
X136353931Y-101445253D02*
X136749062Y-101840384D01*
X135851037Y-102738409D01*
X135455906Y-102343278D01*
X136353931Y-101445253D01*
X136353931Y-101445253D01*
G37*
G36*
X135788245Y-100879567D02*
X136183376Y-101274698D01*
X135285351Y-102172723D01*
X134890220Y-101777592D01*
X135788245Y-100879567D01*
X135788245Y-100879567D01*
G37*
G36*
X135222560Y-100313882D02*
X135617691Y-100709013D01*
X134719666Y-101607038D01*
X134324535Y-101211907D01*
X135222560Y-100313882D01*
X135222560Y-100313882D01*
G37*
G36*
X134656875Y-99748196D02*
X135052006Y-100143327D01*
X134153981Y-101041352D01*
X133758850Y-100646221D01*
X134656875Y-99748196D01*
X134656875Y-99748196D01*
G37*
G36*
X132043125Y-99748196D02*
X132941150Y-100646221D01*
X132546019Y-101041352D01*
X131647994Y-100143327D01*
X132043125Y-99748196D01*
X132043125Y-99748196D01*
G37*
G36*
X131477440Y-100313882D02*
X132375465Y-101211907D01*
X131980334Y-101607038D01*
X131082309Y-100709013D01*
X131477440Y-100313882D01*
X131477440Y-100313882D01*
G37*
G36*
X130911755Y-100879567D02*
X131809780Y-101777592D01*
X131414649Y-102172723D01*
X130516624Y-101274698D01*
X130911755Y-100879567D01*
X130911755Y-100879567D01*
G37*
G36*
X130346069Y-101445253D02*
X131244094Y-102343278D01*
X130848963Y-102738409D01*
X129950938Y-101840384D01*
X130346069Y-101445253D01*
X130346069Y-101445253D01*
G37*
G36*
X129780384Y-102010938D02*
X130678409Y-102908963D01*
X130283278Y-103304094D01*
X129385253Y-102406069D01*
X129780384Y-102010938D01*
X129780384Y-102010938D01*
G37*
G36*
X129214698Y-102576624D02*
X130112723Y-103474649D01*
X129717592Y-103869780D01*
X128819567Y-102971755D01*
X129214698Y-102576624D01*
X129214698Y-102576624D01*
G37*
G36*
X128649013Y-103142309D02*
X129547038Y-104040334D01*
X129151907Y-104435465D01*
X128253882Y-103537440D01*
X128649013Y-103142309D01*
X128649013Y-103142309D01*
G37*
G36*
X128083327Y-103707994D02*
X128981352Y-104606019D01*
X128586221Y-105001150D01*
X127688196Y-104103125D01*
X128083327Y-103707994D01*
X128083327Y-103707994D01*
G37*
G36*
X128586221Y-105818850D02*
X128981352Y-106213981D01*
X128083327Y-107112006D01*
X127688196Y-106716875D01*
X128586221Y-105818850D01*
X128586221Y-105818850D01*
G37*
G36*
X129151907Y-106384535D02*
X129547038Y-106779666D01*
X128649013Y-107677691D01*
X128253882Y-107282560D01*
X129151907Y-106384535D01*
X129151907Y-106384535D01*
G37*
G36*
X129717592Y-106950220D02*
X130112723Y-107345351D01*
X129214698Y-108243376D01*
X128819567Y-107848245D01*
X129717592Y-106950220D01*
X129717592Y-106950220D01*
G37*
G36*
X130283278Y-107515906D02*
X130678409Y-107911037D01*
X129780384Y-108809062D01*
X129385253Y-108413931D01*
X130283278Y-107515906D01*
X130283278Y-107515906D01*
G37*
G36*
X130848963Y-108081591D02*
X131244094Y-108476722D01*
X130346069Y-109374747D01*
X129950938Y-108979616D01*
X130848963Y-108081591D01*
X130848963Y-108081591D01*
G37*
G36*
X131414649Y-108647277D02*
X131809780Y-109042408D01*
X130911755Y-109940433D01*
X130516624Y-109545302D01*
X131414649Y-108647277D01*
X131414649Y-108647277D01*
G37*
G36*
X131980334Y-109212962D02*
X132375465Y-109608093D01*
X131477440Y-110506118D01*
X131082309Y-110110987D01*
X131980334Y-109212962D01*
X131980334Y-109212962D01*
G37*
G36*
X132546019Y-109778648D02*
X132941150Y-110173779D01*
X132043125Y-111071804D01*
X131647994Y-110676673D01*
X132546019Y-109778648D01*
X132546019Y-109778648D01*
G37*
G36*
X134153981Y-109778648D02*
X135052006Y-110676673D01*
X134656875Y-111071804D01*
X133758850Y-110173779D01*
X134153981Y-109778648D01*
X134153981Y-109778648D01*
G37*
G36*
X134719666Y-109212962D02*
X135617691Y-110110987D01*
X135222560Y-110506118D01*
X134324535Y-109608093D01*
X134719666Y-109212962D01*
X134719666Y-109212962D01*
G37*
G36*
X135285351Y-108647277D02*
X136183376Y-109545302D01*
X135788245Y-109940433D01*
X134890220Y-109042408D01*
X135285351Y-108647277D01*
X135285351Y-108647277D01*
G37*
G36*
X135851037Y-108081591D02*
X136749062Y-108979616D01*
X136353931Y-109374747D01*
X135455906Y-108476722D01*
X135851037Y-108081591D01*
X135851037Y-108081591D01*
G37*
G36*
X136416722Y-107515906D02*
X137314747Y-108413931D01*
X136919616Y-108809062D01*
X136021591Y-107911037D01*
X136416722Y-107515906D01*
X136416722Y-107515906D01*
G37*
G36*
X136982408Y-106950220D02*
X137880433Y-107848245D01*
X137485302Y-108243376D01*
X136587277Y-107345351D01*
X136982408Y-106950220D01*
X136982408Y-106950220D01*
G37*
G36*
X137548093Y-106384535D02*
X138446118Y-107282560D01*
X138050987Y-107677691D01*
X137152962Y-106779666D01*
X137548093Y-106384535D01*
X137548093Y-106384535D01*
G37*
G36*
X138113779Y-105818850D02*
X139011804Y-106716875D01*
X138616673Y-107112006D01*
X137718648Y-106213981D01*
X138113779Y-105818850D01*
X138113779Y-105818850D01*
G37*
D11*
X150291800Y-107721400D03*
X150291800Y-105410000D03*
X150291800Y-103098600D03*
D12*
X144094000Y-105410000D03*
D13*
X129094106Y-110440658D02*
X129236658Y-110298106D01*
X130351342Y-111697894D02*
X130493894Y-111555342D01*
D14*
X140295000Y-107512000D03*
X140295000Y-108312000D03*
X140295000Y-109112000D03*
X140295000Y-109912000D03*
X141645000Y-109912000D03*
X141645000Y-109112000D03*
X141645000Y-108312000D03*
X141645000Y-107512000D03*
D10*
G36*
X139164926Y-99107153D02*
X139659901Y-99602128D01*
X138245688Y-101016341D01*
X137750713Y-100521366D01*
X139164926Y-99107153D01*
X139164926Y-99107153D01*
G37*
G36*
X138457819Y-98400046D02*
X138952794Y-98895021D01*
X137538581Y-100309234D01*
X137043606Y-99814259D01*
X138457819Y-98400046D01*
X138457819Y-98400046D01*
G37*
G36*
X137750712Y-97692939D02*
X138245687Y-98187914D01*
X136831474Y-99602127D01*
X136336499Y-99107152D01*
X137750712Y-97692939D01*
X137750712Y-97692939D01*
G37*
D15*
X140843000Y-105063000D03*
X140843000Y-102963000D03*
D13*
X137463342Y-110552106D02*
X137605894Y-110694658D01*
X136206106Y-111809342D02*
X136348658Y-111951894D01*
M02*
