G04 #@! TF.FileFunction,Copper,L2,Bot,Signal*
%FSLAX46Y46*%
G04 Gerber Fmt 4.6, Leading zero omitted, Abs format (unit mm)*
G04 Created by KiCad (PCBNEW 4.0.2+dfsg1-stable) date 2017年12月22日 星期五 14时14分46秒*
%MOMM*%
G01*
G04 APERTURE LIST*
%ADD10C,0.100000*%
%ADD11C,1.550000*%
%ADD12R,1.700000X1.700000*%
%ADD13O,1.700000X1.700000*%
%ADD14R,1.778000X1.117600*%
%ADD15O,1.100000X0.898400*%
%ADD16R,1.727200X2.032000*%
%ADD17O,1.727200X2.032000*%
%ADD18O,1.099820X0.896620*%
%ADD19R,1.000000X1.000000*%
%ADD20O,1.000000X1.000000*%
%ADD21C,1.250000*%
%ADD22C,0.600000*%
%ADD23C,0.250000*%
%ADD24C,0.254000*%
G04 APERTURE END LIST*
D10*
D11*
X144063720Y-100457000D03*
X144063720Y-97917000D03*
X146603720Y-100457000D03*
X146603720Y-97917000D03*
X149143720Y-100457000D03*
X149143720Y-97917000D03*
D12*
X167528240Y-100416360D03*
D13*
X167528240Y-102956360D03*
D14*
X147193000Y-106807000D03*
X147193000Y-104013000D03*
D15*
X132080000Y-104521000D03*
X132080000Y-106299000D03*
D16*
X143891000Y-111252000D03*
D17*
X146431000Y-111252000D03*
X148971000Y-111252000D03*
D18*
X135534400Y-99390200D03*
X135534400Y-97614740D03*
X133832600Y-99390200D03*
X133832600Y-97614740D03*
X132054600Y-99390200D03*
X132054600Y-97614740D03*
X130347720Y-99395280D03*
X130347720Y-97619820D03*
D12*
X167528240Y-106283760D03*
D13*
X167528240Y-108823760D03*
D19*
X152273000Y-112268000D03*
D20*
X152273000Y-110998000D03*
X152273000Y-109728000D03*
D18*
X134493000Y-104521000D03*
X134493000Y-106296460D03*
X138968480Y-99359720D03*
X138968480Y-97584260D03*
X137241280Y-99359720D03*
X137241280Y-97584260D03*
D21*
X163504880Y-98445320D03*
X163504880Y-108605320D03*
X155884880Y-111145320D03*
X163504880Y-111145320D03*
X155884880Y-108605320D03*
X155884880Y-98445320D03*
D22*
X135940800Y-105476040D03*
X136265920Y-110530640D03*
X134538720Y-102616000D03*
X130007360Y-106004360D03*
X143906240Y-108046520D03*
X138297920Y-109179360D03*
X142504160Y-108366560D03*
X135620760Y-106954320D03*
X130703320Y-103880920D03*
X127853440Y-102595680D03*
X134000240Y-107736640D03*
X133974840Y-108798360D03*
X141650720Y-106822240D03*
X139395200Y-103433880D03*
X139252960Y-102346760D03*
X133791960Y-103235760D03*
X133060440Y-102321360D03*
X132039360Y-102382320D03*
X129661920Y-100675440D03*
X128666240Y-100614480D03*
X139313920Y-107492800D03*
D23*
X149143720Y-97917000D02*
X149468840Y-97917000D01*
X149468840Y-97917000D02*
X150515320Y-98963480D01*
X150515320Y-101950520D02*
X148452840Y-104013000D01*
X150515320Y-98963480D02*
X150515320Y-101950520D01*
X149143720Y-97917000D02*
X148859240Y-97917000D01*
X132080000Y-106299000D02*
X134490460Y-106299000D01*
X134490460Y-106299000D02*
X134493000Y-106296460D01*
X135940800Y-105476040D02*
X135120380Y-106296460D01*
X135120380Y-106296460D02*
X134493000Y-106296460D01*
X163504880Y-108605320D02*
X167309800Y-108605320D01*
X167309800Y-108605320D02*
X167528240Y-108823760D01*
X147193000Y-104013000D02*
X148452840Y-104013000D01*
X148971000Y-104531160D02*
X148971000Y-111252000D01*
X148452840Y-104013000D02*
X148971000Y-104531160D01*
X130007360Y-106004360D02*
X130007360Y-106476800D01*
X135788400Y-110053120D02*
X136265920Y-110530640D01*
X133583680Y-110053120D02*
X135788400Y-110053120D01*
X130007360Y-106476800D02*
X133583680Y-110053120D01*
X134493000Y-104521000D02*
X134493000Y-102661720D01*
X134493000Y-102661720D02*
X134538720Y-102616000D01*
X132080000Y-104521000D02*
X134493000Y-104521000D01*
X132080000Y-104521000D02*
X131292600Y-104521000D01*
X130007360Y-105806240D02*
X130007360Y-106004360D01*
X131292600Y-104521000D02*
X130007360Y-105806240D01*
X147193000Y-106807000D02*
X147193000Y-107513120D01*
X144353280Y-108493560D02*
X143906240Y-108046520D01*
X146212560Y-108493560D02*
X144353280Y-108493560D01*
X147193000Y-107513120D02*
X146212560Y-108493560D01*
X138668760Y-106817160D02*
X140274040Y-106817160D01*
X140274040Y-106817160D02*
X140451418Y-106639782D01*
X149143720Y-100457000D02*
X149143720Y-100568760D01*
X149143720Y-100568760D02*
X147462240Y-102250240D01*
X142808960Y-104282240D02*
X140451418Y-106639782D01*
X143845280Y-104282240D02*
X142808960Y-104282240D01*
X145877280Y-102250240D02*
X143845280Y-104282240D01*
X147462240Y-102250240D02*
X145877280Y-102250240D01*
X138668760Y-106817160D02*
X138297920Y-107188000D01*
X138297920Y-107188000D02*
X138297920Y-109179360D01*
X143891000Y-111252000D02*
X143891000Y-109753400D01*
X143891000Y-109753400D02*
X142504160Y-108366560D01*
X143256000Y-99273360D02*
X143256000Y-99242880D01*
X143316960Y-99181920D02*
X145267680Y-99181920D01*
X143256000Y-99242880D02*
X143316960Y-99181920D01*
X142326360Y-101005640D02*
X142326360Y-101605080D01*
X140223240Y-103921560D02*
X139481560Y-104663240D01*
X140223240Y-103708200D02*
X140223240Y-103921560D01*
X142326360Y-101605080D02*
X140223240Y-103708200D01*
X146603720Y-97917000D02*
X146532600Y-97917000D01*
X146532600Y-97917000D02*
X145267680Y-99181920D01*
X143256000Y-99273360D02*
X143220440Y-99273360D01*
X143220440Y-99273360D02*
X142326360Y-100167440D01*
X142326360Y-100167440D02*
X142326360Y-101005640D01*
X139481560Y-104663240D02*
X137911840Y-104663240D01*
X137911840Y-104663240D02*
X135620760Y-106954320D01*
X130703320Y-103880920D02*
X129418080Y-102595680D01*
X129418080Y-102595680D02*
X127853440Y-102595680D01*
X139227560Y-105501440D02*
X139608560Y-105501440D01*
X141295120Y-103845360D02*
X144063720Y-101076760D01*
X141264640Y-103845360D02*
X141295120Y-103845360D01*
X139608560Y-105501440D02*
X141264640Y-103845360D01*
X144063720Y-101076760D02*
X144063720Y-100457000D01*
X139227560Y-105501440D02*
X137972800Y-105501440D01*
X136652000Y-107188000D02*
X136103360Y-107736640D01*
X136652000Y-106822240D02*
X136652000Y-107188000D01*
X137972800Y-105501440D02*
X136652000Y-106822240D01*
X136103360Y-107736640D02*
X134000240Y-107736640D01*
X138351260Y-106189780D02*
X138122660Y-106189780D01*
X137556240Y-107071160D02*
X137546080Y-107081320D01*
X137556240Y-106756200D02*
X137556240Y-107071160D01*
X138122660Y-106189780D02*
X137556240Y-106756200D01*
X142692120Y-103464360D02*
X143332200Y-103464360D01*
X143332200Y-103464360D02*
X146339560Y-100457000D01*
X146339560Y-100457000D02*
X146603720Y-100457000D01*
X139519660Y-106189780D02*
X139931140Y-106189780D01*
X142656560Y-103464360D02*
X142692120Y-103464360D01*
X139931140Y-106189780D02*
X142656560Y-103464360D01*
X139519660Y-106189780D02*
X138351260Y-106189780D01*
X137546080Y-107081320D02*
X135829040Y-108798360D01*
X135829040Y-108798360D02*
X133974840Y-108798360D01*
X146603720Y-100457000D02*
X146395440Y-100457000D01*
X146431000Y-111252000D02*
X146364960Y-111252000D01*
X146364960Y-111252000D02*
X144759680Y-112857280D01*
X144759680Y-112857280D02*
X141996160Y-112857280D01*
X141996160Y-112857280D02*
X141650720Y-112511840D01*
X141650720Y-112511840D02*
X141650720Y-106822240D01*
X155884880Y-111145320D02*
X157693360Y-111145320D01*
X162554920Y-106283760D02*
X167528240Y-106283760D01*
X157693360Y-111145320D02*
X162554920Y-106283760D01*
X138968480Y-97584260D02*
X138968480Y-97617280D01*
X138968480Y-97617280D02*
X140258800Y-98907600D01*
X140258800Y-102570280D02*
X139395200Y-103433880D01*
X140258800Y-98907600D02*
X140258800Y-102570280D01*
X130347720Y-97619820D02*
X132049520Y-97619820D01*
X132049520Y-97619820D02*
X132054600Y-97614740D01*
X132054600Y-97614740D02*
X135534400Y-97614740D01*
X135534400Y-97614740D02*
X135564880Y-97584260D01*
X135564880Y-97584260D02*
X137241280Y-97584260D01*
X137241280Y-97584260D02*
X138968480Y-97584260D01*
X138968480Y-99359720D02*
X138968480Y-99430840D01*
X138968480Y-99430840D02*
X139252960Y-99715320D01*
X139252960Y-99715320D02*
X139252960Y-102346760D01*
X138968480Y-99359720D02*
X139044680Y-99359720D01*
X134604760Y-101523800D02*
X135077200Y-101523800D01*
X135077200Y-101523800D02*
X137241280Y-99359720D01*
X137241280Y-99359720D02*
X136768840Y-99359720D01*
X134604760Y-101523800D02*
X133791960Y-102336600D01*
X133791960Y-102336600D02*
X133791960Y-103235760D01*
X135534400Y-99390200D02*
X135534400Y-99420680D01*
X135534400Y-99420680D02*
X133060440Y-101894640D01*
X133060440Y-101894640D02*
X133060440Y-102321360D01*
X133832600Y-99390200D02*
X133832600Y-99796600D01*
X133832600Y-99796600D02*
X131993640Y-101635560D01*
X131993640Y-102336600D02*
X132039360Y-102382320D01*
X131993640Y-101635560D02*
X131993640Y-102336600D01*
X130352800Y-100695760D02*
X130769360Y-100695760D01*
X130769360Y-100695760D02*
X132054600Y-99410520D01*
X132054600Y-99410520D02*
X132054600Y-99390200D01*
X132054600Y-99390200D02*
X131658360Y-99390200D01*
X130352800Y-100695760D02*
X130373120Y-100675440D01*
X130373120Y-100675440D02*
X129661920Y-100675440D01*
X130347720Y-99395280D02*
X129885440Y-99395280D01*
X129885440Y-99395280D02*
X128666240Y-100614480D01*
X152273000Y-110998000D02*
X151312880Y-110998000D01*
X139313920Y-111597440D02*
X139313920Y-107492800D01*
X141244320Y-113527840D02*
X139313920Y-111597440D01*
X149473920Y-113527840D02*
X141244320Y-113527840D01*
X150652480Y-112349280D02*
X149473920Y-113527840D01*
X150652480Y-111658400D02*
X150652480Y-112349280D01*
X151312880Y-110998000D02*
X150652480Y-111658400D01*
X163504880Y-98445320D02*
X165557200Y-98445320D01*
X165557200Y-98445320D02*
X167528240Y-100416360D01*
X152273000Y-109728000D02*
X154762200Y-109728000D01*
X154762200Y-109728000D02*
X155884880Y-108605320D01*
D24*
G36*
X138140800Y-99651355D02*
X138211193Y-99786003D01*
X138306398Y-99904415D01*
X138422790Y-100002079D01*
X138555934Y-100075276D01*
X138700761Y-100121218D01*
X138797760Y-100132098D01*
X138797760Y-101910438D01*
X138767863Y-101939715D01*
X138698040Y-102041690D01*
X138649353Y-102155285D01*
X138623657Y-102276172D01*
X138621932Y-102399749D01*
X138644242Y-102521307D01*
X138689738Y-102636217D01*
X138756687Y-102740101D01*
X138842539Y-102829003D01*
X138944023Y-102899537D01*
X139014046Y-102930129D01*
X138998404Y-102940365D01*
X138910103Y-103026835D01*
X138840280Y-103128810D01*
X138791593Y-103242405D01*
X138765897Y-103363292D01*
X138764172Y-103486869D01*
X138786482Y-103608427D01*
X138831978Y-103723337D01*
X138898927Y-103827221D01*
X138984779Y-103916123D01*
X139086263Y-103986657D01*
X139199515Y-104036136D01*
X139320221Y-104062674D01*
X139435951Y-104065099D01*
X139293010Y-104208040D01*
X137911840Y-104208040D01*
X137869980Y-104212144D01*
X137828105Y-104215808D01*
X137825808Y-104216475D01*
X137823425Y-104216709D01*
X137783153Y-104228868D01*
X137742793Y-104240594D01*
X137740669Y-104241695D01*
X137738377Y-104242387D01*
X137701211Y-104262148D01*
X137663920Y-104281478D01*
X137662053Y-104282968D01*
X137659936Y-104284094D01*
X137627343Y-104310676D01*
X137594490Y-104336902D01*
X137591158Y-104340188D01*
X137591091Y-104340243D01*
X137591040Y-104340305D01*
X137589965Y-104341365D01*
X135607346Y-106323984D01*
X135563367Y-106323677D01*
X135441968Y-106346835D01*
X135395661Y-106365544D01*
X135365755Y-106321460D01*
X134518000Y-106321460D01*
X134518000Y-107175770D01*
X134619600Y-107175770D01*
X134790665Y-107153997D01*
X134954195Y-107099269D01*
X135001633Y-107072152D01*
X135012042Y-107128867D01*
X135057538Y-107243777D01*
X135081810Y-107281440D01*
X134436387Y-107281440D01*
X134403888Y-107248713D01*
X134301429Y-107179603D01*
X134260135Y-107162245D01*
X134366400Y-107175770D01*
X134468000Y-107175770D01*
X134468000Y-106321460D01*
X133620245Y-106321460D01*
X133527177Y-106458651D01*
X133569456Y-106609860D01*
X133646391Y-106764191D01*
X133751956Y-106900548D01*
X133882094Y-107013690D01*
X134031805Y-107099269D01*
X134054233Y-107106775D01*
X133942847Y-107105997D01*
X133821448Y-107129155D01*
X133706858Y-107175452D01*
X133603444Y-107243125D01*
X133515143Y-107329595D01*
X133445320Y-107431570D01*
X133396633Y-107545165D01*
X133370937Y-107666052D01*
X133369212Y-107789629D01*
X133391522Y-107911187D01*
X133437018Y-108026097D01*
X133503967Y-108129981D01*
X133589819Y-108218883D01*
X133647812Y-108259190D01*
X133578044Y-108304845D01*
X133489743Y-108391315D01*
X133419920Y-108493290D01*
X133371233Y-108606885D01*
X133345537Y-108727772D01*
X133343812Y-108851349D01*
X133366122Y-108972907D01*
X133411618Y-109087817D01*
X133478567Y-109191701D01*
X133564419Y-109280603D01*
X133665903Y-109351137D01*
X133779155Y-109400616D01*
X133899861Y-109427154D01*
X134023422Y-109429743D01*
X134145133Y-109408282D01*
X134260358Y-109363589D01*
X134364707Y-109297367D01*
X134410709Y-109253560D01*
X135829040Y-109253560D01*
X135870904Y-109249455D01*
X135912775Y-109245792D01*
X135915072Y-109245125D01*
X135917455Y-109244891D01*
X135957727Y-109232732D01*
X135998087Y-109221006D01*
X136000211Y-109219905D01*
X136002503Y-109219213D01*
X136039630Y-109199473D01*
X136076960Y-109180123D01*
X136078831Y-109178630D01*
X136080944Y-109177506D01*
X136113509Y-109150946D01*
X136146390Y-109124698D01*
X136149722Y-109121412D01*
X136149789Y-109121357D01*
X136149840Y-109121295D01*
X136150915Y-109120235D01*
X137842720Y-107428430D01*
X137842720Y-108743038D01*
X137812823Y-108772315D01*
X137743000Y-108874290D01*
X137694313Y-108987885D01*
X137668617Y-109108772D01*
X137666892Y-109232349D01*
X137689202Y-109353907D01*
X137734698Y-109468817D01*
X137801647Y-109572701D01*
X137887499Y-109661603D01*
X137988983Y-109732137D01*
X138102235Y-109781616D01*
X138222941Y-109808154D01*
X138346502Y-109810743D01*
X138468213Y-109789282D01*
X138583438Y-109744589D01*
X138687787Y-109678367D01*
X138777286Y-109593138D01*
X138848527Y-109492148D01*
X138858720Y-109469254D01*
X138858720Y-111597440D01*
X138862825Y-111639304D01*
X138866488Y-111681175D01*
X138867155Y-111683472D01*
X138867389Y-111685855D01*
X138879548Y-111726127D01*
X138891274Y-111766487D01*
X138892375Y-111768611D01*
X138893067Y-111770903D01*
X138912807Y-111808030D01*
X138932157Y-111845360D01*
X138933650Y-111847231D01*
X138934774Y-111849344D01*
X138961334Y-111881909D01*
X138987582Y-111914790D01*
X138990868Y-111918122D01*
X138990923Y-111918189D01*
X138990985Y-111918240D01*
X138992045Y-111919315D01*
X140547204Y-113474474D01*
X135659261Y-113488400D01*
X127316300Y-113488400D01*
X127316300Y-102925608D01*
X127357167Y-102989021D01*
X127443019Y-103077923D01*
X127544503Y-103148457D01*
X127657755Y-103197936D01*
X127778461Y-103224474D01*
X127902022Y-103227063D01*
X128023733Y-103205602D01*
X128138958Y-103160909D01*
X128243307Y-103094687D01*
X128289309Y-103050880D01*
X129229530Y-103050880D01*
X130072846Y-103894196D01*
X130072292Y-103933909D01*
X130094602Y-104055467D01*
X130140098Y-104170377D01*
X130207047Y-104274261D01*
X130292899Y-104363163D01*
X130394383Y-104433697D01*
X130507635Y-104483176D01*
X130628341Y-104509714D01*
X130659483Y-104510367D01*
X129735288Y-105434562D01*
X129713978Y-105443172D01*
X129610564Y-105510845D01*
X129522263Y-105597315D01*
X129452440Y-105699290D01*
X129403753Y-105812885D01*
X129378057Y-105933772D01*
X129376332Y-106057349D01*
X129398642Y-106178907D01*
X129444138Y-106293817D01*
X129511087Y-106397701D01*
X129552160Y-106440233D01*
X129552160Y-106476800D01*
X129556265Y-106518664D01*
X129559928Y-106560535D01*
X129560595Y-106562832D01*
X129560829Y-106565215D01*
X129572988Y-106605487D01*
X129584714Y-106645847D01*
X129585815Y-106647971D01*
X129586507Y-106650263D01*
X129606247Y-106687390D01*
X129625597Y-106724720D01*
X129627090Y-106726591D01*
X129628214Y-106728704D01*
X129654774Y-106761269D01*
X129681022Y-106794150D01*
X129684308Y-106797482D01*
X129684363Y-106797549D01*
X129684425Y-106797600D01*
X129685485Y-106798675D01*
X133261805Y-110374995D01*
X133294280Y-110401670D01*
X133326507Y-110428712D01*
X133328606Y-110429866D01*
X133330454Y-110431384D01*
X133367508Y-110451252D01*
X133404358Y-110471510D01*
X133406639Y-110472234D01*
X133408749Y-110473365D01*
X133448988Y-110485668D01*
X133489039Y-110498373D01*
X133491415Y-110498640D01*
X133493706Y-110499340D01*
X133535535Y-110503588D01*
X133577324Y-110508276D01*
X133582005Y-110508308D01*
X133582090Y-110508317D01*
X133582169Y-110508310D01*
X133583680Y-110508320D01*
X135599850Y-110508320D01*
X135635446Y-110543916D01*
X135634892Y-110583629D01*
X135657202Y-110705187D01*
X135702698Y-110820097D01*
X135769647Y-110923981D01*
X135855499Y-111012883D01*
X135956983Y-111083417D01*
X136070235Y-111132896D01*
X136190941Y-111159434D01*
X136314502Y-111162023D01*
X136436213Y-111140562D01*
X136551438Y-111095869D01*
X136655787Y-111029647D01*
X136745286Y-110944418D01*
X136816527Y-110843428D01*
X136866795Y-110730524D01*
X136894176Y-110610007D01*
X136896147Y-110468846D01*
X136872142Y-110347611D01*
X136825046Y-110233348D01*
X136756653Y-110130408D01*
X136669568Y-110042713D01*
X136567109Y-109973603D01*
X136453177Y-109925711D01*
X136332113Y-109900860D01*
X136279523Y-109900493D01*
X136110275Y-109731245D01*
X136077800Y-109704570D01*
X136045573Y-109677528D01*
X136043474Y-109676374D01*
X136041626Y-109674856D01*
X136004572Y-109654988D01*
X135967722Y-109634730D01*
X135965441Y-109634006D01*
X135963331Y-109632875D01*
X135923092Y-109620572D01*
X135883041Y-109607867D01*
X135880665Y-109607600D01*
X135878374Y-109606900D01*
X135836545Y-109602652D01*
X135794756Y-109597964D01*
X135790075Y-109597932D01*
X135789990Y-109597923D01*
X135789911Y-109597930D01*
X135788400Y-109597920D01*
X133772230Y-109597920D01*
X130635640Y-106461330D01*
X131114098Y-106461330D01*
X131156433Y-106612741D01*
X131233450Y-106767226D01*
X131339126Y-106903718D01*
X131469400Y-107016971D01*
X131619265Y-107102632D01*
X131782962Y-107157410D01*
X131954200Y-107179200D01*
X132055000Y-107179200D01*
X132055000Y-106324000D01*
X132105000Y-106324000D01*
X132105000Y-107179200D01*
X132205800Y-107179200D01*
X132377038Y-107157410D01*
X132540735Y-107102632D01*
X132690600Y-107016971D01*
X132820874Y-106903718D01*
X132926550Y-106767226D01*
X133003567Y-106612741D01*
X133045902Y-106461330D01*
X132952845Y-106324000D01*
X132105000Y-106324000D01*
X132055000Y-106324000D01*
X131207155Y-106324000D01*
X131114098Y-106461330D01*
X130635640Y-106461330D01*
X130530456Y-106356146D01*
X130557967Y-106317148D01*
X130608235Y-106204244D01*
X130623587Y-106136670D01*
X131114098Y-106136670D01*
X131207155Y-106274000D01*
X132055000Y-106274000D01*
X132055000Y-105418800D01*
X132105000Y-105418800D01*
X132105000Y-106274000D01*
X132952845Y-106274000D01*
X133045902Y-106136670D01*
X133045231Y-106134269D01*
X133527177Y-106134269D01*
X133620245Y-106271460D01*
X134468000Y-106271460D01*
X134468000Y-105417150D01*
X134518000Y-105417150D01*
X134518000Y-106271460D01*
X135365755Y-106271460D01*
X135458823Y-106134269D01*
X135416544Y-105983060D01*
X135339609Y-105828729D01*
X135234044Y-105692372D01*
X135103906Y-105579230D01*
X134954195Y-105493651D01*
X134790665Y-105438923D01*
X134619600Y-105417150D01*
X134518000Y-105417150D01*
X134468000Y-105417150D01*
X134366400Y-105417150D01*
X134195335Y-105438923D01*
X134031805Y-105493651D01*
X133882094Y-105579230D01*
X133751956Y-105692372D01*
X133646391Y-105828729D01*
X133569456Y-105983060D01*
X133527177Y-106134269D01*
X133045231Y-106134269D01*
X133003567Y-105985259D01*
X132926550Y-105830774D01*
X132820874Y-105694282D01*
X132690600Y-105581029D01*
X132540735Y-105495368D01*
X132377038Y-105440590D01*
X132205800Y-105418800D01*
X132105000Y-105418800D01*
X132055000Y-105418800D01*
X131954200Y-105418800D01*
X131782962Y-105440590D01*
X131619265Y-105495368D01*
X131469400Y-105581029D01*
X131339126Y-105694282D01*
X131233450Y-105830774D01*
X131156433Y-105985259D01*
X131114098Y-106136670D01*
X130623587Y-106136670D01*
X130635616Y-106083727D01*
X130637587Y-105942566D01*
X130617290Y-105840060D01*
X131406026Y-105051324D01*
X131418081Y-105066318D01*
X131534606Y-105164093D01*
X131667903Y-105237374D01*
X131812895Y-105283368D01*
X131964059Y-105300324D01*
X131974941Y-105300400D01*
X132185059Y-105300400D01*
X132336445Y-105285556D01*
X132482065Y-105241591D01*
X132616372Y-105170179D01*
X132734251Y-105074039D01*
X132815191Y-104976200D01*
X133758963Y-104976200D01*
X133830918Y-105065695D01*
X133947310Y-105163359D01*
X134080454Y-105236556D01*
X134225281Y-105282498D01*
X134376272Y-105299434D01*
X134387142Y-105299510D01*
X134598858Y-105299510D01*
X134750071Y-105284683D01*
X134895525Y-105240768D01*
X135029679Y-105169438D01*
X135147423Y-105073408D01*
X135244272Y-104956337D01*
X135316538Y-104822685D01*
X135361467Y-104677541D01*
X135377349Y-104526435D01*
X135363578Y-104375122D01*
X135320680Y-104229365D01*
X135250287Y-104094717D01*
X135155082Y-103976305D01*
X135038690Y-103878641D01*
X134948200Y-103828893D01*
X134948200Y-103096330D01*
X135018086Y-103029778D01*
X135089327Y-102928788D01*
X135139595Y-102815884D01*
X135166976Y-102695367D01*
X135168947Y-102554206D01*
X135144942Y-102432971D01*
X135097846Y-102318708D01*
X135029453Y-102215768D01*
X134942368Y-102128073D01*
X134839909Y-102058963D01*
X134750803Y-102021507D01*
X134793310Y-101979000D01*
X135077200Y-101979000D01*
X135119064Y-101974895D01*
X135160935Y-101971232D01*
X135163232Y-101970565D01*
X135165615Y-101970331D01*
X135205887Y-101958172D01*
X135246247Y-101946446D01*
X135248371Y-101945345D01*
X135250663Y-101944653D01*
X135287790Y-101924913D01*
X135325120Y-101905563D01*
X135326991Y-101904070D01*
X135329104Y-101902946D01*
X135361669Y-101876386D01*
X135394550Y-101850138D01*
X135397882Y-101846852D01*
X135397949Y-101846797D01*
X135398000Y-101846735D01*
X135399075Y-101845675D01*
X137108407Y-100136343D01*
X137124552Y-100138154D01*
X137135422Y-100138230D01*
X137347138Y-100138230D01*
X137498351Y-100123403D01*
X137643805Y-100079488D01*
X137777959Y-100008158D01*
X137895703Y-99912128D01*
X137992552Y-99795057D01*
X138064818Y-99661405D01*
X138105284Y-99530680D01*
X138140800Y-99651355D01*
X138140800Y-99651355D01*
G37*
X138140800Y-99651355D02*
X138211193Y-99786003D01*
X138306398Y-99904415D01*
X138422790Y-100002079D01*
X138555934Y-100075276D01*
X138700761Y-100121218D01*
X138797760Y-100132098D01*
X138797760Y-101910438D01*
X138767863Y-101939715D01*
X138698040Y-102041690D01*
X138649353Y-102155285D01*
X138623657Y-102276172D01*
X138621932Y-102399749D01*
X138644242Y-102521307D01*
X138689738Y-102636217D01*
X138756687Y-102740101D01*
X138842539Y-102829003D01*
X138944023Y-102899537D01*
X139014046Y-102930129D01*
X138998404Y-102940365D01*
X138910103Y-103026835D01*
X138840280Y-103128810D01*
X138791593Y-103242405D01*
X138765897Y-103363292D01*
X138764172Y-103486869D01*
X138786482Y-103608427D01*
X138831978Y-103723337D01*
X138898927Y-103827221D01*
X138984779Y-103916123D01*
X139086263Y-103986657D01*
X139199515Y-104036136D01*
X139320221Y-104062674D01*
X139435951Y-104065099D01*
X139293010Y-104208040D01*
X137911840Y-104208040D01*
X137869980Y-104212144D01*
X137828105Y-104215808D01*
X137825808Y-104216475D01*
X137823425Y-104216709D01*
X137783153Y-104228868D01*
X137742793Y-104240594D01*
X137740669Y-104241695D01*
X137738377Y-104242387D01*
X137701211Y-104262148D01*
X137663920Y-104281478D01*
X137662053Y-104282968D01*
X137659936Y-104284094D01*
X137627343Y-104310676D01*
X137594490Y-104336902D01*
X137591158Y-104340188D01*
X137591091Y-104340243D01*
X137591040Y-104340305D01*
X137589965Y-104341365D01*
X135607346Y-106323984D01*
X135563367Y-106323677D01*
X135441968Y-106346835D01*
X135395661Y-106365544D01*
X135365755Y-106321460D01*
X134518000Y-106321460D01*
X134518000Y-107175770D01*
X134619600Y-107175770D01*
X134790665Y-107153997D01*
X134954195Y-107099269D01*
X135001633Y-107072152D01*
X135012042Y-107128867D01*
X135057538Y-107243777D01*
X135081810Y-107281440D01*
X134436387Y-107281440D01*
X134403888Y-107248713D01*
X134301429Y-107179603D01*
X134260135Y-107162245D01*
X134366400Y-107175770D01*
X134468000Y-107175770D01*
X134468000Y-106321460D01*
X133620245Y-106321460D01*
X133527177Y-106458651D01*
X133569456Y-106609860D01*
X133646391Y-106764191D01*
X133751956Y-106900548D01*
X133882094Y-107013690D01*
X134031805Y-107099269D01*
X134054233Y-107106775D01*
X133942847Y-107105997D01*
X133821448Y-107129155D01*
X133706858Y-107175452D01*
X133603444Y-107243125D01*
X133515143Y-107329595D01*
X133445320Y-107431570D01*
X133396633Y-107545165D01*
X133370937Y-107666052D01*
X133369212Y-107789629D01*
X133391522Y-107911187D01*
X133437018Y-108026097D01*
X133503967Y-108129981D01*
X133589819Y-108218883D01*
X133647812Y-108259190D01*
X133578044Y-108304845D01*
X133489743Y-108391315D01*
X133419920Y-108493290D01*
X133371233Y-108606885D01*
X133345537Y-108727772D01*
X133343812Y-108851349D01*
X133366122Y-108972907D01*
X133411618Y-109087817D01*
X133478567Y-109191701D01*
X133564419Y-109280603D01*
X133665903Y-109351137D01*
X133779155Y-109400616D01*
X133899861Y-109427154D01*
X134023422Y-109429743D01*
X134145133Y-109408282D01*
X134260358Y-109363589D01*
X134364707Y-109297367D01*
X134410709Y-109253560D01*
X135829040Y-109253560D01*
X135870904Y-109249455D01*
X135912775Y-109245792D01*
X135915072Y-109245125D01*
X135917455Y-109244891D01*
X135957727Y-109232732D01*
X135998087Y-109221006D01*
X136000211Y-109219905D01*
X136002503Y-109219213D01*
X136039630Y-109199473D01*
X136076960Y-109180123D01*
X136078831Y-109178630D01*
X136080944Y-109177506D01*
X136113509Y-109150946D01*
X136146390Y-109124698D01*
X136149722Y-109121412D01*
X136149789Y-109121357D01*
X136149840Y-109121295D01*
X136150915Y-109120235D01*
X137842720Y-107428430D01*
X137842720Y-108743038D01*
X137812823Y-108772315D01*
X137743000Y-108874290D01*
X137694313Y-108987885D01*
X137668617Y-109108772D01*
X137666892Y-109232349D01*
X137689202Y-109353907D01*
X137734698Y-109468817D01*
X137801647Y-109572701D01*
X137887499Y-109661603D01*
X137988983Y-109732137D01*
X138102235Y-109781616D01*
X138222941Y-109808154D01*
X138346502Y-109810743D01*
X138468213Y-109789282D01*
X138583438Y-109744589D01*
X138687787Y-109678367D01*
X138777286Y-109593138D01*
X138848527Y-109492148D01*
X138858720Y-109469254D01*
X138858720Y-111597440D01*
X138862825Y-111639304D01*
X138866488Y-111681175D01*
X138867155Y-111683472D01*
X138867389Y-111685855D01*
X138879548Y-111726127D01*
X138891274Y-111766487D01*
X138892375Y-111768611D01*
X138893067Y-111770903D01*
X138912807Y-111808030D01*
X138932157Y-111845360D01*
X138933650Y-111847231D01*
X138934774Y-111849344D01*
X138961334Y-111881909D01*
X138987582Y-111914790D01*
X138990868Y-111918122D01*
X138990923Y-111918189D01*
X138990985Y-111918240D01*
X138992045Y-111919315D01*
X140547204Y-113474474D01*
X135659261Y-113488400D01*
X127316300Y-113488400D01*
X127316300Y-102925608D01*
X127357167Y-102989021D01*
X127443019Y-103077923D01*
X127544503Y-103148457D01*
X127657755Y-103197936D01*
X127778461Y-103224474D01*
X127902022Y-103227063D01*
X128023733Y-103205602D01*
X128138958Y-103160909D01*
X128243307Y-103094687D01*
X128289309Y-103050880D01*
X129229530Y-103050880D01*
X130072846Y-103894196D01*
X130072292Y-103933909D01*
X130094602Y-104055467D01*
X130140098Y-104170377D01*
X130207047Y-104274261D01*
X130292899Y-104363163D01*
X130394383Y-104433697D01*
X130507635Y-104483176D01*
X130628341Y-104509714D01*
X130659483Y-104510367D01*
X129735288Y-105434562D01*
X129713978Y-105443172D01*
X129610564Y-105510845D01*
X129522263Y-105597315D01*
X129452440Y-105699290D01*
X129403753Y-105812885D01*
X129378057Y-105933772D01*
X129376332Y-106057349D01*
X129398642Y-106178907D01*
X129444138Y-106293817D01*
X129511087Y-106397701D01*
X129552160Y-106440233D01*
X129552160Y-106476800D01*
X129556265Y-106518664D01*
X129559928Y-106560535D01*
X129560595Y-106562832D01*
X129560829Y-106565215D01*
X129572988Y-106605487D01*
X129584714Y-106645847D01*
X129585815Y-106647971D01*
X129586507Y-106650263D01*
X129606247Y-106687390D01*
X129625597Y-106724720D01*
X129627090Y-106726591D01*
X129628214Y-106728704D01*
X129654774Y-106761269D01*
X129681022Y-106794150D01*
X129684308Y-106797482D01*
X129684363Y-106797549D01*
X129684425Y-106797600D01*
X129685485Y-106798675D01*
X133261805Y-110374995D01*
X133294280Y-110401670D01*
X133326507Y-110428712D01*
X133328606Y-110429866D01*
X133330454Y-110431384D01*
X133367508Y-110451252D01*
X133404358Y-110471510D01*
X133406639Y-110472234D01*
X133408749Y-110473365D01*
X133448988Y-110485668D01*
X133489039Y-110498373D01*
X133491415Y-110498640D01*
X133493706Y-110499340D01*
X133535535Y-110503588D01*
X133577324Y-110508276D01*
X133582005Y-110508308D01*
X133582090Y-110508317D01*
X133582169Y-110508310D01*
X133583680Y-110508320D01*
X135599850Y-110508320D01*
X135635446Y-110543916D01*
X135634892Y-110583629D01*
X135657202Y-110705187D01*
X135702698Y-110820097D01*
X135769647Y-110923981D01*
X135855499Y-111012883D01*
X135956983Y-111083417D01*
X136070235Y-111132896D01*
X136190941Y-111159434D01*
X136314502Y-111162023D01*
X136436213Y-111140562D01*
X136551438Y-111095869D01*
X136655787Y-111029647D01*
X136745286Y-110944418D01*
X136816527Y-110843428D01*
X136866795Y-110730524D01*
X136894176Y-110610007D01*
X136896147Y-110468846D01*
X136872142Y-110347611D01*
X136825046Y-110233348D01*
X136756653Y-110130408D01*
X136669568Y-110042713D01*
X136567109Y-109973603D01*
X136453177Y-109925711D01*
X136332113Y-109900860D01*
X136279523Y-109900493D01*
X136110275Y-109731245D01*
X136077800Y-109704570D01*
X136045573Y-109677528D01*
X136043474Y-109676374D01*
X136041626Y-109674856D01*
X136004572Y-109654988D01*
X135967722Y-109634730D01*
X135965441Y-109634006D01*
X135963331Y-109632875D01*
X135923092Y-109620572D01*
X135883041Y-109607867D01*
X135880665Y-109607600D01*
X135878374Y-109606900D01*
X135836545Y-109602652D01*
X135794756Y-109597964D01*
X135790075Y-109597932D01*
X135789990Y-109597923D01*
X135789911Y-109597930D01*
X135788400Y-109597920D01*
X133772230Y-109597920D01*
X130635640Y-106461330D01*
X131114098Y-106461330D01*
X131156433Y-106612741D01*
X131233450Y-106767226D01*
X131339126Y-106903718D01*
X131469400Y-107016971D01*
X131619265Y-107102632D01*
X131782962Y-107157410D01*
X131954200Y-107179200D01*
X132055000Y-107179200D01*
X132055000Y-106324000D01*
X132105000Y-106324000D01*
X132105000Y-107179200D01*
X132205800Y-107179200D01*
X132377038Y-107157410D01*
X132540735Y-107102632D01*
X132690600Y-107016971D01*
X132820874Y-106903718D01*
X132926550Y-106767226D01*
X133003567Y-106612741D01*
X133045902Y-106461330D01*
X132952845Y-106324000D01*
X132105000Y-106324000D01*
X132055000Y-106324000D01*
X131207155Y-106324000D01*
X131114098Y-106461330D01*
X130635640Y-106461330D01*
X130530456Y-106356146D01*
X130557967Y-106317148D01*
X130608235Y-106204244D01*
X130623587Y-106136670D01*
X131114098Y-106136670D01*
X131207155Y-106274000D01*
X132055000Y-106274000D01*
X132055000Y-105418800D01*
X132105000Y-105418800D01*
X132105000Y-106274000D01*
X132952845Y-106274000D01*
X133045902Y-106136670D01*
X133045231Y-106134269D01*
X133527177Y-106134269D01*
X133620245Y-106271460D01*
X134468000Y-106271460D01*
X134468000Y-105417150D01*
X134518000Y-105417150D01*
X134518000Y-106271460D01*
X135365755Y-106271460D01*
X135458823Y-106134269D01*
X135416544Y-105983060D01*
X135339609Y-105828729D01*
X135234044Y-105692372D01*
X135103906Y-105579230D01*
X134954195Y-105493651D01*
X134790665Y-105438923D01*
X134619600Y-105417150D01*
X134518000Y-105417150D01*
X134468000Y-105417150D01*
X134366400Y-105417150D01*
X134195335Y-105438923D01*
X134031805Y-105493651D01*
X133882094Y-105579230D01*
X133751956Y-105692372D01*
X133646391Y-105828729D01*
X133569456Y-105983060D01*
X133527177Y-106134269D01*
X133045231Y-106134269D01*
X133003567Y-105985259D01*
X132926550Y-105830774D01*
X132820874Y-105694282D01*
X132690600Y-105581029D01*
X132540735Y-105495368D01*
X132377038Y-105440590D01*
X132205800Y-105418800D01*
X132105000Y-105418800D01*
X132055000Y-105418800D01*
X131954200Y-105418800D01*
X131782962Y-105440590D01*
X131619265Y-105495368D01*
X131469400Y-105581029D01*
X131339126Y-105694282D01*
X131233450Y-105830774D01*
X131156433Y-105985259D01*
X131114098Y-106136670D01*
X130623587Y-106136670D01*
X130635616Y-106083727D01*
X130637587Y-105942566D01*
X130617290Y-105840060D01*
X131406026Y-105051324D01*
X131418081Y-105066318D01*
X131534606Y-105164093D01*
X131667903Y-105237374D01*
X131812895Y-105283368D01*
X131964059Y-105300324D01*
X131974941Y-105300400D01*
X132185059Y-105300400D01*
X132336445Y-105285556D01*
X132482065Y-105241591D01*
X132616372Y-105170179D01*
X132734251Y-105074039D01*
X132815191Y-104976200D01*
X133758963Y-104976200D01*
X133830918Y-105065695D01*
X133947310Y-105163359D01*
X134080454Y-105236556D01*
X134225281Y-105282498D01*
X134376272Y-105299434D01*
X134387142Y-105299510D01*
X134598858Y-105299510D01*
X134750071Y-105284683D01*
X134895525Y-105240768D01*
X135029679Y-105169438D01*
X135147423Y-105073408D01*
X135244272Y-104956337D01*
X135316538Y-104822685D01*
X135361467Y-104677541D01*
X135377349Y-104526435D01*
X135363578Y-104375122D01*
X135320680Y-104229365D01*
X135250287Y-104094717D01*
X135155082Y-103976305D01*
X135038690Y-103878641D01*
X134948200Y-103828893D01*
X134948200Y-103096330D01*
X135018086Y-103029778D01*
X135089327Y-102928788D01*
X135139595Y-102815884D01*
X135166976Y-102695367D01*
X135168947Y-102554206D01*
X135144942Y-102432971D01*
X135097846Y-102318708D01*
X135029453Y-102215768D01*
X134942368Y-102128073D01*
X134839909Y-102058963D01*
X134750803Y-102021507D01*
X134793310Y-101979000D01*
X135077200Y-101979000D01*
X135119064Y-101974895D01*
X135160935Y-101971232D01*
X135163232Y-101970565D01*
X135165615Y-101970331D01*
X135205887Y-101958172D01*
X135246247Y-101946446D01*
X135248371Y-101945345D01*
X135250663Y-101944653D01*
X135287790Y-101924913D01*
X135325120Y-101905563D01*
X135326991Y-101904070D01*
X135329104Y-101902946D01*
X135361669Y-101876386D01*
X135394550Y-101850138D01*
X135397882Y-101846852D01*
X135397949Y-101846797D01*
X135398000Y-101846735D01*
X135399075Y-101845675D01*
X137108407Y-100136343D01*
X137124552Y-100138154D01*
X137135422Y-100138230D01*
X137347138Y-100138230D01*
X137498351Y-100123403D01*
X137643805Y-100079488D01*
X137777959Y-100008158D01*
X137895703Y-99912128D01*
X137992552Y-99795057D01*
X138064818Y-99661405D01*
X138105284Y-99530680D01*
X138140800Y-99651355D01*
G36*
X169685900Y-113391458D02*
X150198532Y-113446978D01*
X150974355Y-112671155D01*
X151001030Y-112638680D01*
X151028072Y-112606453D01*
X151029226Y-112604354D01*
X151030744Y-112602506D01*
X151050612Y-112565452D01*
X151070870Y-112528602D01*
X151071594Y-112526321D01*
X151072725Y-112524211D01*
X151085024Y-112483985D01*
X151097733Y-112443921D01*
X151098000Y-112441544D01*
X151098700Y-112439253D01*
X151102947Y-112397435D01*
X151107636Y-112355636D01*
X151107668Y-112350954D01*
X151107677Y-112350869D01*
X151107670Y-112350790D01*
X151107680Y-112349280D01*
X151107680Y-111846950D01*
X151501430Y-111453200D01*
X151574794Y-111453200D01*
X151602126Y-111487194D01*
X151553270Y-111519388D01*
X151492707Y-111590446D01*
X151454339Y-111675564D01*
X151441203Y-111768000D01*
X151441203Y-112768000D01*
X151445396Y-112820583D01*
X151473016Y-112909769D01*
X151524388Y-112987730D01*
X151595446Y-113048293D01*
X151680564Y-113086661D01*
X151773000Y-113099797D01*
X152773000Y-113099797D01*
X152825583Y-113095604D01*
X152914769Y-113067984D01*
X152992730Y-113016612D01*
X153053293Y-112945554D01*
X153091661Y-112860436D01*
X153104797Y-112768000D01*
X153104797Y-111768000D01*
X153100604Y-111715417D01*
X153072984Y-111626231D01*
X153021612Y-111548270D01*
X152950554Y-111487707D01*
X152945939Y-111485627D01*
X152965284Y-111462242D01*
X153042348Y-111319715D01*
X153071470Y-111225636D01*
X154928424Y-111225636D01*
X154962240Y-111409883D01*
X155031199Y-111584053D01*
X155132674Y-111741511D01*
X155262800Y-111876261D01*
X155416622Y-111983170D01*
X155588279Y-112058165D01*
X155771233Y-112098390D01*
X155958517Y-112102313D01*
X156142995Y-112069785D01*
X156317642Y-112002044D01*
X156475805Y-111901670D01*
X156611461Y-111772487D01*
X156719440Y-111619416D01*
X156727853Y-111600520D01*
X157693360Y-111600520D01*
X157735224Y-111596415D01*
X157777095Y-111592752D01*
X157779392Y-111592085D01*
X157781775Y-111591851D01*
X157822047Y-111579692D01*
X157862407Y-111567966D01*
X157864531Y-111566865D01*
X157866823Y-111566173D01*
X157903950Y-111546433D01*
X157941280Y-111527083D01*
X157943151Y-111525590D01*
X157945264Y-111524466D01*
X157977829Y-111497906D01*
X158010710Y-111471658D01*
X158014042Y-111468372D01*
X158014109Y-111468317D01*
X158014160Y-111468255D01*
X158015235Y-111467195D01*
X158256794Y-111225636D01*
X162548424Y-111225636D01*
X162582240Y-111409883D01*
X162651199Y-111584053D01*
X162752674Y-111741511D01*
X162882800Y-111876261D01*
X163036622Y-111983170D01*
X163208279Y-112058165D01*
X163391233Y-112098390D01*
X163578517Y-112102313D01*
X163762995Y-112069785D01*
X163937642Y-112002044D01*
X164095805Y-111901670D01*
X164231461Y-111772487D01*
X164339440Y-111619416D01*
X164415632Y-111448287D01*
X164457134Y-111265618D01*
X164460121Y-111051658D01*
X164423736Y-110867901D01*
X164352353Y-110694711D01*
X164248689Y-110538684D01*
X164116694Y-110405764D01*
X163961395Y-110301014D01*
X163788707Y-110228423D01*
X163605209Y-110190756D01*
X163417889Y-110189448D01*
X163233882Y-110224549D01*
X163060198Y-110294722D01*
X162903452Y-110397294D01*
X162769614Y-110528358D01*
X162663782Y-110682922D01*
X162589987Y-110855099D01*
X162551040Y-111038330D01*
X162548424Y-111225636D01*
X158256794Y-111225636D01*
X160185537Y-109296893D01*
X162848662Y-109296893D01*
X162901574Y-109478232D01*
X163083463Y-109579159D01*
X163281547Y-109642660D01*
X163488213Y-109666298D01*
X163695520Y-109649164D01*
X163895501Y-109591914D01*
X164080470Y-109496750D01*
X164108186Y-109478232D01*
X164161098Y-109296893D01*
X163504880Y-108640675D01*
X162848662Y-109296893D01*
X160185537Y-109296893D01*
X160893777Y-108588653D01*
X162443902Y-108588653D01*
X162461036Y-108795960D01*
X162518286Y-108995941D01*
X162613450Y-109180910D01*
X162631968Y-109208626D01*
X162813307Y-109261538D01*
X163469525Y-108605320D01*
X163540235Y-108605320D01*
X164196453Y-109261538D01*
X164377792Y-109208626D01*
X164466472Y-109048807D01*
X166267163Y-109048807D01*
X166277035Y-109098437D01*
X166354663Y-109337257D01*
X166477391Y-109556344D01*
X166640503Y-109747278D01*
X166837730Y-109902722D01*
X167061493Y-110016702D01*
X167303193Y-110084838D01*
X167503240Y-109996767D01*
X167503240Y-108848760D01*
X167553240Y-108848760D01*
X167553240Y-109996767D01*
X167753287Y-110084838D01*
X167994987Y-110016702D01*
X168218750Y-109902722D01*
X168415977Y-109747278D01*
X168579089Y-109556344D01*
X168701817Y-109337257D01*
X168779445Y-109098437D01*
X168789317Y-109048807D01*
X168701224Y-108848760D01*
X167553240Y-108848760D01*
X167503240Y-108848760D01*
X166355256Y-108848760D01*
X166267163Y-109048807D01*
X164466472Y-109048807D01*
X164478719Y-109026737D01*
X164542220Y-108828653D01*
X164565858Y-108621987D01*
X164563935Y-108598713D01*
X166267163Y-108598713D01*
X166355256Y-108798760D01*
X167503240Y-108798760D01*
X167503240Y-107650753D01*
X167553240Y-107650753D01*
X167553240Y-108798760D01*
X168701224Y-108798760D01*
X168789317Y-108598713D01*
X168779445Y-108549083D01*
X168701817Y-108310263D01*
X168579089Y-108091176D01*
X168415977Y-107900242D01*
X168218750Y-107744798D01*
X167994987Y-107630818D01*
X167753287Y-107562682D01*
X167553240Y-107650753D01*
X167503240Y-107650753D01*
X167303193Y-107562682D01*
X167061493Y-107630818D01*
X166837730Y-107744798D01*
X166640503Y-107900242D01*
X166477391Y-108091176D01*
X166354663Y-108310263D01*
X166277035Y-108549083D01*
X166267163Y-108598713D01*
X164563935Y-108598713D01*
X164548724Y-108414680D01*
X164491474Y-108214699D01*
X164396310Y-108029730D01*
X164377792Y-108002014D01*
X164196453Y-107949102D01*
X163540235Y-108605320D01*
X163469525Y-108605320D01*
X162813307Y-107949102D01*
X162631968Y-108002014D01*
X162531041Y-108183903D01*
X162467540Y-108381987D01*
X162443902Y-108588653D01*
X160893777Y-108588653D01*
X161568683Y-107913747D01*
X162848662Y-107913747D01*
X163504880Y-108569965D01*
X164161098Y-107913747D01*
X164108186Y-107732408D01*
X163926297Y-107631481D01*
X163728213Y-107567980D01*
X163521547Y-107544342D01*
X163314240Y-107561476D01*
X163114259Y-107618726D01*
X162929290Y-107713890D01*
X162901574Y-107732408D01*
X162848662Y-107913747D01*
X161568683Y-107913747D01*
X162743470Y-106738960D01*
X166346443Y-106738960D01*
X166346443Y-107133760D01*
X166350636Y-107186343D01*
X166378256Y-107275529D01*
X166429628Y-107353490D01*
X166500686Y-107414053D01*
X166585804Y-107452421D01*
X166678240Y-107465557D01*
X168378240Y-107465557D01*
X168430823Y-107461364D01*
X168520009Y-107433744D01*
X168597970Y-107382372D01*
X168658533Y-107311314D01*
X168696901Y-107226196D01*
X168710037Y-107133760D01*
X168710037Y-105433760D01*
X168705844Y-105381177D01*
X168678224Y-105291991D01*
X168626852Y-105214030D01*
X168555794Y-105153467D01*
X168470676Y-105115099D01*
X168378240Y-105101963D01*
X166678240Y-105101963D01*
X166625657Y-105106156D01*
X166536471Y-105133776D01*
X166458510Y-105185148D01*
X166397947Y-105256206D01*
X166359579Y-105341324D01*
X166346443Y-105433760D01*
X166346443Y-105828560D01*
X162554920Y-105828560D01*
X162513056Y-105832665D01*
X162471185Y-105836328D01*
X162468888Y-105836995D01*
X162466505Y-105837229D01*
X162426233Y-105849388D01*
X162385873Y-105861114D01*
X162383749Y-105862215D01*
X162381457Y-105862907D01*
X162344330Y-105882647D01*
X162307000Y-105901997D01*
X162305129Y-105903490D01*
X162303016Y-105904614D01*
X162270451Y-105931174D01*
X162237570Y-105957422D01*
X162234238Y-105960708D01*
X162234171Y-105960763D01*
X162234120Y-105960825D01*
X162233045Y-105961885D01*
X157504810Y-110690120D01*
X156729303Y-110690120D01*
X156628689Y-110538684D01*
X156496694Y-110405764D01*
X156341395Y-110301014D01*
X156168707Y-110228423D01*
X155985209Y-110190756D01*
X155797889Y-110189448D01*
X155613882Y-110224549D01*
X155440198Y-110294722D01*
X155283452Y-110397294D01*
X155149614Y-110528358D01*
X155043782Y-110682922D01*
X154969987Y-110855099D01*
X154931040Y-111038330D01*
X154928424Y-111225636D01*
X153071470Y-111225636D01*
X153090260Y-111164935D01*
X153107197Y-111003796D01*
X153092512Y-110842436D01*
X153046765Y-110687002D01*
X152971699Y-110543413D01*
X152870172Y-110417139D01*
X152805679Y-110363023D01*
X152862004Y-110317086D01*
X152965284Y-110192242D01*
X152970173Y-110183200D01*
X154762200Y-110183200D01*
X154804064Y-110179095D01*
X154845935Y-110175432D01*
X154848232Y-110174765D01*
X154850615Y-110174531D01*
X154890887Y-110162372D01*
X154931247Y-110150646D01*
X154933371Y-110149545D01*
X154935663Y-110148853D01*
X154972790Y-110129113D01*
X155010120Y-110109763D01*
X155011991Y-110108270D01*
X155014104Y-110107146D01*
X155046669Y-110080586D01*
X155079550Y-110054338D01*
X155082882Y-110051052D01*
X155082949Y-110050997D01*
X155083000Y-110050935D01*
X155084075Y-110049875D01*
X155610827Y-109523123D01*
X155771233Y-109558390D01*
X155958517Y-109562313D01*
X156142995Y-109529785D01*
X156317642Y-109462044D01*
X156475805Y-109361670D01*
X156611461Y-109232487D01*
X156719440Y-109079416D01*
X156795632Y-108908287D01*
X156837134Y-108725618D01*
X156840121Y-108511658D01*
X156803736Y-108327901D01*
X156732353Y-108154711D01*
X156628689Y-107998684D01*
X156496694Y-107865764D01*
X156341395Y-107761014D01*
X156168707Y-107688423D01*
X155985209Y-107650756D01*
X155797889Y-107649448D01*
X155613882Y-107684549D01*
X155440198Y-107754722D01*
X155283452Y-107857294D01*
X155149614Y-107988358D01*
X155043782Y-108142922D01*
X154969987Y-108315099D01*
X154931040Y-108498330D01*
X154928424Y-108685636D01*
X154962240Y-108869883D01*
X154966304Y-108880146D01*
X154573650Y-109272800D01*
X152971206Y-109272800D01*
X152870172Y-109147139D01*
X152746053Y-109042991D01*
X152604068Y-108964934D01*
X152449625Y-108915942D01*
X152288608Y-108897881D01*
X152277017Y-108897800D01*
X152268983Y-108897800D01*
X152107730Y-108913611D01*
X151952618Y-108960442D01*
X151809557Y-109036509D01*
X151683996Y-109138914D01*
X151580716Y-109263758D01*
X151503652Y-109406285D01*
X151455740Y-109561065D01*
X151438803Y-109722204D01*
X151453488Y-109883564D01*
X151499235Y-110038998D01*
X151574301Y-110182587D01*
X151675828Y-110308861D01*
X151740321Y-110362977D01*
X151683996Y-110408914D01*
X151580716Y-110533758D01*
X151575827Y-110542800D01*
X151312880Y-110542800D01*
X151271066Y-110546900D01*
X151229145Y-110550567D01*
X151226843Y-110551236D01*
X151224465Y-110551469D01*
X151184221Y-110563619D01*
X151143834Y-110575354D01*
X151141711Y-110576454D01*
X151139417Y-110577147D01*
X151102272Y-110596897D01*
X151064960Y-110616237D01*
X151063089Y-110617730D01*
X151060976Y-110618854D01*
X151028417Y-110645409D01*
X150995531Y-110671661D01*
X150992198Y-110674948D01*
X150992131Y-110675003D01*
X150992080Y-110675065D01*
X150991005Y-110676125D01*
X150330605Y-111336525D01*
X150303930Y-111369000D01*
X150276888Y-111401227D01*
X150275734Y-111403326D01*
X150274216Y-111405174D01*
X150265600Y-111421243D01*
X150265600Y-111277000D01*
X148996000Y-111277000D01*
X148996000Y-112590987D01*
X149198175Y-112678912D01*
X149443324Y-112610022D01*
X149669454Y-112494710D01*
X149868742Y-112337498D01*
X150033531Y-112144428D01*
X150157487Y-111922919D01*
X150197280Y-111800313D01*
X150197280Y-112160730D01*
X149285370Y-113072640D01*
X145188070Y-113072640D01*
X145826171Y-112434539D01*
X145968384Y-112511434D01*
X146190953Y-112580331D01*
X146422666Y-112604685D01*
X146654696Y-112583569D01*
X146878205Y-112517786D01*
X147084681Y-112409843D01*
X147266258Y-112263851D01*
X147416020Y-112085372D01*
X147528264Y-111881202D01*
X147598713Y-111659119D01*
X147624684Y-111427582D01*
X147624800Y-111410914D01*
X147624800Y-111277000D01*
X147676400Y-111277000D01*
X147676400Y-111429400D01*
X147706153Y-111681484D01*
X147784513Y-111922919D01*
X147908469Y-112144428D01*
X148073258Y-112337498D01*
X148272546Y-112494710D01*
X148498676Y-112610022D01*
X148743825Y-112678912D01*
X148946000Y-112590987D01*
X148946000Y-111277000D01*
X147676400Y-111277000D01*
X147624800Y-111277000D01*
X147624800Y-111093086D01*
X147622988Y-111074600D01*
X147676400Y-111074600D01*
X147676400Y-111227000D01*
X148946000Y-111227000D01*
X148946000Y-109913013D01*
X148996000Y-109913013D01*
X148996000Y-111227000D01*
X150265600Y-111227000D01*
X150265600Y-111074600D01*
X150235847Y-110822516D01*
X150157487Y-110581081D01*
X150033531Y-110359572D01*
X149868742Y-110166502D01*
X149669454Y-110009290D01*
X149443324Y-109893978D01*
X149198175Y-109825088D01*
X148996000Y-109913013D01*
X148946000Y-109913013D01*
X148743825Y-109825088D01*
X148498676Y-109893978D01*
X148272546Y-110009290D01*
X148073258Y-110166502D01*
X147908469Y-110359572D01*
X147784513Y-110581081D01*
X147706153Y-110822516D01*
X147676400Y-111074600D01*
X147622988Y-111074600D01*
X147602064Y-110861209D01*
X147534723Y-110638164D01*
X147425341Y-110432447D01*
X147278086Y-110251894D01*
X147098564Y-110103381D01*
X146893616Y-109992566D01*
X146671047Y-109923669D01*
X146439334Y-109899315D01*
X146207304Y-109920431D01*
X145983795Y-109986214D01*
X145777319Y-110094157D01*
X145595742Y-110240149D01*
X145445980Y-110418628D01*
X145333736Y-110622798D01*
X145263287Y-110844881D01*
X145237316Y-111076418D01*
X145237200Y-111093086D01*
X145237200Y-111410914D01*
X145259936Y-111642791D01*
X145276281Y-111696929D01*
X145086397Y-111886813D01*
X145086397Y-110236000D01*
X145082204Y-110183417D01*
X145054584Y-110094231D01*
X145003212Y-110016270D01*
X144932154Y-109955707D01*
X144847036Y-109917339D01*
X144754600Y-109904203D01*
X144346200Y-109904203D01*
X144346200Y-109753400D01*
X144342095Y-109711536D01*
X144338432Y-109669665D01*
X144337765Y-109667368D01*
X144337531Y-109664985D01*
X144325372Y-109624713D01*
X144313646Y-109584353D01*
X144312545Y-109582229D01*
X144311853Y-109579937D01*
X144292113Y-109542810D01*
X144272763Y-109505480D01*
X144271270Y-109503609D01*
X144270146Y-109501496D01*
X144243566Y-109468906D01*
X144217338Y-109436051D01*
X144214053Y-109432719D01*
X144213997Y-109432651D01*
X144213934Y-109432599D01*
X144212875Y-109431525D01*
X143133722Y-108352372D01*
X143134387Y-108304766D01*
X143110382Y-108183531D01*
X143075751Y-108099509D01*
X143275212Y-108099509D01*
X143297522Y-108221067D01*
X143343018Y-108335977D01*
X143409967Y-108439861D01*
X143495819Y-108528763D01*
X143597303Y-108599297D01*
X143710555Y-108648776D01*
X143831261Y-108675314D01*
X143892569Y-108676599D01*
X144031405Y-108815435D01*
X144063880Y-108842110D01*
X144096107Y-108869152D01*
X144098206Y-108870306D01*
X144100054Y-108871824D01*
X144137108Y-108891692D01*
X144173958Y-108911950D01*
X144176239Y-108912674D01*
X144178349Y-108913805D01*
X144218588Y-108926108D01*
X144258639Y-108938813D01*
X144261015Y-108939080D01*
X144263306Y-108939780D01*
X144305135Y-108944028D01*
X144346924Y-108948716D01*
X144351605Y-108948748D01*
X144351690Y-108948757D01*
X144351769Y-108948750D01*
X144353280Y-108948760D01*
X146212560Y-108948760D01*
X146254424Y-108944655D01*
X146296295Y-108940992D01*
X146298592Y-108940325D01*
X146300975Y-108940091D01*
X146341247Y-108927932D01*
X146381607Y-108916206D01*
X146383731Y-108915105D01*
X146386023Y-108914413D01*
X146423150Y-108894673D01*
X146460480Y-108875323D01*
X146462351Y-108873830D01*
X146464464Y-108872706D01*
X146497029Y-108846146D01*
X146529910Y-108819898D01*
X146533242Y-108816612D01*
X146533309Y-108816557D01*
X146533360Y-108816495D01*
X146534435Y-108815435D01*
X147514875Y-107834995D01*
X147541550Y-107802520D01*
X147568592Y-107770293D01*
X147569746Y-107768194D01*
X147571264Y-107766346D01*
X147591132Y-107729292D01*
X147608556Y-107697597D01*
X148082000Y-107697597D01*
X148134583Y-107693404D01*
X148223769Y-107665784D01*
X148301730Y-107614412D01*
X148362293Y-107543354D01*
X148400661Y-107458236D01*
X148413797Y-107365800D01*
X148413797Y-106248200D01*
X148409604Y-106195617D01*
X148381984Y-106106431D01*
X148330612Y-106028470D01*
X148259554Y-105967907D01*
X148174436Y-105929539D01*
X148082000Y-105916403D01*
X146304000Y-105916403D01*
X146251417Y-105920596D01*
X146162231Y-105948216D01*
X146084270Y-105999588D01*
X146023707Y-106070646D01*
X145985339Y-106155764D01*
X145972203Y-106248200D01*
X145972203Y-107365800D01*
X145976396Y-107418383D01*
X146004016Y-107507569D01*
X146055388Y-107585530D01*
X146126446Y-107646093D01*
X146211564Y-107684461D01*
X146304000Y-107697597D01*
X146364773Y-107697597D01*
X146024010Y-108038360D01*
X144541830Y-108038360D01*
X144535802Y-108032332D01*
X144536467Y-107984726D01*
X144512462Y-107863491D01*
X144465366Y-107749228D01*
X144396973Y-107646288D01*
X144309888Y-107558593D01*
X144207429Y-107489483D01*
X144093497Y-107441591D01*
X143972433Y-107416740D01*
X143848847Y-107415877D01*
X143727448Y-107439035D01*
X143612858Y-107485332D01*
X143509444Y-107553005D01*
X143421143Y-107639475D01*
X143351320Y-107741450D01*
X143302633Y-107855045D01*
X143276937Y-107975932D01*
X143275212Y-108099509D01*
X143075751Y-108099509D01*
X143063286Y-108069268D01*
X142994893Y-107966328D01*
X142907808Y-107878633D01*
X142805349Y-107809523D01*
X142691417Y-107761631D01*
X142570353Y-107736780D01*
X142446767Y-107735917D01*
X142325368Y-107759075D01*
X142210778Y-107805372D01*
X142107364Y-107873045D01*
X142105920Y-107874459D01*
X142105920Y-107259031D01*
X142130086Y-107236018D01*
X142201327Y-107135028D01*
X142251595Y-107022124D01*
X142278976Y-106901607D01*
X142280947Y-106760446D01*
X142256942Y-106639211D01*
X142209846Y-106524948D01*
X142141453Y-106422008D01*
X142054368Y-106334313D01*
X141951909Y-106265203D01*
X141837977Y-106217311D01*
X141716913Y-106192460D01*
X141593327Y-106191597D01*
X141531573Y-106203377D01*
X142997510Y-104737440D01*
X143845280Y-104737440D01*
X143887144Y-104733335D01*
X143929015Y-104729672D01*
X143931312Y-104729005D01*
X143933695Y-104728771D01*
X143973967Y-104716612D01*
X144014327Y-104704886D01*
X144016451Y-104703785D01*
X144018743Y-104703093D01*
X144055870Y-104683353D01*
X144093200Y-104664003D01*
X144095071Y-104662510D01*
X144097184Y-104661386D01*
X144129749Y-104634826D01*
X144162630Y-104608578D01*
X144165962Y-104605292D01*
X144166029Y-104605237D01*
X144166080Y-104605175D01*
X144167155Y-104604115D01*
X144625520Y-104145750D01*
X145873000Y-104145750D01*
X145873000Y-104614250D01*
X145889563Y-104697518D01*
X145922053Y-104775955D01*
X145969221Y-104846547D01*
X146029254Y-104906580D01*
X146099845Y-104953747D01*
X146178282Y-104986237D01*
X146261550Y-105002800D01*
X147060250Y-105002800D01*
X147168000Y-104895050D01*
X147168000Y-104038000D01*
X147218000Y-104038000D01*
X147218000Y-104895050D01*
X147325750Y-105002800D01*
X148124450Y-105002800D01*
X148207718Y-104986237D01*
X148286155Y-104953747D01*
X148356746Y-104906580D01*
X148416779Y-104846547D01*
X148463947Y-104775955D01*
X148496437Y-104697518D01*
X148513000Y-104614250D01*
X148513000Y-104145750D01*
X148405250Y-104038000D01*
X147218000Y-104038000D01*
X147168000Y-104038000D01*
X145980750Y-104038000D01*
X145873000Y-104145750D01*
X144625520Y-104145750D01*
X145359520Y-103411750D01*
X145873000Y-103411750D01*
X145873000Y-103880250D01*
X145980750Y-103988000D01*
X147168000Y-103988000D01*
X147168000Y-103130950D01*
X147218000Y-103130950D01*
X147218000Y-103988000D01*
X148405250Y-103988000D01*
X148513000Y-103880250D01*
X148513000Y-103411750D01*
X148496437Y-103328482D01*
X148463947Y-103250045D01*
X148418085Y-103181407D01*
X166267163Y-103181407D01*
X166277035Y-103231037D01*
X166354663Y-103469857D01*
X166477391Y-103688944D01*
X166640503Y-103879878D01*
X166837730Y-104035322D01*
X167061493Y-104149302D01*
X167303193Y-104217438D01*
X167503240Y-104129367D01*
X167503240Y-102981360D01*
X167553240Y-102981360D01*
X167553240Y-104129367D01*
X167753287Y-104217438D01*
X167994987Y-104149302D01*
X168218750Y-104035322D01*
X168415977Y-103879878D01*
X168579089Y-103688944D01*
X168701817Y-103469857D01*
X168779445Y-103231037D01*
X168789317Y-103181407D01*
X168701224Y-102981360D01*
X167553240Y-102981360D01*
X167503240Y-102981360D01*
X166355256Y-102981360D01*
X166267163Y-103181407D01*
X148418085Y-103181407D01*
X148416779Y-103179453D01*
X148356746Y-103119420D01*
X148286155Y-103072253D01*
X148207718Y-103039763D01*
X148124450Y-103023200D01*
X147325750Y-103023200D01*
X147218000Y-103130950D01*
X147168000Y-103130950D01*
X147060250Y-103023200D01*
X146261550Y-103023200D01*
X146178282Y-103039763D01*
X146099845Y-103072253D01*
X146029254Y-103119420D01*
X145969221Y-103179453D01*
X145922053Y-103250045D01*
X145889563Y-103328482D01*
X145873000Y-103411750D01*
X145359520Y-103411750D01*
X146039957Y-102731313D01*
X166267163Y-102731313D01*
X166355256Y-102931360D01*
X167503240Y-102931360D01*
X167503240Y-101783353D01*
X167553240Y-101783353D01*
X167553240Y-102931360D01*
X168701224Y-102931360D01*
X168789317Y-102731313D01*
X168779445Y-102681683D01*
X168701817Y-102442863D01*
X168579089Y-102223776D01*
X168415977Y-102032842D01*
X168218750Y-101877398D01*
X167994987Y-101763418D01*
X167753287Y-101695282D01*
X167553240Y-101783353D01*
X167503240Y-101783353D01*
X167303193Y-101695282D01*
X167061493Y-101763418D01*
X166837730Y-101877398D01*
X166640503Y-102032842D01*
X166477391Y-102223776D01*
X166354663Y-102442863D01*
X166277035Y-102681683D01*
X166267163Y-102731313D01*
X146039957Y-102731313D01*
X146065830Y-102705440D01*
X147462240Y-102705440D01*
X147504104Y-102701335D01*
X147545975Y-102697672D01*
X147548272Y-102697005D01*
X147550655Y-102696771D01*
X147590927Y-102684612D01*
X147631287Y-102672886D01*
X147633411Y-102671785D01*
X147635703Y-102671093D01*
X147672830Y-102651353D01*
X147710160Y-102632003D01*
X147712031Y-102630510D01*
X147714144Y-102629386D01*
X147746709Y-102602826D01*
X147779590Y-102576578D01*
X147782922Y-102573292D01*
X147782989Y-102573237D01*
X147783040Y-102573175D01*
X147784115Y-102572115D01*
X148835377Y-101520853D01*
X149012227Y-101559736D01*
X149228920Y-101564275D01*
X149442368Y-101526638D01*
X149644441Y-101448259D01*
X149827442Y-101332124D01*
X149984399Y-101182655D01*
X150109336Y-101005546D01*
X150197492Y-100807543D01*
X150245511Y-100596189D01*
X150248968Y-100348630D01*
X150206869Y-100136016D01*
X150124276Y-99935629D01*
X150004333Y-99755101D01*
X149851610Y-99601308D01*
X149671924Y-99480108D01*
X149472118Y-99396118D01*
X149259804Y-99352536D01*
X149043068Y-99351023D01*
X148830166Y-99391636D01*
X148629208Y-99472828D01*
X148447846Y-99591508D01*
X148292991Y-99743154D01*
X148170539Y-99921989D01*
X148085156Y-100121204D01*
X148040093Y-100333208D01*
X148037067Y-100549928D01*
X148076193Y-100763109D01*
X148141266Y-100927464D01*
X147273690Y-101795040D01*
X145877280Y-101795040D01*
X145835416Y-101799145D01*
X145793545Y-101802808D01*
X145791248Y-101803475D01*
X145788865Y-101803709D01*
X145748593Y-101815868D01*
X145708233Y-101827594D01*
X145706109Y-101828695D01*
X145703817Y-101829387D01*
X145666690Y-101849127D01*
X145629360Y-101868477D01*
X145627489Y-101869970D01*
X145625376Y-101871094D01*
X145592786Y-101897674D01*
X145559931Y-101923902D01*
X145556599Y-101927187D01*
X145556531Y-101927243D01*
X145556479Y-101927306D01*
X145555405Y-101928365D01*
X143656730Y-103827040D01*
X143604293Y-103827040D01*
X143616669Y-103816946D01*
X143649550Y-103790698D01*
X143652882Y-103787412D01*
X143652949Y-103787357D01*
X143653000Y-103787295D01*
X143654075Y-103786235D01*
X146033586Y-101406724D01*
X146061928Y-101426422D01*
X146260542Y-101513194D01*
X146472227Y-101559736D01*
X146688920Y-101564275D01*
X146902368Y-101526638D01*
X147104441Y-101448259D01*
X147287442Y-101332124D01*
X147444399Y-101182655D01*
X147569336Y-101005546D01*
X147657492Y-100807543D01*
X147705511Y-100596189D01*
X147708968Y-100348630D01*
X147666869Y-100136016D01*
X147584276Y-99935629D01*
X147464333Y-99755101D01*
X147311610Y-99601308D01*
X147131924Y-99480108D01*
X146932118Y-99396118D01*
X146719804Y-99352536D01*
X146503068Y-99351023D01*
X146290166Y-99391636D01*
X146089208Y-99472828D01*
X145907846Y-99591508D01*
X145752991Y-99743154D01*
X145630539Y-99921989D01*
X145545156Y-100121204D01*
X145500093Y-100333208D01*
X145497067Y-100549928D01*
X145513476Y-100639334D01*
X143143650Y-103009160D01*
X142775070Y-103009160D01*
X144235162Y-101549068D01*
X144362368Y-101526638D01*
X144564441Y-101448259D01*
X144747442Y-101332124D01*
X144904399Y-101182655D01*
X145029336Y-101005546D01*
X145117492Y-100807543D01*
X145165511Y-100596189D01*
X145168968Y-100348630D01*
X145126869Y-100136016D01*
X145044276Y-99935629D01*
X144924333Y-99755101D01*
X144807173Y-99637120D01*
X145267680Y-99637120D01*
X145309544Y-99633015D01*
X145351415Y-99629352D01*
X145353712Y-99628685D01*
X145356095Y-99628451D01*
X145396367Y-99616292D01*
X145436727Y-99604566D01*
X145438851Y-99603465D01*
X145441143Y-99602773D01*
X145478270Y-99583033D01*
X145515600Y-99563683D01*
X145517471Y-99562190D01*
X145519584Y-99561066D01*
X145552149Y-99534506D01*
X145585030Y-99508258D01*
X145588362Y-99504972D01*
X145588429Y-99504917D01*
X145588480Y-99504855D01*
X145589555Y-99503795D01*
X146162841Y-98930509D01*
X146260542Y-98973194D01*
X146472227Y-99019736D01*
X146688920Y-99024275D01*
X146902368Y-98986638D01*
X147104441Y-98908259D01*
X147287442Y-98792124D01*
X147368236Y-98715184D01*
X148380892Y-98715184D01*
X148451798Y-98911882D01*
X148659186Y-99027752D01*
X148885193Y-99100937D01*
X149121136Y-99128624D01*
X149357946Y-99109748D01*
X149586524Y-99045037D01*
X149798084Y-98936975D01*
X149835642Y-98911882D01*
X149906548Y-98715184D01*
X149143720Y-97952355D01*
X148380892Y-98715184D01*
X147368236Y-98715184D01*
X147444399Y-98642655D01*
X147569336Y-98465546D01*
X147657492Y-98267543D01*
X147705511Y-98056189D01*
X147707770Y-97894416D01*
X147932096Y-97894416D01*
X147950972Y-98131226D01*
X148015683Y-98359804D01*
X148123745Y-98571364D01*
X148148838Y-98608922D01*
X148345536Y-98679828D01*
X149108365Y-97917000D01*
X149179075Y-97917000D01*
X149941904Y-98679828D01*
X150138602Y-98608922D01*
X150185134Y-98525636D01*
X154928424Y-98525636D01*
X154962240Y-98709883D01*
X155031199Y-98884053D01*
X155132674Y-99041511D01*
X155262800Y-99176261D01*
X155416622Y-99283170D01*
X155588279Y-99358165D01*
X155771233Y-99398390D01*
X155958517Y-99402313D01*
X156142995Y-99369785D01*
X156317642Y-99302044D01*
X156475805Y-99201670D01*
X156611461Y-99072487D01*
X156719440Y-98919416D01*
X156795632Y-98748287D01*
X156837134Y-98565618D01*
X156837692Y-98525636D01*
X162548424Y-98525636D01*
X162582240Y-98709883D01*
X162651199Y-98884053D01*
X162752674Y-99041511D01*
X162882800Y-99176261D01*
X163036622Y-99283170D01*
X163208279Y-99358165D01*
X163391233Y-99398390D01*
X163578517Y-99402313D01*
X163762995Y-99369785D01*
X163937642Y-99302044D01*
X164095805Y-99201670D01*
X164231461Y-99072487D01*
X164339440Y-98919416D01*
X164347853Y-98900520D01*
X165368650Y-98900520D01*
X166346443Y-99878313D01*
X166346443Y-101266360D01*
X166350636Y-101318943D01*
X166378256Y-101408129D01*
X166429628Y-101486090D01*
X166500686Y-101546653D01*
X166585804Y-101585021D01*
X166678240Y-101598157D01*
X168378240Y-101598157D01*
X168430823Y-101593964D01*
X168520009Y-101566344D01*
X168597970Y-101514972D01*
X168658533Y-101443914D01*
X168696901Y-101358796D01*
X168710037Y-101266360D01*
X168710037Y-99566360D01*
X168705844Y-99513777D01*
X168678224Y-99424591D01*
X168626852Y-99346630D01*
X168555794Y-99286067D01*
X168470676Y-99247699D01*
X168378240Y-99234563D01*
X166990193Y-99234563D01*
X165879075Y-98123445D01*
X165846600Y-98096770D01*
X165814373Y-98069728D01*
X165812274Y-98068574D01*
X165810426Y-98067056D01*
X165773372Y-98047188D01*
X165736522Y-98026930D01*
X165734241Y-98026206D01*
X165732131Y-98025075D01*
X165691892Y-98012772D01*
X165651841Y-98000067D01*
X165649465Y-97999800D01*
X165647174Y-97999100D01*
X165605345Y-97994852D01*
X165563556Y-97990164D01*
X165558875Y-97990132D01*
X165558790Y-97990123D01*
X165558711Y-97990130D01*
X165557200Y-97990120D01*
X164349303Y-97990120D01*
X164248689Y-97838684D01*
X164116694Y-97705764D01*
X163961395Y-97601014D01*
X163788707Y-97528423D01*
X163605209Y-97490756D01*
X163417889Y-97489448D01*
X163233882Y-97524549D01*
X163060198Y-97594722D01*
X162903452Y-97697294D01*
X162769614Y-97828358D01*
X162663782Y-97982922D01*
X162589987Y-98155099D01*
X162551040Y-98338330D01*
X162548424Y-98525636D01*
X156837692Y-98525636D01*
X156840121Y-98351658D01*
X156803736Y-98167901D01*
X156732353Y-97994711D01*
X156628689Y-97838684D01*
X156496694Y-97705764D01*
X156341395Y-97601014D01*
X156168707Y-97528423D01*
X155985209Y-97490756D01*
X155797889Y-97489448D01*
X155613882Y-97524549D01*
X155440198Y-97594722D01*
X155283452Y-97697294D01*
X155149614Y-97828358D01*
X155043782Y-97982922D01*
X154969987Y-98155099D01*
X154931040Y-98338330D01*
X154928424Y-98525636D01*
X150185134Y-98525636D01*
X150254472Y-98401534D01*
X150327657Y-98175527D01*
X150355344Y-97939584D01*
X150336468Y-97702774D01*
X150271757Y-97474196D01*
X150163695Y-97262636D01*
X150138602Y-97225078D01*
X149941904Y-97154172D01*
X149179075Y-97917000D01*
X149108365Y-97917000D01*
X148345536Y-97154172D01*
X148148838Y-97225078D01*
X148032968Y-97432466D01*
X147959783Y-97658473D01*
X147932096Y-97894416D01*
X147707770Y-97894416D01*
X147708968Y-97808630D01*
X147666869Y-97596016D01*
X147584276Y-97395629D01*
X147464333Y-97215101D01*
X147368718Y-97118816D01*
X148380892Y-97118816D01*
X149143720Y-97881645D01*
X149906548Y-97118816D01*
X149835642Y-96922118D01*
X149628254Y-96806248D01*
X149402247Y-96733063D01*
X149166304Y-96705376D01*
X148929494Y-96724252D01*
X148700916Y-96788963D01*
X148489356Y-96897025D01*
X148451798Y-96922118D01*
X148380892Y-97118816D01*
X147368718Y-97118816D01*
X147311610Y-97061308D01*
X147131924Y-96940108D01*
X146932118Y-96856118D01*
X146719804Y-96812536D01*
X146503068Y-96811023D01*
X146290166Y-96851636D01*
X146089208Y-96932828D01*
X145907846Y-97051508D01*
X145752991Y-97203154D01*
X145630539Y-97381989D01*
X145545156Y-97581204D01*
X145500093Y-97793208D01*
X145497067Y-98009928D01*
X145536193Y-98223109D01*
X145549395Y-98256455D01*
X145079130Y-98726720D01*
X144816123Y-98726720D01*
X144904399Y-98642655D01*
X145029336Y-98465546D01*
X145117492Y-98267543D01*
X145165511Y-98056189D01*
X145168968Y-97808630D01*
X145126869Y-97596016D01*
X145044276Y-97395629D01*
X144924333Y-97215101D01*
X144771610Y-97061308D01*
X144591924Y-96940108D01*
X144392118Y-96856118D01*
X144179804Y-96812536D01*
X143963068Y-96811023D01*
X143750166Y-96851636D01*
X143549208Y-96932828D01*
X143367846Y-97051508D01*
X143212991Y-97203154D01*
X143090539Y-97381989D01*
X143005156Y-97581204D01*
X142960093Y-97793208D01*
X142957067Y-98009928D01*
X142996193Y-98223109D01*
X143075980Y-98424629D01*
X143193391Y-98606814D01*
X143309855Y-98727417D01*
X143275100Y-98730824D01*
X143233225Y-98734488D01*
X143230928Y-98735155D01*
X143228545Y-98735389D01*
X143188273Y-98747548D01*
X143147913Y-98759274D01*
X143145789Y-98760375D01*
X143143497Y-98761067D01*
X143106331Y-98780828D01*
X143069040Y-98800158D01*
X143067173Y-98801648D01*
X143065056Y-98802774D01*
X143032463Y-98829356D01*
X142999610Y-98855582D01*
X142996278Y-98858868D01*
X142996211Y-98858923D01*
X142996160Y-98858985D01*
X142995085Y-98860045D01*
X142934125Y-98921005D01*
X142931161Y-98924613D01*
X142903090Y-98947022D01*
X142899758Y-98950308D01*
X142899691Y-98950363D01*
X142899640Y-98950425D01*
X142898565Y-98951485D01*
X142004485Y-99845565D01*
X141977810Y-99878040D01*
X141950768Y-99910267D01*
X141949614Y-99912366D01*
X141948096Y-99914214D01*
X141928228Y-99951268D01*
X141907970Y-99988118D01*
X141907246Y-99990399D01*
X141906115Y-99992509D01*
X141893812Y-100032748D01*
X141881107Y-100072799D01*
X141880840Y-100075175D01*
X141880140Y-100077466D01*
X141875892Y-100119295D01*
X141871204Y-100161084D01*
X141871172Y-100165765D01*
X141871163Y-100165850D01*
X141871170Y-100165929D01*
X141871160Y-100167440D01*
X141871160Y-101416530D01*
X140713976Y-102573714D01*
X140713988Y-102571954D01*
X140713997Y-102571869D01*
X140713990Y-102571790D01*
X140714000Y-102570280D01*
X140714000Y-98907600D01*
X140709895Y-98865736D01*
X140706232Y-98823865D01*
X140705565Y-98821568D01*
X140705331Y-98819185D01*
X140693172Y-98778913D01*
X140681446Y-98738553D01*
X140680345Y-98736429D01*
X140679653Y-98734137D01*
X140659913Y-98697010D01*
X140640563Y-98659680D01*
X140639070Y-98657809D01*
X140637946Y-98655696D01*
X140611386Y-98623131D01*
X140585138Y-98590250D01*
X140581852Y-98586918D01*
X140581797Y-98586851D01*
X140581735Y-98586800D01*
X140580675Y-98585725D01*
X139813027Y-97818077D01*
X139836947Y-97740801D01*
X139852829Y-97589695D01*
X139839058Y-97438382D01*
X139796160Y-97292625D01*
X139725767Y-97157977D01*
X139630562Y-97039565D01*
X139514170Y-96941901D01*
X139381026Y-96868704D01*
X139236199Y-96822762D01*
X139085208Y-96805826D01*
X139074338Y-96805750D01*
X138862622Y-96805750D01*
X138711409Y-96820577D01*
X138565955Y-96864492D01*
X138431801Y-96935822D01*
X138314057Y-97031852D01*
X138233640Y-97129060D01*
X137975317Y-97129060D01*
X137903362Y-97039565D01*
X137786970Y-96941901D01*
X137653826Y-96868704D01*
X137508999Y-96822762D01*
X137358008Y-96805826D01*
X137347138Y-96805750D01*
X137135422Y-96805750D01*
X136984209Y-96820577D01*
X136838755Y-96864492D01*
X136704601Y-96935822D01*
X136586857Y-97031852D01*
X136506440Y-97129060D01*
X136243931Y-97129060D01*
X136196482Y-97070045D01*
X136080090Y-96972381D01*
X135946946Y-96899184D01*
X135802119Y-96853242D01*
X135651128Y-96836306D01*
X135640258Y-96836230D01*
X135428542Y-96836230D01*
X135277329Y-96851057D01*
X135131875Y-96894972D01*
X134997721Y-96966302D01*
X134879977Y-97062332D01*
X134799560Y-97159540D01*
X134566637Y-97159540D01*
X134494682Y-97070045D01*
X134378290Y-96972381D01*
X134245146Y-96899184D01*
X134100319Y-96853242D01*
X133949328Y-96836306D01*
X133938458Y-96836230D01*
X133726742Y-96836230D01*
X133575529Y-96851057D01*
X133430075Y-96894972D01*
X133295921Y-96966302D01*
X133178177Y-97062332D01*
X133097760Y-97159540D01*
X132788637Y-97159540D01*
X132716682Y-97070045D01*
X132600290Y-96972381D01*
X132467146Y-96899184D01*
X132322319Y-96853242D01*
X132171328Y-96836306D01*
X132160458Y-96836230D01*
X131948742Y-96836230D01*
X131797529Y-96851057D01*
X131652075Y-96894972D01*
X131517921Y-96966302D01*
X131400177Y-97062332D01*
X131315557Y-97164620D01*
X131081757Y-97164620D01*
X131009802Y-97075125D01*
X130893410Y-96977461D01*
X130760266Y-96904264D01*
X130615439Y-96858322D01*
X130464448Y-96841386D01*
X130453578Y-96841310D01*
X130241862Y-96841310D01*
X130090649Y-96856137D01*
X129945195Y-96900052D01*
X129811041Y-96971382D01*
X129693297Y-97067412D01*
X129596448Y-97184483D01*
X129524182Y-97318135D01*
X129479253Y-97463279D01*
X129463371Y-97614385D01*
X129477142Y-97765698D01*
X129520040Y-97911455D01*
X129590433Y-98046103D01*
X129685638Y-98164515D01*
X129802030Y-98262179D01*
X129935174Y-98335376D01*
X130080001Y-98381318D01*
X130230992Y-98398254D01*
X130241862Y-98398330D01*
X130453578Y-98398330D01*
X130604791Y-98383503D01*
X130750245Y-98339588D01*
X130884399Y-98268258D01*
X131002143Y-98172228D01*
X131082560Y-98075020D01*
X131324647Y-98075020D01*
X131392518Y-98159435D01*
X131508910Y-98257099D01*
X131642054Y-98330296D01*
X131786881Y-98376238D01*
X131937872Y-98393174D01*
X131948742Y-98393250D01*
X132160458Y-98393250D01*
X132311671Y-98378423D01*
X132457125Y-98334508D01*
X132591279Y-98263178D01*
X132709023Y-98167148D01*
X132789440Y-98069940D01*
X133098563Y-98069940D01*
X133170518Y-98159435D01*
X133286910Y-98257099D01*
X133420054Y-98330296D01*
X133564881Y-98376238D01*
X133715872Y-98393174D01*
X133726742Y-98393250D01*
X133938458Y-98393250D01*
X134089671Y-98378423D01*
X134235125Y-98334508D01*
X134369279Y-98263178D01*
X134487023Y-98167148D01*
X134567440Y-98069940D01*
X134800363Y-98069940D01*
X134872318Y-98159435D01*
X134988710Y-98257099D01*
X135121854Y-98330296D01*
X135266681Y-98376238D01*
X135417672Y-98393174D01*
X135428542Y-98393250D01*
X135640258Y-98393250D01*
X135791471Y-98378423D01*
X135936925Y-98334508D01*
X136071079Y-98263178D01*
X136188823Y-98167148D01*
X136285672Y-98050077D01*
X136291413Y-98039460D01*
X136507243Y-98039460D01*
X136579198Y-98128955D01*
X136695590Y-98226619D01*
X136828734Y-98299816D01*
X136973561Y-98345758D01*
X137124552Y-98362694D01*
X137135422Y-98362770D01*
X137347138Y-98362770D01*
X137498351Y-98347943D01*
X137643805Y-98304028D01*
X137777959Y-98232698D01*
X137895703Y-98136668D01*
X137976120Y-98039460D01*
X138234443Y-98039460D01*
X138306398Y-98128955D01*
X138422790Y-98226619D01*
X138555934Y-98299816D01*
X138700761Y-98345758D01*
X138851752Y-98362694D01*
X138862622Y-98362770D01*
X139070220Y-98362770D01*
X139337949Y-98630499D01*
X139236199Y-98598222D01*
X139085208Y-98581286D01*
X139074338Y-98581210D01*
X138862622Y-98581210D01*
X138711409Y-98596037D01*
X138565955Y-98639952D01*
X138431801Y-98711282D01*
X138314057Y-98807312D01*
X138217208Y-98924383D01*
X138144942Y-99058035D01*
X138104476Y-99188760D01*
X138068960Y-99068085D01*
X137998567Y-98933437D01*
X137903362Y-98815025D01*
X137786970Y-98717361D01*
X137653826Y-98644164D01*
X137508999Y-98598222D01*
X137358008Y-98581286D01*
X137347138Y-98581210D01*
X137135422Y-98581210D01*
X136984209Y-98596037D01*
X136838755Y-98639952D01*
X136704601Y-98711282D01*
X136586857Y-98807312D01*
X136490008Y-98924383D01*
X136417742Y-99058035D01*
X136410138Y-99082600D01*
X136391462Y-99105175D01*
X136373696Y-99138033D01*
X136362080Y-99098565D01*
X136291687Y-98963917D01*
X136196482Y-98845505D01*
X136080090Y-98747841D01*
X135946946Y-98674644D01*
X135802119Y-98628702D01*
X135651128Y-98611766D01*
X135640258Y-98611690D01*
X135428542Y-98611690D01*
X135277329Y-98626517D01*
X135131875Y-98670432D01*
X134997721Y-98741762D01*
X134879977Y-98837792D01*
X134783128Y-98954863D01*
X134710862Y-99088515D01*
X134683417Y-99177178D01*
X134660280Y-99098565D01*
X134589887Y-98963917D01*
X134494682Y-98845505D01*
X134378290Y-98747841D01*
X134245146Y-98674644D01*
X134100319Y-98628702D01*
X133949328Y-98611766D01*
X133938458Y-98611690D01*
X133726742Y-98611690D01*
X133575529Y-98626517D01*
X133430075Y-98670432D01*
X133295921Y-98741762D01*
X133178177Y-98837792D01*
X133081328Y-98954863D01*
X133009062Y-99088515D01*
X132964133Y-99233659D01*
X132948251Y-99384765D01*
X132962022Y-99536078D01*
X133004920Y-99681835D01*
X133075313Y-99816483D01*
X133117053Y-99868397D01*
X131671765Y-101313685D01*
X131645090Y-101346160D01*
X131618048Y-101378387D01*
X131616894Y-101380486D01*
X131615376Y-101382334D01*
X131595508Y-101419388D01*
X131575250Y-101456238D01*
X131574526Y-101458519D01*
X131573395Y-101460629D01*
X131561092Y-101500868D01*
X131548387Y-101540919D01*
X131548120Y-101543295D01*
X131547420Y-101545586D01*
X131543172Y-101587415D01*
X131538484Y-101629204D01*
X131538452Y-101633885D01*
X131538443Y-101633970D01*
X131538450Y-101634049D01*
X131538440Y-101635560D01*
X131538440Y-101998384D01*
X131484440Y-102077250D01*
X131435753Y-102190845D01*
X131410057Y-102311732D01*
X131408332Y-102435309D01*
X131430642Y-102556867D01*
X131476138Y-102671777D01*
X131543087Y-102775661D01*
X131628939Y-102864563D01*
X131730423Y-102935097D01*
X131843675Y-102984576D01*
X131964381Y-103011114D01*
X132087942Y-103013703D01*
X132209653Y-102992242D01*
X132324878Y-102947549D01*
X132429227Y-102881327D01*
X132518726Y-102796098D01*
X132571089Y-102721869D01*
X132650019Y-102803603D01*
X132751503Y-102874137D01*
X132864755Y-102923616D01*
X132985461Y-102950154D01*
X133109022Y-102952743D01*
X133230733Y-102931282D01*
X133238769Y-102928165D01*
X133237040Y-102930690D01*
X133188353Y-103044285D01*
X133162657Y-103165172D01*
X133160932Y-103288749D01*
X133183242Y-103410307D01*
X133228738Y-103525217D01*
X133295687Y-103629101D01*
X133381539Y-103718003D01*
X133483023Y-103788537D01*
X133596275Y-103838016D01*
X133716981Y-103864554D01*
X133840542Y-103867143D01*
X133962253Y-103845682D01*
X134037800Y-103816379D01*
X134037800Y-103829239D01*
X133956321Y-103872562D01*
X133838577Y-103968592D01*
X133758160Y-104065800D01*
X132814376Y-104065800D01*
X132741919Y-103975682D01*
X132625394Y-103877907D01*
X132492097Y-103804626D01*
X132347105Y-103758632D01*
X132195941Y-103741676D01*
X132185059Y-103741600D01*
X131974941Y-103741600D01*
X131823555Y-103756444D01*
X131677935Y-103800409D01*
X131543628Y-103871821D01*
X131425749Y-103967961D01*
X131344809Y-104065800D01*
X131307604Y-104065800D01*
X131331576Y-103960287D01*
X131333547Y-103819126D01*
X131309542Y-103697891D01*
X131262446Y-103583628D01*
X131194053Y-103480688D01*
X131106968Y-103392993D01*
X131004509Y-103323883D01*
X130890577Y-103275991D01*
X130769513Y-103251140D01*
X130716923Y-103250773D01*
X129739955Y-102273805D01*
X129707480Y-102247130D01*
X129675253Y-102220088D01*
X129673154Y-102218934D01*
X129671306Y-102217416D01*
X129634252Y-102197548D01*
X129597402Y-102177290D01*
X129595121Y-102176566D01*
X129593011Y-102175435D01*
X129552772Y-102163132D01*
X129512721Y-102150427D01*
X129510345Y-102150160D01*
X129508054Y-102149460D01*
X129466225Y-102145212D01*
X129424436Y-102140524D01*
X129419755Y-102140492D01*
X129419670Y-102140483D01*
X129419591Y-102140490D01*
X129418080Y-102140480D01*
X128289587Y-102140480D01*
X128257088Y-102107753D01*
X128154629Y-102038643D01*
X128040697Y-101990751D01*
X127919633Y-101965900D01*
X127796047Y-101965037D01*
X127674648Y-101988195D01*
X127560058Y-102034492D01*
X127456644Y-102102165D01*
X127368343Y-102188635D01*
X127316300Y-102264643D01*
X127316300Y-100667469D01*
X128035212Y-100667469D01*
X128057522Y-100789027D01*
X128103018Y-100903937D01*
X128169967Y-101007821D01*
X128255819Y-101096723D01*
X128357303Y-101167257D01*
X128470555Y-101216736D01*
X128591261Y-101243274D01*
X128714822Y-101245863D01*
X128836533Y-101224402D01*
X128951758Y-101179709D01*
X129056107Y-101113487D01*
X129141842Y-101031843D01*
X129165647Y-101068781D01*
X129251499Y-101157683D01*
X129352983Y-101228217D01*
X129466235Y-101277696D01*
X129586941Y-101304234D01*
X129710502Y-101306823D01*
X129832213Y-101285362D01*
X129947438Y-101240669D01*
X130051787Y-101174447D01*
X130097789Y-101130640D01*
X130225460Y-101130640D01*
X130258159Y-101141013D01*
X130258951Y-101141102D01*
X130259714Y-101141341D01*
X130303074Y-101146051D01*
X130346444Y-101150916D01*
X130347954Y-101150926D01*
X130348033Y-101150935D01*
X130348118Y-101150928D01*
X130352800Y-101150960D01*
X130769360Y-101150960D01*
X130811224Y-101146855D01*
X130853095Y-101143192D01*
X130855392Y-101142525D01*
X130857775Y-101142291D01*
X130898047Y-101130132D01*
X130938407Y-101118406D01*
X130940531Y-101117305D01*
X130942823Y-101116613D01*
X130979950Y-101096873D01*
X131017280Y-101077523D01*
X131019151Y-101076030D01*
X131021264Y-101074906D01*
X131053829Y-101048346D01*
X131086710Y-101022098D01*
X131090042Y-101018812D01*
X131090109Y-101018757D01*
X131090160Y-101018695D01*
X131091235Y-101017635D01*
X131940220Y-100168650D01*
X131948742Y-100168710D01*
X132160458Y-100168710D01*
X132311671Y-100153883D01*
X132457125Y-100109968D01*
X132591279Y-100038638D01*
X132709023Y-99942608D01*
X132805872Y-99825537D01*
X132878138Y-99691885D01*
X132923067Y-99546741D01*
X132938949Y-99395635D01*
X132925178Y-99244322D01*
X132882280Y-99098565D01*
X132811887Y-98963917D01*
X132716682Y-98845505D01*
X132600290Y-98747841D01*
X132467146Y-98674644D01*
X132322319Y-98628702D01*
X132171328Y-98611766D01*
X132160458Y-98611690D01*
X131948742Y-98611690D01*
X131797529Y-98626517D01*
X131652075Y-98670432D01*
X131517921Y-98741762D01*
X131400177Y-98837792D01*
X131303328Y-98954863D01*
X131231062Y-99088515D01*
X131200246Y-99188066D01*
X131175400Y-99103645D01*
X131105007Y-98968997D01*
X131009802Y-98850585D01*
X130893410Y-98752921D01*
X130760266Y-98679724D01*
X130615439Y-98633782D01*
X130464448Y-98616846D01*
X130453578Y-98616770D01*
X130241862Y-98616770D01*
X130090649Y-98631597D01*
X129945195Y-98675512D01*
X129811041Y-98746842D01*
X129693297Y-98842872D01*
X129596448Y-98959943D01*
X129524182Y-99093595D01*
X129515577Y-99121393D01*
X128652826Y-99984144D01*
X128608847Y-99983837D01*
X128487448Y-100006995D01*
X128372858Y-100053292D01*
X128269444Y-100120965D01*
X128181143Y-100207435D01*
X128111320Y-100309410D01*
X128062633Y-100423005D01*
X128036937Y-100543892D01*
X128035212Y-100667469D01*
X127316300Y-100667469D01*
X127316300Y-96518800D01*
X169685900Y-96518800D01*
X169685900Y-113391458D01*
X169685900Y-113391458D01*
G37*
X169685900Y-113391458D02*
X150198532Y-113446978D01*
X150974355Y-112671155D01*
X151001030Y-112638680D01*
X151028072Y-112606453D01*
X151029226Y-112604354D01*
X151030744Y-112602506D01*
X151050612Y-112565452D01*
X151070870Y-112528602D01*
X151071594Y-112526321D01*
X151072725Y-112524211D01*
X151085024Y-112483985D01*
X151097733Y-112443921D01*
X151098000Y-112441544D01*
X151098700Y-112439253D01*
X151102947Y-112397435D01*
X151107636Y-112355636D01*
X151107668Y-112350954D01*
X151107677Y-112350869D01*
X151107670Y-112350790D01*
X151107680Y-112349280D01*
X151107680Y-111846950D01*
X151501430Y-111453200D01*
X151574794Y-111453200D01*
X151602126Y-111487194D01*
X151553270Y-111519388D01*
X151492707Y-111590446D01*
X151454339Y-111675564D01*
X151441203Y-111768000D01*
X151441203Y-112768000D01*
X151445396Y-112820583D01*
X151473016Y-112909769D01*
X151524388Y-112987730D01*
X151595446Y-113048293D01*
X151680564Y-113086661D01*
X151773000Y-113099797D01*
X152773000Y-113099797D01*
X152825583Y-113095604D01*
X152914769Y-113067984D01*
X152992730Y-113016612D01*
X153053293Y-112945554D01*
X153091661Y-112860436D01*
X153104797Y-112768000D01*
X153104797Y-111768000D01*
X153100604Y-111715417D01*
X153072984Y-111626231D01*
X153021612Y-111548270D01*
X152950554Y-111487707D01*
X152945939Y-111485627D01*
X152965284Y-111462242D01*
X153042348Y-111319715D01*
X153071470Y-111225636D01*
X154928424Y-111225636D01*
X154962240Y-111409883D01*
X155031199Y-111584053D01*
X155132674Y-111741511D01*
X155262800Y-111876261D01*
X155416622Y-111983170D01*
X155588279Y-112058165D01*
X155771233Y-112098390D01*
X155958517Y-112102313D01*
X156142995Y-112069785D01*
X156317642Y-112002044D01*
X156475805Y-111901670D01*
X156611461Y-111772487D01*
X156719440Y-111619416D01*
X156727853Y-111600520D01*
X157693360Y-111600520D01*
X157735224Y-111596415D01*
X157777095Y-111592752D01*
X157779392Y-111592085D01*
X157781775Y-111591851D01*
X157822047Y-111579692D01*
X157862407Y-111567966D01*
X157864531Y-111566865D01*
X157866823Y-111566173D01*
X157903950Y-111546433D01*
X157941280Y-111527083D01*
X157943151Y-111525590D01*
X157945264Y-111524466D01*
X157977829Y-111497906D01*
X158010710Y-111471658D01*
X158014042Y-111468372D01*
X158014109Y-111468317D01*
X158014160Y-111468255D01*
X158015235Y-111467195D01*
X158256794Y-111225636D01*
X162548424Y-111225636D01*
X162582240Y-111409883D01*
X162651199Y-111584053D01*
X162752674Y-111741511D01*
X162882800Y-111876261D01*
X163036622Y-111983170D01*
X163208279Y-112058165D01*
X163391233Y-112098390D01*
X163578517Y-112102313D01*
X163762995Y-112069785D01*
X163937642Y-112002044D01*
X164095805Y-111901670D01*
X164231461Y-111772487D01*
X164339440Y-111619416D01*
X164415632Y-111448287D01*
X164457134Y-111265618D01*
X164460121Y-111051658D01*
X164423736Y-110867901D01*
X164352353Y-110694711D01*
X164248689Y-110538684D01*
X164116694Y-110405764D01*
X163961395Y-110301014D01*
X163788707Y-110228423D01*
X163605209Y-110190756D01*
X163417889Y-110189448D01*
X163233882Y-110224549D01*
X163060198Y-110294722D01*
X162903452Y-110397294D01*
X162769614Y-110528358D01*
X162663782Y-110682922D01*
X162589987Y-110855099D01*
X162551040Y-111038330D01*
X162548424Y-111225636D01*
X158256794Y-111225636D01*
X160185537Y-109296893D01*
X162848662Y-109296893D01*
X162901574Y-109478232D01*
X163083463Y-109579159D01*
X163281547Y-109642660D01*
X163488213Y-109666298D01*
X163695520Y-109649164D01*
X163895501Y-109591914D01*
X164080470Y-109496750D01*
X164108186Y-109478232D01*
X164161098Y-109296893D01*
X163504880Y-108640675D01*
X162848662Y-109296893D01*
X160185537Y-109296893D01*
X160893777Y-108588653D01*
X162443902Y-108588653D01*
X162461036Y-108795960D01*
X162518286Y-108995941D01*
X162613450Y-109180910D01*
X162631968Y-109208626D01*
X162813307Y-109261538D01*
X163469525Y-108605320D01*
X163540235Y-108605320D01*
X164196453Y-109261538D01*
X164377792Y-109208626D01*
X164466472Y-109048807D01*
X166267163Y-109048807D01*
X166277035Y-109098437D01*
X166354663Y-109337257D01*
X166477391Y-109556344D01*
X166640503Y-109747278D01*
X166837730Y-109902722D01*
X167061493Y-110016702D01*
X167303193Y-110084838D01*
X167503240Y-109996767D01*
X167503240Y-108848760D01*
X167553240Y-108848760D01*
X167553240Y-109996767D01*
X167753287Y-110084838D01*
X167994987Y-110016702D01*
X168218750Y-109902722D01*
X168415977Y-109747278D01*
X168579089Y-109556344D01*
X168701817Y-109337257D01*
X168779445Y-109098437D01*
X168789317Y-109048807D01*
X168701224Y-108848760D01*
X167553240Y-108848760D01*
X167503240Y-108848760D01*
X166355256Y-108848760D01*
X166267163Y-109048807D01*
X164466472Y-109048807D01*
X164478719Y-109026737D01*
X164542220Y-108828653D01*
X164565858Y-108621987D01*
X164563935Y-108598713D01*
X166267163Y-108598713D01*
X166355256Y-108798760D01*
X167503240Y-108798760D01*
X167503240Y-107650753D01*
X167553240Y-107650753D01*
X167553240Y-108798760D01*
X168701224Y-108798760D01*
X168789317Y-108598713D01*
X168779445Y-108549083D01*
X168701817Y-108310263D01*
X168579089Y-108091176D01*
X168415977Y-107900242D01*
X168218750Y-107744798D01*
X167994987Y-107630818D01*
X167753287Y-107562682D01*
X167553240Y-107650753D01*
X167503240Y-107650753D01*
X167303193Y-107562682D01*
X167061493Y-107630818D01*
X166837730Y-107744798D01*
X166640503Y-107900242D01*
X166477391Y-108091176D01*
X166354663Y-108310263D01*
X166277035Y-108549083D01*
X166267163Y-108598713D01*
X164563935Y-108598713D01*
X164548724Y-108414680D01*
X164491474Y-108214699D01*
X164396310Y-108029730D01*
X164377792Y-108002014D01*
X164196453Y-107949102D01*
X163540235Y-108605320D01*
X163469525Y-108605320D01*
X162813307Y-107949102D01*
X162631968Y-108002014D01*
X162531041Y-108183903D01*
X162467540Y-108381987D01*
X162443902Y-108588653D01*
X160893777Y-108588653D01*
X161568683Y-107913747D01*
X162848662Y-107913747D01*
X163504880Y-108569965D01*
X164161098Y-107913747D01*
X164108186Y-107732408D01*
X163926297Y-107631481D01*
X163728213Y-107567980D01*
X163521547Y-107544342D01*
X163314240Y-107561476D01*
X163114259Y-107618726D01*
X162929290Y-107713890D01*
X162901574Y-107732408D01*
X162848662Y-107913747D01*
X161568683Y-107913747D01*
X162743470Y-106738960D01*
X166346443Y-106738960D01*
X166346443Y-107133760D01*
X166350636Y-107186343D01*
X166378256Y-107275529D01*
X166429628Y-107353490D01*
X166500686Y-107414053D01*
X166585804Y-107452421D01*
X166678240Y-107465557D01*
X168378240Y-107465557D01*
X168430823Y-107461364D01*
X168520009Y-107433744D01*
X168597970Y-107382372D01*
X168658533Y-107311314D01*
X168696901Y-107226196D01*
X168710037Y-107133760D01*
X168710037Y-105433760D01*
X168705844Y-105381177D01*
X168678224Y-105291991D01*
X168626852Y-105214030D01*
X168555794Y-105153467D01*
X168470676Y-105115099D01*
X168378240Y-105101963D01*
X166678240Y-105101963D01*
X166625657Y-105106156D01*
X166536471Y-105133776D01*
X166458510Y-105185148D01*
X166397947Y-105256206D01*
X166359579Y-105341324D01*
X166346443Y-105433760D01*
X166346443Y-105828560D01*
X162554920Y-105828560D01*
X162513056Y-105832665D01*
X162471185Y-105836328D01*
X162468888Y-105836995D01*
X162466505Y-105837229D01*
X162426233Y-105849388D01*
X162385873Y-105861114D01*
X162383749Y-105862215D01*
X162381457Y-105862907D01*
X162344330Y-105882647D01*
X162307000Y-105901997D01*
X162305129Y-105903490D01*
X162303016Y-105904614D01*
X162270451Y-105931174D01*
X162237570Y-105957422D01*
X162234238Y-105960708D01*
X162234171Y-105960763D01*
X162234120Y-105960825D01*
X162233045Y-105961885D01*
X157504810Y-110690120D01*
X156729303Y-110690120D01*
X156628689Y-110538684D01*
X156496694Y-110405764D01*
X156341395Y-110301014D01*
X156168707Y-110228423D01*
X155985209Y-110190756D01*
X155797889Y-110189448D01*
X155613882Y-110224549D01*
X155440198Y-110294722D01*
X155283452Y-110397294D01*
X155149614Y-110528358D01*
X155043782Y-110682922D01*
X154969987Y-110855099D01*
X154931040Y-111038330D01*
X154928424Y-111225636D01*
X153071470Y-111225636D01*
X153090260Y-111164935D01*
X153107197Y-111003796D01*
X153092512Y-110842436D01*
X153046765Y-110687002D01*
X152971699Y-110543413D01*
X152870172Y-110417139D01*
X152805679Y-110363023D01*
X152862004Y-110317086D01*
X152965284Y-110192242D01*
X152970173Y-110183200D01*
X154762200Y-110183200D01*
X154804064Y-110179095D01*
X154845935Y-110175432D01*
X154848232Y-110174765D01*
X154850615Y-110174531D01*
X154890887Y-110162372D01*
X154931247Y-110150646D01*
X154933371Y-110149545D01*
X154935663Y-110148853D01*
X154972790Y-110129113D01*
X155010120Y-110109763D01*
X155011991Y-110108270D01*
X155014104Y-110107146D01*
X155046669Y-110080586D01*
X155079550Y-110054338D01*
X155082882Y-110051052D01*
X155082949Y-110050997D01*
X155083000Y-110050935D01*
X155084075Y-110049875D01*
X155610827Y-109523123D01*
X155771233Y-109558390D01*
X155958517Y-109562313D01*
X156142995Y-109529785D01*
X156317642Y-109462044D01*
X156475805Y-109361670D01*
X156611461Y-109232487D01*
X156719440Y-109079416D01*
X156795632Y-108908287D01*
X156837134Y-108725618D01*
X156840121Y-108511658D01*
X156803736Y-108327901D01*
X156732353Y-108154711D01*
X156628689Y-107998684D01*
X156496694Y-107865764D01*
X156341395Y-107761014D01*
X156168707Y-107688423D01*
X155985209Y-107650756D01*
X155797889Y-107649448D01*
X155613882Y-107684549D01*
X155440198Y-107754722D01*
X155283452Y-107857294D01*
X155149614Y-107988358D01*
X155043782Y-108142922D01*
X154969987Y-108315099D01*
X154931040Y-108498330D01*
X154928424Y-108685636D01*
X154962240Y-108869883D01*
X154966304Y-108880146D01*
X154573650Y-109272800D01*
X152971206Y-109272800D01*
X152870172Y-109147139D01*
X152746053Y-109042991D01*
X152604068Y-108964934D01*
X152449625Y-108915942D01*
X152288608Y-108897881D01*
X152277017Y-108897800D01*
X152268983Y-108897800D01*
X152107730Y-108913611D01*
X151952618Y-108960442D01*
X151809557Y-109036509D01*
X151683996Y-109138914D01*
X151580716Y-109263758D01*
X151503652Y-109406285D01*
X151455740Y-109561065D01*
X151438803Y-109722204D01*
X151453488Y-109883564D01*
X151499235Y-110038998D01*
X151574301Y-110182587D01*
X151675828Y-110308861D01*
X151740321Y-110362977D01*
X151683996Y-110408914D01*
X151580716Y-110533758D01*
X151575827Y-110542800D01*
X151312880Y-110542800D01*
X151271066Y-110546900D01*
X151229145Y-110550567D01*
X151226843Y-110551236D01*
X151224465Y-110551469D01*
X151184221Y-110563619D01*
X151143834Y-110575354D01*
X151141711Y-110576454D01*
X151139417Y-110577147D01*
X151102272Y-110596897D01*
X151064960Y-110616237D01*
X151063089Y-110617730D01*
X151060976Y-110618854D01*
X151028417Y-110645409D01*
X150995531Y-110671661D01*
X150992198Y-110674948D01*
X150992131Y-110675003D01*
X150992080Y-110675065D01*
X150991005Y-110676125D01*
X150330605Y-111336525D01*
X150303930Y-111369000D01*
X150276888Y-111401227D01*
X150275734Y-111403326D01*
X150274216Y-111405174D01*
X150265600Y-111421243D01*
X150265600Y-111277000D01*
X148996000Y-111277000D01*
X148996000Y-112590987D01*
X149198175Y-112678912D01*
X149443324Y-112610022D01*
X149669454Y-112494710D01*
X149868742Y-112337498D01*
X150033531Y-112144428D01*
X150157487Y-111922919D01*
X150197280Y-111800313D01*
X150197280Y-112160730D01*
X149285370Y-113072640D01*
X145188070Y-113072640D01*
X145826171Y-112434539D01*
X145968384Y-112511434D01*
X146190953Y-112580331D01*
X146422666Y-112604685D01*
X146654696Y-112583569D01*
X146878205Y-112517786D01*
X147084681Y-112409843D01*
X147266258Y-112263851D01*
X147416020Y-112085372D01*
X147528264Y-111881202D01*
X147598713Y-111659119D01*
X147624684Y-111427582D01*
X147624800Y-111410914D01*
X147624800Y-111277000D01*
X147676400Y-111277000D01*
X147676400Y-111429400D01*
X147706153Y-111681484D01*
X147784513Y-111922919D01*
X147908469Y-112144428D01*
X148073258Y-112337498D01*
X148272546Y-112494710D01*
X148498676Y-112610022D01*
X148743825Y-112678912D01*
X148946000Y-112590987D01*
X148946000Y-111277000D01*
X147676400Y-111277000D01*
X147624800Y-111277000D01*
X147624800Y-111093086D01*
X147622988Y-111074600D01*
X147676400Y-111074600D01*
X147676400Y-111227000D01*
X148946000Y-111227000D01*
X148946000Y-109913013D01*
X148996000Y-109913013D01*
X148996000Y-111227000D01*
X150265600Y-111227000D01*
X150265600Y-111074600D01*
X150235847Y-110822516D01*
X150157487Y-110581081D01*
X150033531Y-110359572D01*
X149868742Y-110166502D01*
X149669454Y-110009290D01*
X149443324Y-109893978D01*
X149198175Y-109825088D01*
X148996000Y-109913013D01*
X148946000Y-109913013D01*
X148743825Y-109825088D01*
X148498676Y-109893978D01*
X148272546Y-110009290D01*
X148073258Y-110166502D01*
X147908469Y-110359572D01*
X147784513Y-110581081D01*
X147706153Y-110822516D01*
X147676400Y-111074600D01*
X147622988Y-111074600D01*
X147602064Y-110861209D01*
X147534723Y-110638164D01*
X147425341Y-110432447D01*
X147278086Y-110251894D01*
X147098564Y-110103381D01*
X146893616Y-109992566D01*
X146671047Y-109923669D01*
X146439334Y-109899315D01*
X146207304Y-109920431D01*
X145983795Y-109986214D01*
X145777319Y-110094157D01*
X145595742Y-110240149D01*
X145445980Y-110418628D01*
X145333736Y-110622798D01*
X145263287Y-110844881D01*
X145237316Y-111076418D01*
X145237200Y-111093086D01*
X145237200Y-111410914D01*
X145259936Y-111642791D01*
X145276281Y-111696929D01*
X145086397Y-111886813D01*
X145086397Y-110236000D01*
X145082204Y-110183417D01*
X145054584Y-110094231D01*
X145003212Y-110016270D01*
X144932154Y-109955707D01*
X144847036Y-109917339D01*
X144754600Y-109904203D01*
X144346200Y-109904203D01*
X144346200Y-109753400D01*
X144342095Y-109711536D01*
X144338432Y-109669665D01*
X144337765Y-109667368D01*
X144337531Y-109664985D01*
X144325372Y-109624713D01*
X144313646Y-109584353D01*
X144312545Y-109582229D01*
X144311853Y-109579937D01*
X144292113Y-109542810D01*
X144272763Y-109505480D01*
X144271270Y-109503609D01*
X144270146Y-109501496D01*
X144243566Y-109468906D01*
X144217338Y-109436051D01*
X144214053Y-109432719D01*
X144213997Y-109432651D01*
X144213934Y-109432599D01*
X144212875Y-109431525D01*
X143133722Y-108352372D01*
X143134387Y-108304766D01*
X143110382Y-108183531D01*
X143075751Y-108099509D01*
X143275212Y-108099509D01*
X143297522Y-108221067D01*
X143343018Y-108335977D01*
X143409967Y-108439861D01*
X143495819Y-108528763D01*
X143597303Y-108599297D01*
X143710555Y-108648776D01*
X143831261Y-108675314D01*
X143892569Y-108676599D01*
X144031405Y-108815435D01*
X144063880Y-108842110D01*
X144096107Y-108869152D01*
X144098206Y-108870306D01*
X144100054Y-108871824D01*
X144137108Y-108891692D01*
X144173958Y-108911950D01*
X144176239Y-108912674D01*
X144178349Y-108913805D01*
X144218588Y-108926108D01*
X144258639Y-108938813D01*
X144261015Y-108939080D01*
X144263306Y-108939780D01*
X144305135Y-108944028D01*
X144346924Y-108948716D01*
X144351605Y-108948748D01*
X144351690Y-108948757D01*
X144351769Y-108948750D01*
X144353280Y-108948760D01*
X146212560Y-108948760D01*
X146254424Y-108944655D01*
X146296295Y-108940992D01*
X146298592Y-108940325D01*
X146300975Y-108940091D01*
X146341247Y-108927932D01*
X146381607Y-108916206D01*
X146383731Y-108915105D01*
X146386023Y-108914413D01*
X146423150Y-108894673D01*
X146460480Y-108875323D01*
X146462351Y-108873830D01*
X146464464Y-108872706D01*
X146497029Y-108846146D01*
X146529910Y-108819898D01*
X146533242Y-108816612D01*
X146533309Y-108816557D01*
X146533360Y-108816495D01*
X146534435Y-108815435D01*
X147514875Y-107834995D01*
X147541550Y-107802520D01*
X147568592Y-107770293D01*
X147569746Y-107768194D01*
X147571264Y-107766346D01*
X147591132Y-107729292D01*
X147608556Y-107697597D01*
X148082000Y-107697597D01*
X148134583Y-107693404D01*
X148223769Y-107665784D01*
X148301730Y-107614412D01*
X148362293Y-107543354D01*
X148400661Y-107458236D01*
X148413797Y-107365800D01*
X148413797Y-106248200D01*
X148409604Y-106195617D01*
X148381984Y-106106431D01*
X148330612Y-106028470D01*
X148259554Y-105967907D01*
X148174436Y-105929539D01*
X148082000Y-105916403D01*
X146304000Y-105916403D01*
X146251417Y-105920596D01*
X146162231Y-105948216D01*
X146084270Y-105999588D01*
X146023707Y-106070646D01*
X145985339Y-106155764D01*
X145972203Y-106248200D01*
X145972203Y-107365800D01*
X145976396Y-107418383D01*
X146004016Y-107507569D01*
X146055388Y-107585530D01*
X146126446Y-107646093D01*
X146211564Y-107684461D01*
X146304000Y-107697597D01*
X146364773Y-107697597D01*
X146024010Y-108038360D01*
X144541830Y-108038360D01*
X144535802Y-108032332D01*
X144536467Y-107984726D01*
X144512462Y-107863491D01*
X144465366Y-107749228D01*
X144396973Y-107646288D01*
X144309888Y-107558593D01*
X144207429Y-107489483D01*
X144093497Y-107441591D01*
X143972433Y-107416740D01*
X143848847Y-107415877D01*
X143727448Y-107439035D01*
X143612858Y-107485332D01*
X143509444Y-107553005D01*
X143421143Y-107639475D01*
X143351320Y-107741450D01*
X143302633Y-107855045D01*
X143276937Y-107975932D01*
X143275212Y-108099509D01*
X143075751Y-108099509D01*
X143063286Y-108069268D01*
X142994893Y-107966328D01*
X142907808Y-107878633D01*
X142805349Y-107809523D01*
X142691417Y-107761631D01*
X142570353Y-107736780D01*
X142446767Y-107735917D01*
X142325368Y-107759075D01*
X142210778Y-107805372D01*
X142107364Y-107873045D01*
X142105920Y-107874459D01*
X142105920Y-107259031D01*
X142130086Y-107236018D01*
X142201327Y-107135028D01*
X142251595Y-107022124D01*
X142278976Y-106901607D01*
X142280947Y-106760446D01*
X142256942Y-106639211D01*
X142209846Y-106524948D01*
X142141453Y-106422008D01*
X142054368Y-106334313D01*
X141951909Y-106265203D01*
X141837977Y-106217311D01*
X141716913Y-106192460D01*
X141593327Y-106191597D01*
X141531573Y-106203377D01*
X142997510Y-104737440D01*
X143845280Y-104737440D01*
X143887144Y-104733335D01*
X143929015Y-104729672D01*
X143931312Y-104729005D01*
X143933695Y-104728771D01*
X143973967Y-104716612D01*
X144014327Y-104704886D01*
X144016451Y-104703785D01*
X144018743Y-104703093D01*
X144055870Y-104683353D01*
X144093200Y-104664003D01*
X144095071Y-104662510D01*
X144097184Y-104661386D01*
X144129749Y-104634826D01*
X144162630Y-104608578D01*
X144165962Y-104605292D01*
X144166029Y-104605237D01*
X144166080Y-104605175D01*
X144167155Y-104604115D01*
X144625520Y-104145750D01*
X145873000Y-104145750D01*
X145873000Y-104614250D01*
X145889563Y-104697518D01*
X145922053Y-104775955D01*
X145969221Y-104846547D01*
X146029254Y-104906580D01*
X146099845Y-104953747D01*
X146178282Y-104986237D01*
X146261550Y-105002800D01*
X147060250Y-105002800D01*
X147168000Y-104895050D01*
X147168000Y-104038000D01*
X147218000Y-104038000D01*
X147218000Y-104895050D01*
X147325750Y-105002800D01*
X148124450Y-105002800D01*
X148207718Y-104986237D01*
X148286155Y-104953747D01*
X148356746Y-104906580D01*
X148416779Y-104846547D01*
X148463947Y-104775955D01*
X148496437Y-104697518D01*
X148513000Y-104614250D01*
X148513000Y-104145750D01*
X148405250Y-104038000D01*
X147218000Y-104038000D01*
X147168000Y-104038000D01*
X145980750Y-104038000D01*
X145873000Y-104145750D01*
X144625520Y-104145750D01*
X145359520Y-103411750D01*
X145873000Y-103411750D01*
X145873000Y-103880250D01*
X145980750Y-103988000D01*
X147168000Y-103988000D01*
X147168000Y-103130950D01*
X147218000Y-103130950D01*
X147218000Y-103988000D01*
X148405250Y-103988000D01*
X148513000Y-103880250D01*
X148513000Y-103411750D01*
X148496437Y-103328482D01*
X148463947Y-103250045D01*
X148418085Y-103181407D01*
X166267163Y-103181407D01*
X166277035Y-103231037D01*
X166354663Y-103469857D01*
X166477391Y-103688944D01*
X166640503Y-103879878D01*
X166837730Y-104035322D01*
X167061493Y-104149302D01*
X167303193Y-104217438D01*
X167503240Y-104129367D01*
X167503240Y-102981360D01*
X167553240Y-102981360D01*
X167553240Y-104129367D01*
X167753287Y-104217438D01*
X167994987Y-104149302D01*
X168218750Y-104035322D01*
X168415977Y-103879878D01*
X168579089Y-103688944D01*
X168701817Y-103469857D01*
X168779445Y-103231037D01*
X168789317Y-103181407D01*
X168701224Y-102981360D01*
X167553240Y-102981360D01*
X167503240Y-102981360D01*
X166355256Y-102981360D01*
X166267163Y-103181407D01*
X148418085Y-103181407D01*
X148416779Y-103179453D01*
X148356746Y-103119420D01*
X148286155Y-103072253D01*
X148207718Y-103039763D01*
X148124450Y-103023200D01*
X147325750Y-103023200D01*
X147218000Y-103130950D01*
X147168000Y-103130950D01*
X147060250Y-103023200D01*
X146261550Y-103023200D01*
X146178282Y-103039763D01*
X146099845Y-103072253D01*
X146029254Y-103119420D01*
X145969221Y-103179453D01*
X145922053Y-103250045D01*
X145889563Y-103328482D01*
X145873000Y-103411750D01*
X145359520Y-103411750D01*
X146039957Y-102731313D01*
X166267163Y-102731313D01*
X166355256Y-102931360D01*
X167503240Y-102931360D01*
X167503240Y-101783353D01*
X167553240Y-101783353D01*
X167553240Y-102931360D01*
X168701224Y-102931360D01*
X168789317Y-102731313D01*
X168779445Y-102681683D01*
X168701817Y-102442863D01*
X168579089Y-102223776D01*
X168415977Y-102032842D01*
X168218750Y-101877398D01*
X167994987Y-101763418D01*
X167753287Y-101695282D01*
X167553240Y-101783353D01*
X167503240Y-101783353D01*
X167303193Y-101695282D01*
X167061493Y-101763418D01*
X166837730Y-101877398D01*
X166640503Y-102032842D01*
X166477391Y-102223776D01*
X166354663Y-102442863D01*
X166277035Y-102681683D01*
X166267163Y-102731313D01*
X146039957Y-102731313D01*
X146065830Y-102705440D01*
X147462240Y-102705440D01*
X147504104Y-102701335D01*
X147545975Y-102697672D01*
X147548272Y-102697005D01*
X147550655Y-102696771D01*
X147590927Y-102684612D01*
X147631287Y-102672886D01*
X147633411Y-102671785D01*
X147635703Y-102671093D01*
X147672830Y-102651353D01*
X147710160Y-102632003D01*
X147712031Y-102630510D01*
X147714144Y-102629386D01*
X147746709Y-102602826D01*
X147779590Y-102576578D01*
X147782922Y-102573292D01*
X147782989Y-102573237D01*
X147783040Y-102573175D01*
X147784115Y-102572115D01*
X148835377Y-101520853D01*
X149012227Y-101559736D01*
X149228920Y-101564275D01*
X149442368Y-101526638D01*
X149644441Y-101448259D01*
X149827442Y-101332124D01*
X149984399Y-101182655D01*
X150109336Y-101005546D01*
X150197492Y-100807543D01*
X150245511Y-100596189D01*
X150248968Y-100348630D01*
X150206869Y-100136016D01*
X150124276Y-99935629D01*
X150004333Y-99755101D01*
X149851610Y-99601308D01*
X149671924Y-99480108D01*
X149472118Y-99396118D01*
X149259804Y-99352536D01*
X149043068Y-99351023D01*
X148830166Y-99391636D01*
X148629208Y-99472828D01*
X148447846Y-99591508D01*
X148292991Y-99743154D01*
X148170539Y-99921989D01*
X148085156Y-100121204D01*
X148040093Y-100333208D01*
X148037067Y-100549928D01*
X148076193Y-100763109D01*
X148141266Y-100927464D01*
X147273690Y-101795040D01*
X145877280Y-101795040D01*
X145835416Y-101799145D01*
X145793545Y-101802808D01*
X145791248Y-101803475D01*
X145788865Y-101803709D01*
X145748593Y-101815868D01*
X145708233Y-101827594D01*
X145706109Y-101828695D01*
X145703817Y-101829387D01*
X145666690Y-101849127D01*
X145629360Y-101868477D01*
X145627489Y-101869970D01*
X145625376Y-101871094D01*
X145592786Y-101897674D01*
X145559931Y-101923902D01*
X145556599Y-101927187D01*
X145556531Y-101927243D01*
X145556479Y-101927306D01*
X145555405Y-101928365D01*
X143656730Y-103827040D01*
X143604293Y-103827040D01*
X143616669Y-103816946D01*
X143649550Y-103790698D01*
X143652882Y-103787412D01*
X143652949Y-103787357D01*
X143653000Y-103787295D01*
X143654075Y-103786235D01*
X146033586Y-101406724D01*
X146061928Y-101426422D01*
X146260542Y-101513194D01*
X146472227Y-101559736D01*
X146688920Y-101564275D01*
X146902368Y-101526638D01*
X147104441Y-101448259D01*
X147287442Y-101332124D01*
X147444399Y-101182655D01*
X147569336Y-101005546D01*
X147657492Y-100807543D01*
X147705511Y-100596189D01*
X147708968Y-100348630D01*
X147666869Y-100136016D01*
X147584276Y-99935629D01*
X147464333Y-99755101D01*
X147311610Y-99601308D01*
X147131924Y-99480108D01*
X146932118Y-99396118D01*
X146719804Y-99352536D01*
X146503068Y-99351023D01*
X146290166Y-99391636D01*
X146089208Y-99472828D01*
X145907846Y-99591508D01*
X145752991Y-99743154D01*
X145630539Y-99921989D01*
X145545156Y-100121204D01*
X145500093Y-100333208D01*
X145497067Y-100549928D01*
X145513476Y-100639334D01*
X143143650Y-103009160D01*
X142775070Y-103009160D01*
X144235162Y-101549068D01*
X144362368Y-101526638D01*
X144564441Y-101448259D01*
X144747442Y-101332124D01*
X144904399Y-101182655D01*
X145029336Y-101005546D01*
X145117492Y-100807543D01*
X145165511Y-100596189D01*
X145168968Y-100348630D01*
X145126869Y-100136016D01*
X145044276Y-99935629D01*
X144924333Y-99755101D01*
X144807173Y-99637120D01*
X145267680Y-99637120D01*
X145309544Y-99633015D01*
X145351415Y-99629352D01*
X145353712Y-99628685D01*
X145356095Y-99628451D01*
X145396367Y-99616292D01*
X145436727Y-99604566D01*
X145438851Y-99603465D01*
X145441143Y-99602773D01*
X145478270Y-99583033D01*
X145515600Y-99563683D01*
X145517471Y-99562190D01*
X145519584Y-99561066D01*
X145552149Y-99534506D01*
X145585030Y-99508258D01*
X145588362Y-99504972D01*
X145588429Y-99504917D01*
X145588480Y-99504855D01*
X145589555Y-99503795D01*
X146162841Y-98930509D01*
X146260542Y-98973194D01*
X146472227Y-99019736D01*
X146688920Y-99024275D01*
X146902368Y-98986638D01*
X147104441Y-98908259D01*
X147287442Y-98792124D01*
X147368236Y-98715184D01*
X148380892Y-98715184D01*
X148451798Y-98911882D01*
X148659186Y-99027752D01*
X148885193Y-99100937D01*
X149121136Y-99128624D01*
X149357946Y-99109748D01*
X149586524Y-99045037D01*
X149798084Y-98936975D01*
X149835642Y-98911882D01*
X149906548Y-98715184D01*
X149143720Y-97952355D01*
X148380892Y-98715184D01*
X147368236Y-98715184D01*
X147444399Y-98642655D01*
X147569336Y-98465546D01*
X147657492Y-98267543D01*
X147705511Y-98056189D01*
X147707770Y-97894416D01*
X147932096Y-97894416D01*
X147950972Y-98131226D01*
X148015683Y-98359804D01*
X148123745Y-98571364D01*
X148148838Y-98608922D01*
X148345536Y-98679828D01*
X149108365Y-97917000D01*
X149179075Y-97917000D01*
X149941904Y-98679828D01*
X150138602Y-98608922D01*
X150185134Y-98525636D01*
X154928424Y-98525636D01*
X154962240Y-98709883D01*
X155031199Y-98884053D01*
X155132674Y-99041511D01*
X155262800Y-99176261D01*
X155416622Y-99283170D01*
X155588279Y-99358165D01*
X155771233Y-99398390D01*
X155958517Y-99402313D01*
X156142995Y-99369785D01*
X156317642Y-99302044D01*
X156475805Y-99201670D01*
X156611461Y-99072487D01*
X156719440Y-98919416D01*
X156795632Y-98748287D01*
X156837134Y-98565618D01*
X156837692Y-98525636D01*
X162548424Y-98525636D01*
X162582240Y-98709883D01*
X162651199Y-98884053D01*
X162752674Y-99041511D01*
X162882800Y-99176261D01*
X163036622Y-99283170D01*
X163208279Y-99358165D01*
X163391233Y-99398390D01*
X163578517Y-99402313D01*
X163762995Y-99369785D01*
X163937642Y-99302044D01*
X164095805Y-99201670D01*
X164231461Y-99072487D01*
X164339440Y-98919416D01*
X164347853Y-98900520D01*
X165368650Y-98900520D01*
X166346443Y-99878313D01*
X166346443Y-101266360D01*
X166350636Y-101318943D01*
X166378256Y-101408129D01*
X166429628Y-101486090D01*
X166500686Y-101546653D01*
X166585804Y-101585021D01*
X166678240Y-101598157D01*
X168378240Y-101598157D01*
X168430823Y-101593964D01*
X168520009Y-101566344D01*
X168597970Y-101514972D01*
X168658533Y-101443914D01*
X168696901Y-101358796D01*
X168710037Y-101266360D01*
X168710037Y-99566360D01*
X168705844Y-99513777D01*
X168678224Y-99424591D01*
X168626852Y-99346630D01*
X168555794Y-99286067D01*
X168470676Y-99247699D01*
X168378240Y-99234563D01*
X166990193Y-99234563D01*
X165879075Y-98123445D01*
X165846600Y-98096770D01*
X165814373Y-98069728D01*
X165812274Y-98068574D01*
X165810426Y-98067056D01*
X165773372Y-98047188D01*
X165736522Y-98026930D01*
X165734241Y-98026206D01*
X165732131Y-98025075D01*
X165691892Y-98012772D01*
X165651841Y-98000067D01*
X165649465Y-97999800D01*
X165647174Y-97999100D01*
X165605345Y-97994852D01*
X165563556Y-97990164D01*
X165558875Y-97990132D01*
X165558790Y-97990123D01*
X165558711Y-97990130D01*
X165557200Y-97990120D01*
X164349303Y-97990120D01*
X164248689Y-97838684D01*
X164116694Y-97705764D01*
X163961395Y-97601014D01*
X163788707Y-97528423D01*
X163605209Y-97490756D01*
X163417889Y-97489448D01*
X163233882Y-97524549D01*
X163060198Y-97594722D01*
X162903452Y-97697294D01*
X162769614Y-97828358D01*
X162663782Y-97982922D01*
X162589987Y-98155099D01*
X162551040Y-98338330D01*
X162548424Y-98525636D01*
X156837692Y-98525636D01*
X156840121Y-98351658D01*
X156803736Y-98167901D01*
X156732353Y-97994711D01*
X156628689Y-97838684D01*
X156496694Y-97705764D01*
X156341395Y-97601014D01*
X156168707Y-97528423D01*
X155985209Y-97490756D01*
X155797889Y-97489448D01*
X155613882Y-97524549D01*
X155440198Y-97594722D01*
X155283452Y-97697294D01*
X155149614Y-97828358D01*
X155043782Y-97982922D01*
X154969987Y-98155099D01*
X154931040Y-98338330D01*
X154928424Y-98525636D01*
X150185134Y-98525636D01*
X150254472Y-98401534D01*
X150327657Y-98175527D01*
X150355344Y-97939584D01*
X150336468Y-97702774D01*
X150271757Y-97474196D01*
X150163695Y-97262636D01*
X150138602Y-97225078D01*
X149941904Y-97154172D01*
X149179075Y-97917000D01*
X149108365Y-97917000D01*
X148345536Y-97154172D01*
X148148838Y-97225078D01*
X148032968Y-97432466D01*
X147959783Y-97658473D01*
X147932096Y-97894416D01*
X147707770Y-97894416D01*
X147708968Y-97808630D01*
X147666869Y-97596016D01*
X147584276Y-97395629D01*
X147464333Y-97215101D01*
X147368718Y-97118816D01*
X148380892Y-97118816D01*
X149143720Y-97881645D01*
X149906548Y-97118816D01*
X149835642Y-96922118D01*
X149628254Y-96806248D01*
X149402247Y-96733063D01*
X149166304Y-96705376D01*
X148929494Y-96724252D01*
X148700916Y-96788963D01*
X148489356Y-96897025D01*
X148451798Y-96922118D01*
X148380892Y-97118816D01*
X147368718Y-97118816D01*
X147311610Y-97061308D01*
X147131924Y-96940108D01*
X146932118Y-96856118D01*
X146719804Y-96812536D01*
X146503068Y-96811023D01*
X146290166Y-96851636D01*
X146089208Y-96932828D01*
X145907846Y-97051508D01*
X145752991Y-97203154D01*
X145630539Y-97381989D01*
X145545156Y-97581204D01*
X145500093Y-97793208D01*
X145497067Y-98009928D01*
X145536193Y-98223109D01*
X145549395Y-98256455D01*
X145079130Y-98726720D01*
X144816123Y-98726720D01*
X144904399Y-98642655D01*
X145029336Y-98465546D01*
X145117492Y-98267543D01*
X145165511Y-98056189D01*
X145168968Y-97808630D01*
X145126869Y-97596016D01*
X145044276Y-97395629D01*
X144924333Y-97215101D01*
X144771610Y-97061308D01*
X144591924Y-96940108D01*
X144392118Y-96856118D01*
X144179804Y-96812536D01*
X143963068Y-96811023D01*
X143750166Y-96851636D01*
X143549208Y-96932828D01*
X143367846Y-97051508D01*
X143212991Y-97203154D01*
X143090539Y-97381989D01*
X143005156Y-97581204D01*
X142960093Y-97793208D01*
X142957067Y-98009928D01*
X142996193Y-98223109D01*
X143075980Y-98424629D01*
X143193391Y-98606814D01*
X143309855Y-98727417D01*
X143275100Y-98730824D01*
X143233225Y-98734488D01*
X143230928Y-98735155D01*
X143228545Y-98735389D01*
X143188273Y-98747548D01*
X143147913Y-98759274D01*
X143145789Y-98760375D01*
X143143497Y-98761067D01*
X143106331Y-98780828D01*
X143069040Y-98800158D01*
X143067173Y-98801648D01*
X143065056Y-98802774D01*
X143032463Y-98829356D01*
X142999610Y-98855582D01*
X142996278Y-98858868D01*
X142996211Y-98858923D01*
X142996160Y-98858985D01*
X142995085Y-98860045D01*
X142934125Y-98921005D01*
X142931161Y-98924613D01*
X142903090Y-98947022D01*
X142899758Y-98950308D01*
X142899691Y-98950363D01*
X142899640Y-98950425D01*
X142898565Y-98951485D01*
X142004485Y-99845565D01*
X141977810Y-99878040D01*
X141950768Y-99910267D01*
X141949614Y-99912366D01*
X141948096Y-99914214D01*
X141928228Y-99951268D01*
X141907970Y-99988118D01*
X141907246Y-99990399D01*
X141906115Y-99992509D01*
X141893812Y-100032748D01*
X141881107Y-100072799D01*
X141880840Y-100075175D01*
X141880140Y-100077466D01*
X141875892Y-100119295D01*
X141871204Y-100161084D01*
X141871172Y-100165765D01*
X141871163Y-100165850D01*
X141871170Y-100165929D01*
X141871160Y-100167440D01*
X141871160Y-101416530D01*
X140713976Y-102573714D01*
X140713988Y-102571954D01*
X140713997Y-102571869D01*
X140713990Y-102571790D01*
X140714000Y-102570280D01*
X140714000Y-98907600D01*
X140709895Y-98865736D01*
X140706232Y-98823865D01*
X140705565Y-98821568D01*
X140705331Y-98819185D01*
X140693172Y-98778913D01*
X140681446Y-98738553D01*
X140680345Y-98736429D01*
X140679653Y-98734137D01*
X140659913Y-98697010D01*
X140640563Y-98659680D01*
X140639070Y-98657809D01*
X140637946Y-98655696D01*
X140611386Y-98623131D01*
X140585138Y-98590250D01*
X140581852Y-98586918D01*
X140581797Y-98586851D01*
X140581735Y-98586800D01*
X140580675Y-98585725D01*
X139813027Y-97818077D01*
X139836947Y-97740801D01*
X139852829Y-97589695D01*
X139839058Y-97438382D01*
X139796160Y-97292625D01*
X139725767Y-97157977D01*
X139630562Y-97039565D01*
X139514170Y-96941901D01*
X139381026Y-96868704D01*
X139236199Y-96822762D01*
X139085208Y-96805826D01*
X139074338Y-96805750D01*
X138862622Y-96805750D01*
X138711409Y-96820577D01*
X138565955Y-96864492D01*
X138431801Y-96935822D01*
X138314057Y-97031852D01*
X138233640Y-97129060D01*
X137975317Y-97129060D01*
X137903362Y-97039565D01*
X137786970Y-96941901D01*
X137653826Y-96868704D01*
X137508999Y-96822762D01*
X137358008Y-96805826D01*
X137347138Y-96805750D01*
X137135422Y-96805750D01*
X136984209Y-96820577D01*
X136838755Y-96864492D01*
X136704601Y-96935822D01*
X136586857Y-97031852D01*
X136506440Y-97129060D01*
X136243931Y-97129060D01*
X136196482Y-97070045D01*
X136080090Y-96972381D01*
X135946946Y-96899184D01*
X135802119Y-96853242D01*
X135651128Y-96836306D01*
X135640258Y-96836230D01*
X135428542Y-96836230D01*
X135277329Y-96851057D01*
X135131875Y-96894972D01*
X134997721Y-96966302D01*
X134879977Y-97062332D01*
X134799560Y-97159540D01*
X134566637Y-97159540D01*
X134494682Y-97070045D01*
X134378290Y-96972381D01*
X134245146Y-96899184D01*
X134100319Y-96853242D01*
X133949328Y-96836306D01*
X133938458Y-96836230D01*
X133726742Y-96836230D01*
X133575529Y-96851057D01*
X133430075Y-96894972D01*
X133295921Y-96966302D01*
X133178177Y-97062332D01*
X133097760Y-97159540D01*
X132788637Y-97159540D01*
X132716682Y-97070045D01*
X132600290Y-96972381D01*
X132467146Y-96899184D01*
X132322319Y-96853242D01*
X132171328Y-96836306D01*
X132160458Y-96836230D01*
X131948742Y-96836230D01*
X131797529Y-96851057D01*
X131652075Y-96894972D01*
X131517921Y-96966302D01*
X131400177Y-97062332D01*
X131315557Y-97164620D01*
X131081757Y-97164620D01*
X131009802Y-97075125D01*
X130893410Y-96977461D01*
X130760266Y-96904264D01*
X130615439Y-96858322D01*
X130464448Y-96841386D01*
X130453578Y-96841310D01*
X130241862Y-96841310D01*
X130090649Y-96856137D01*
X129945195Y-96900052D01*
X129811041Y-96971382D01*
X129693297Y-97067412D01*
X129596448Y-97184483D01*
X129524182Y-97318135D01*
X129479253Y-97463279D01*
X129463371Y-97614385D01*
X129477142Y-97765698D01*
X129520040Y-97911455D01*
X129590433Y-98046103D01*
X129685638Y-98164515D01*
X129802030Y-98262179D01*
X129935174Y-98335376D01*
X130080001Y-98381318D01*
X130230992Y-98398254D01*
X130241862Y-98398330D01*
X130453578Y-98398330D01*
X130604791Y-98383503D01*
X130750245Y-98339588D01*
X130884399Y-98268258D01*
X131002143Y-98172228D01*
X131082560Y-98075020D01*
X131324647Y-98075020D01*
X131392518Y-98159435D01*
X131508910Y-98257099D01*
X131642054Y-98330296D01*
X131786881Y-98376238D01*
X131937872Y-98393174D01*
X131948742Y-98393250D01*
X132160458Y-98393250D01*
X132311671Y-98378423D01*
X132457125Y-98334508D01*
X132591279Y-98263178D01*
X132709023Y-98167148D01*
X132789440Y-98069940D01*
X133098563Y-98069940D01*
X133170518Y-98159435D01*
X133286910Y-98257099D01*
X133420054Y-98330296D01*
X133564881Y-98376238D01*
X133715872Y-98393174D01*
X133726742Y-98393250D01*
X133938458Y-98393250D01*
X134089671Y-98378423D01*
X134235125Y-98334508D01*
X134369279Y-98263178D01*
X134487023Y-98167148D01*
X134567440Y-98069940D01*
X134800363Y-98069940D01*
X134872318Y-98159435D01*
X134988710Y-98257099D01*
X135121854Y-98330296D01*
X135266681Y-98376238D01*
X135417672Y-98393174D01*
X135428542Y-98393250D01*
X135640258Y-98393250D01*
X135791471Y-98378423D01*
X135936925Y-98334508D01*
X136071079Y-98263178D01*
X136188823Y-98167148D01*
X136285672Y-98050077D01*
X136291413Y-98039460D01*
X136507243Y-98039460D01*
X136579198Y-98128955D01*
X136695590Y-98226619D01*
X136828734Y-98299816D01*
X136973561Y-98345758D01*
X137124552Y-98362694D01*
X137135422Y-98362770D01*
X137347138Y-98362770D01*
X137498351Y-98347943D01*
X137643805Y-98304028D01*
X137777959Y-98232698D01*
X137895703Y-98136668D01*
X137976120Y-98039460D01*
X138234443Y-98039460D01*
X138306398Y-98128955D01*
X138422790Y-98226619D01*
X138555934Y-98299816D01*
X138700761Y-98345758D01*
X138851752Y-98362694D01*
X138862622Y-98362770D01*
X139070220Y-98362770D01*
X139337949Y-98630499D01*
X139236199Y-98598222D01*
X139085208Y-98581286D01*
X139074338Y-98581210D01*
X138862622Y-98581210D01*
X138711409Y-98596037D01*
X138565955Y-98639952D01*
X138431801Y-98711282D01*
X138314057Y-98807312D01*
X138217208Y-98924383D01*
X138144942Y-99058035D01*
X138104476Y-99188760D01*
X138068960Y-99068085D01*
X137998567Y-98933437D01*
X137903362Y-98815025D01*
X137786970Y-98717361D01*
X137653826Y-98644164D01*
X137508999Y-98598222D01*
X137358008Y-98581286D01*
X137347138Y-98581210D01*
X137135422Y-98581210D01*
X136984209Y-98596037D01*
X136838755Y-98639952D01*
X136704601Y-98711282D01*
X136586857Y-98807312D01*
X136490008Y-98924383D01*
X136417742Y-99058035D01*
X136410138Y-99082600D01*
X136391462Y-99105175D01*
X136373696Y-99138033D01*
X136362080Y-99098565D01*
X136291687Y-98963917D01*
X136196482Y-98845505D01*
X136080090Y-98747841D01*
X135946946Y-98674644D01*
X135802119Y-98628702D01*
X135651128Y-98611766D01*
X135640258Y-98611690D01*
X135428542Y-98611690D01*
X135277329Y-98626517D01*
X135131875Y-98670432D01*
X134997721Y-98741762D01*
X134879977Y-98837792D01*
X134783128Y-98954863D01*
X134710862Y-99088515D01*
X134683417Y-99177178D01*
X134660280Y-99098565D01*
X134589887Y-98963917D01*
X134494682Y-98845505D01*
X134378290Y-98747841D01*
X134245146Y-98674644D01*
X134100319Y-98628702D01*
X133949328Y-98611766D01*
X133938458Y-98611690D01*
X133726742Y-98611690D01*
X133575529Y-98626517D01*
X133430075Y-98670432D01*
X133295921Y-98741762D01*
X133178177Y-98837792D01*
X133081328Y-98954863D01*
X133009062Y-99088515D01*
X132964133Y-99233659D01*
X132948251Y-99384765D01*
X132962022Y-99536078D01*
X133004920Y-99681835D01*
X133075313Y-99816483D01*
X133117053Y-99868397D01*
X131671765Y-101313685D01*
X131645090Y-101346160D01*
X131618048Y-101378387D01*
X131616894Y-101380486D01*
X131615376Y-101382334D01*
X131595508Y-101419388D01*
X131575250Y-101456238D01*
X131574526Y-101458519D01*
X131573395Y-101460629D01*
X131561092Y-101500868D01*
X131548387Y-101540919D01*
X131548120Y-101543295D01*
X131547420Y-101545586D01*
X131543172Y-101587415D01*
X131538484Y-101629204D01*
X131538452Y-101633885D01*
X131538443Y-101633970D01*
X131538450Y-101634049D01*
X131538440Y-101635560D01*
X131538440Y-101998384D01*
X131484440Y-102077250D01*
X131435753Y-102190845D01*
X131410057Y-102311732D01*
X131408332Y-102435309D01*
X131430642Y-102556867D01*
X131476138Y-102671777D01*
X131543087Y-102775661D01*
X131628939Y-102864563D01*
X131730423Y-102935097D01*
X131843675Y-102984576D01*
X131964381Y-103011114D01*
X132087942Y-103013703D01*
X132209653Y-102992242D01*
X132324878Y-102947549D01*
X132429227Y-102881327D01*
X132518726Y-102796098D01*
X132571089Y-102721869D01*
X132650019Y-102803603D01*
X132751503Y-102874137D01*
X132864755Y-102923616D01*
X132985461Y-102950154D01*
X133109022Y-102952743D01*
X133230733Y-102931282D01*
X133238769Y-102928165D01*
X133237040Y-102930690D01*
X133188353Y-103044285D01*
X133162657Y-103165172D01*
X133160932Y-103288749D01*
X133183242Y-103410307D01*
X133228738Y-103525217D01*
X133295687Y-103629101D01*
X133381539Y-103718003D01*
X133483023Y-103788537D01*
X133596275Y-103838016D01*
X133716981Y-103864554D01*
X133840542Y-103867143D01*
X133962253Y-103845682D01*
X134037800Y-103816379D01*
X134037800Y-103829239D01*
X133956321Y-103872562D01*
X133838577Y-103968592D01*
X133758160Y-104065800D01*
X132814376Y-104065800D01*
X132741919Y-103975682D01*
X132625394Y-103877907D01*
X132492097Y-103804626D01*
X132347105Y-103758632D01*
X132195941Y-103741676D01*
X132185059Y-103741600D01*
X131974941Y-103741600D01*
X131823555Y-103756444D01*
X131677935Y-103800409D01*
X131543628Y-103871821D01*
X131425749Y-103967961D01*
X131344809Y-104065800D01*
X131307604Y-104065800D01*
X131331576Y-103960287D01*
X131333547Y-103819126D01*
X131309542Y-103697891D01*
X131262446Y-103583628D01*
X131194053Y-103480688D01*
X131106968Y-103392993D01*
X131004509Y-103323883D01*
X130890577Y-103275991D01*
X130769513Y-103251140D01*
X130716923Y-103250773D01*
X129739955Y-102273805D01*
X129707480Y-102247130D01*
X129675253Y-102220088D01*
X129673154Y-102218934D01*
X129671306Y-102217416D01*
X129634252Y-102197548D01*
X129597402Y-102177290D01*
X129595121Y-102176566D01*
X129593011Y-102175435D01*
X129552772Y-102163132D01*
X129512721Y-102150427D01*
X129510345Y-102150160D01*
X129508054Y-102149460D01*
X129466225Y-102145212D01*
X129424436Y-102140524D01*
X129419755Y-102140492D01*
X129419670Y-102140483D01*
X129419591Y-102140490D01*
X129418080Y-102140480D01*
X128289587Y-102140480D01*
X128257088Y-102107753D01*
X128154629Y-102038643D01*
X128040697Y-101990751D01*
X127919633Y-101965900D01*
X127796047Y-101965037D01*
X127674648Y-101988195D01*
X127560058Y-102034492D01*
X127456644Y-102102165D01*
X127368343Y-102188635D01*
X127316300Y-102264643D01*
X127316300Y-100667469D01*
X128035212Y-100667469D01*
X128057522Y-100789027D01*
X128103018Y-100903937D01*
X128169967Y-101007821D01*
X128255819Y-101096723D01*
X128357303Y-101167257D01*
X128470555Y-101216736D01*
X128591261Y-101243274D01*
X128714822Y-101245863D01*
X128836533Y-101224402D01*
X128951758Y-101179709D01*
X129056107Y-101113487D01*
X129141842Y-101031843D01*
X129165647Y-101068781D01*
X129251499Y-101157683D01*
X129352983Y-101228217D01*
X129466235Y-101277696D01*
X129586941Y-101304234D01*
X129710502Y-101306823D01*
X129832213Y-101285362D01*
X129947438Y-101240669D01*
X130051787Y-101174447D01*
X130097789Y-101130640D01*
X130225460Y-101130640D01*
X130258159Y-101141013D01*
X130258951Y-101141102D01*
X130259714Y-101141341D01*
X130303074Y-101146051D01*
X130346444Y-101150916D01*
X130347954Y-101150926D01*
X130348033Y-101150935D01*
X130348118Y-101150928D01*
X130352800Y-101150960D01*
X130769360Y-101150960D01*
X130811224Y-101146855D01*
X130853095Y-101143192D01*
X130855392Y-101142525D01*
X130857775Y-101142291D01*
X130898047Y-101130132D01*
X130938407Y-101118406D01*
X130940531Y-101117305D01*
X130942823Y-101116613D01*
X130979950Y-101096873D01*
X131017280Y-101077523D01*
X131019151Y-101076030D01*
X131021264Y-101074906D01*
X131053829Y-101048346D01*
X131086710Y-101022098D01*
X131090042Y-101018812D01*
X131090109Y-101018757D01*
X131090160Y-101018695D01*
X131091235Y-101017635D01*
X131940220Y-100168650D01*
X131948742Y-100168710D01*
X132160458Y-100168710D01*
X132311671Y-100153883D01*
X132457125Y-100109968D01*
X132591279Y-100038638D01*
X132709023Y-99942608D01*
X132805872Y-99825537D01*
X132878138Y-99691885D01*
X132923067Y-99546741D01*
X132938949Y-99395635D01*
X132925178Y-99244322D01*
X132882280Y-99098565D01*
X132811887Y-98963917D01*
X132716682Y-98845505D01*
X132600290Y-98747841D01*
X132467146Y-98674644D01*
X132322319Y-98628702D01*
X132171328Y-98611766D01*
X132160458Y-98611690D01*
X131948742Y-98611690D01*
X131797529Y-98626517D01*
X131652075Y-98670432D01*
X131517921Y-98741762D01*
X131400177Y-98837792D01*
X131303328Y-98954863D01*
X131231062Y-99088515D01*
X131200246Y-99188066D01*
X131175400Y-99103645D01*
X131105007Y-98968997D01*
X131009802Y-98850585D01*
X130893410Y-98752921D01*
X130760266Y-98679724D01*
X130615439Y-98633782D01*
X130464448Y-98616846D01*
X130453578Y-98616770D01*
X130241862Y-98616770D01*
X130090649Y-98631597D01*
X129945195Y-98675512D01*
X129811041Y-98746842D01*
X129693297Y-98842872D01*
X129596448Y-98959943D01*
X129524182Y-99093595D01*
X129515577Y-99121393D01*
X128652826Y-99984144D01*
X128608847Y-99983837D01*
X128487448Y-100006995D01*
X128372858Y-100053292D01*
X128269444Y-100120965D01*
X128181143Y-100207435D01*
X128111320Y-100309410D01*
X128062633Y-100423005D01*
X128036937Y-100543892D01*
X128035212Y-100667469D01*
X127316300Y-100667469D01*
X127316300Y-96518800D01*
X169685900Y-96518800D01*
X169685900Y-113391458D01*
M02*
