G04 #@! TF.FileFunction,Legend,Bot*
%FSLAX46Y46*%
G04 Gerber Fmt 4.6, Leading zero omitted, Abs format (unit mm)*
G04 Created by KiCad (PCBNEW 4.0.2+dfsg1-stable) date 2017年12月22日 星期五 14时14分46秒*
%MOMM*%
G01*
G04 APERTURE LIST*
%ADD10C,0.100000*%
%ADD11C,0.127000*%
%ADD12C,0.066040*%
%ADD13C,0.046329*%
%ADD14C,0.061772*%
%ADD15C,0.101600*%
G04 APERTURE END LIST*
D10*
D11*
X148005800Y-105943400D02*
X148005800Y-104876600D01*
X146380200Y-105943400D02*
X146380200Y-104876600D01*
X148158200Y-107619800D02*
X146227800Y-107619800D01*
D12*
X135234680Y-98699320D02*
X135234680Y-98303080D01*
X135234680Y-98303080D02*
X135834120Y-98303080D01*
X135834120Y-98699320D02*
X135834120Y-98303080D01*
X135234680Y-98699320D02*
X135834120Y-98699320D01*
X133532880Y-98699320D02*
X133532880Y-98303080D01*
X133532880Y-98303080D02*
X134132320Y-98303080D01*
X134132320Y-98699320D02*
X134132320Y-98303080D01*
X133532880Y-98699320D02*
X134132320Y-98699320D01*
X131754880Y-98699320D02*
X131754880Y-98303080D01*
X131754880Y-98303080D02*
X132354320Y-98303080D01*
X132354320Y-98699320D02*
X132354320Y-98303080D01*
X131754880Y-98699320D02*
X132354320Y-98699320D01*
X130048000Y-98704400D02*
X130048000Y-98308160D01*
X130048000Y-98308160D02*
X130647440Y-98308160D01*
X130647440Y-98704400D02*
X130647440Y-98308160D01*
X130048000Y-98704400D02*
X130647440Y-98704400D01*
X134792720Y-105211880D02*
X134792720Y-105608120D01*
X134792720Y-105608120D02*
X134193280Y-105608120D01*
X134193280Y-105211880D02*
X134193280Y-105608120D01*
X134792720Y-105211880D02*
X134193280Y-105211880D01*
X138668760Y-98668840D02*
X138668760Y-98272600D01*
X138668760Y-98272600D02*
X139268200Y-98272600D01*
X139268200Y-98668840D02*
X139268200Y-98272600D01*
X138668760Y-98668840D02*
X139268200Y-98668840D01*
X136941560Y-98668840D02*
X136941560Y-98272600D01*
X136941560Y-98272600D02*
X137541000Y-98272600D01*
X137541000Y-98668840D02*
X137541000Y-98272600D01*
X136941560Y-98668840D02*
X137541000Y-98668840D01*
D13*
X147191549Y-102282171D02*
X147219126Y-102254594D01*
X147246703Y-102171863D01*
X147246703Y-102116709D01*
X147219126Y-102033977D01*
X147163971Y-101978823D01*
X147108817Y-101951246D01*
X146998509Y-101923669D01*
X146915777Y-101923669D01*
X146805469Y-101951246D01*
X146750314Y-101978823D01*
X146695160Y-102033977D01*
X146667583Y-102116709D01*
X146667583Y-102171863D01*
X146695160Y-102254594D01*
X146722737Y-102282171D01*
X146667583Y-102806137D02*
X146667583Y-102530366D01*
X146943354Y-102502789D01*
X146915777Y-102530366D01*
X146888200Y-102585520D01*
X146888200Y-102723406D01*
X146915777Y-102778560D01*
X146943354Y-102806137D01*
X146998509Y-102833714D01*
X147136394Y-102833714D01*
X147191549Y-102806137D01*
X147219126Y-102778560D01*
X147246703Y-102723406D01*
X147246703Y-102585520D01*
X147219126Y-102530366D01*
X147191549Y-102502789D01*
X145707463Y-103413559D02*
X146093543Y-103413559D01*
X145486846Y-103275673D02*
X145900503Y-103137788D01*
X145900503Y-103496290D01*
X146065966Y-103744485D02*
X146093543Y-103744485D01*
X146148697Y-103716908D01*
X146176274Y-103689331D01*
X145514423Y-103937524D02*
X145514423Y-104323604D01*
X146093543Y-104075410D01*
X145707463Y-104792416D02*
X146093543Y-104792416D01*
X145707463Y-104544222D02*
X146010811Y-104544222D01*
X146065966Y-104571799D01*
X146093543Y-104626953D01*
X146093543Y-104709685D01*
X146065966Y-104764839D01*
X146038389Y-104792416D01*
X145790194Y-105261228D02*
X145790194Y-105068188D01*
X146093543Y-105068188D02*
X145514423Y-105068188D01*
X145514423Y-105343959D01*
X146148697Y-105426691D02*
X146148697Y-105867925D01*
X146093543Y-106309159D02*
X146093543Y-105978234D01*
X146093543Y-106143696D02*
X145514423Y-106143696D01*
X145597154Y-106088542D01*
X145652309Y-106033388D01*
X145679886Y-105978234D01*
X145514423Y-106805548D02*
X145514423Y-106695239D01*
X145542000Y-106640085D01*
X145569577Y-106612508D01*
X145652309Y-106557354D01*
X145762617Y-106529777D01*
X145983234Y-106529777D01*
X146038389Y-106557354D01*
X146065966Y-106584931D01*
X146093543Y-106640085D01*
X146093543Y-106750394D01*
X146065966Y-106805548D01*
X146038389Y-106833125D01*
X145983234Y-106860702D01*
X145845349Y-106860702D01*
X145790194Y-106833125D01*
X145762617Y-106805548D01*
X145735040Y-106750394D01*
X145735040Y-106640085D01*
X145762617Y-106584931D01*
X145790194Y-106557354D01*
X145845349Y-106529777D01*
X145514423Y-107026165D02*
X146093543Y-107219205D01*
X145514423Y-107412245D01*
D14*
X130992571Y-104290762D02*
X131016381Y-104266952D01*
X131040190Y-104195524D01*
X131040190Y-104147905D01*
X131016381Y-104076476D01*
X130968762Y-104028857D01*
X130921143Y-104005048D01*
X130825905Y-103981238D01*
X130754476Y-103981238D01*
X130659238Y-104005048D01*
X130611619Y-104028857D01*
X130564000Y-104076476D01*
X130540190Y-104147905D01*
X130540190Y-104195524D01*
X130564000Y-104266952D01*
X130587810Y-104290762D01*
X130754476Y-104576476D02*
X130730667Y-104528857D01*
X130706857Y-104505048D01*
X130659238Y-104481238D01*
X130635429Y-104481238D01*
X130587810Y-104505048D01*
X130564000Y-104528857D01*
X130540190Y-104576476D01*
X130540190Y-104671714D01*
X130564000Y-104719333D01*
X130587810Y-104743143D01*
X130635429Y-104766952D01*
X130659238Y-104766952D01*
X130706857Y-104743143D01*
X130730667Y-104719333D01*
X130754476Y-104671714D01*
X130754476Y-104576476D01*
X130778286Y-104528857D01*
X130802095Y-104505048D01*
X130849714Y-104481238D01*
X130944952Y-104481238D01*
X130992571Y-104505048D01*
X131016381Y-104528857D01*
X131040190Y-104576476D01*
X131040190Y-104671714D01*
X131016381Y-104719333D01*
X130992571Y-104743143D01*
X130944952Y-104766952D01*
X130849714Y-104766952D01*
X130802095Y-104743143D01*
X130778286Y-104719333D01*
X130754476Y-104671714D01*
X131040190Y-105536952D02*
X131040190Y-105251238D01*
X131040190Y-105394095D02*
X130540190Y-105394095D01*
X130611619Y-105346476D01*
X130659238Y-105298857D01*
X130683048Y-105251238D01*
X130706857Y-105965523D02*
X131040190Y-105965523D01*
X130706857Y-105751238D02*
X130968762Y-105751238D01*
X131016381Y-105775047D01*
X131040190Y-105822666D01*
X131040190Y-105894095D01*
X131016381Y-105941714D01*
X130992571Y-105965523D01*
X130778286Y-106370285D02*
X130778286Y-106203619D01*
X131040190Y-106203619D02*
X130540190Y-106203619D01*
X130540190Y-106441714D01*
D15*
X135382510Y-100207974D02*
X135739653Y-100207974D01*
X135811082Y-100184164D01*
X135858701Y-100136545D01*
X135882510Y-100065117D01*
X135882510Y-100017498D01*
X135882510Y-100446069D02*
X135382510Y-100446069D01*
X135382510Y-100636545D01*
X135406320Y-100684164D01*
X135430130Y-100707973D01*
X135477749Y-100731783D01*
X135549177Y-100731783D01*
X135596796Y-100707973D01*
X135620606Y-100684164D01*
X135644415Y-100636545D01*
X135644415Y-100446069D01*
X135382510Y-100898450D02*
X135382510Y-101207973D01*
X135572987Y-101041307D01*
X135572987Y-101112735D01*
X135596796Y-101160354D01*
X135620606Y-101184164D01*
X135668225Y-101207973D01*
X135787272Y-101207973D01*
X135834891Y-101184164D01*
X135858701Y-101160354D01*
X135882510Y-101112735D01*
X135882510Y-100969878D01*
X135858701Y-100922259D01*
X135834891Y-100898450D01*
X133574030Y-100147014D02*
X133931173Y-100147014D01*
X134002602Y-100123204D01*
X134050221Y-100075585D01*
X134074030Y-100004157D01*
X134074030Y-99956538D01*
X134074030Y-100385109D02*
X133574030Y-100385109D01*
X133574030Y-100575585D01*
X133597840Y-100623204D01*
X133621650Y-100647013D01*
X133669269Y-100670823D01*
X133740697Y-100670823D01*
X133788316Y-100647013D01*
X133812126Y-100623204D01*
X133835935Y-100575585D01*
X133835935Y-100385109D01*
X133740697Y-101099394D02*
X134074030Y-101099394D01*
X133550221Y-100980347D02*
X133907364Y-100861299D01*
X133907364Y-101170823D01*
X131887470Y-100207974D02*
X132244613Y-100207974D01*
X132316042Y-100184164D01*
X132363661Y-100136545D01*
X132387470Y-100065117D01*
X132387470Y-100017498D01*
X132387470Y-100446069D02*
X131887470Y-100446069D01*
X131887470Y-100636545D01*
X131911280Y-100684164D01*
X131935090Y-100707973D01*
X131982709Y-100731783D01*
X132054137Y-100731783D01*
X132101756Y-100707973D01*
X132125566Y-100684164D01*
X132149375Y-100636545D01*
X132149375Y-100446069D01*
X131887470Y-101184164D02*
X131887470Y-100946069D01*
X132125566Y-100922259D01*
X132101756Y-100946069D01*
X132077947Y-100993688D01*
X132077947Y-101112735D01*
X132101756Y-101160354D01*
X132125566Y-101184164D01*
X132173185Y-101207973D01*
X132292232Y-101207973D01*
X132339851Y-101184164D01*
X132363661Y-101160354D01*
X132387470Y-101112735D01*
X132387470Y-100993688D01*
X132363661Y-100946069D01*
X132339851Y-100922259D01*
X130119630Y-100268934D02*
X130476773Y-100268934D01*
X130548202Y-100245124D01*
X130595821Y-100197505D01*
X130619630Y-100126077D01*
X130619630Y-100078458D01*
X130619630Y-100507029D02*
X130119630Y-100507029D01*
X130119630Y-100697505D01*
X130143440Y-100745124D01*
X130167250Y-100768933D01*
X130214869Y-100792743D01*
X130286297Y-100792743D01*
X130333916Y-100768933D01*
X130357726Y-100745124D01*
X130381535Y-100697505D01*
X130381535Y-100507029D01*
X130119630Y-101221314D02*
X130119630Y-101126076D01*
X130143440Y-101078457D01*
X130167250Y-101054648D01*
X130238678Y-101007029D01*
X130333916Y-100983219D01*
X130524392Y-100983219D01*
X130572011Y-101007029D01*
X130595821Y-101030838D01*
X130619630Y-101078457D01*
X130619630Y-101173695D01*
X130595821Y-101221314D01*
X130572011Y-101245124D01*
X130524392Y-101268933D01*
X130405345Y-101268933D01*
X130357726Y-101245124D01*
X130333916Y-101221314D01*
X130310107Y-101173695D01*
X130310107Y-101078457D01*
X130333916Y-101030838D01*
X130357726Y-101007029D01*
X130405345Y-100983219D01*
X135814571Y-104310667D02*
X135838381Y-104286857D01*
X135862190Y-104215429D01*
X135862190Y-104167810D01*
X135838381Y-104096381D01*
X135790762Y-104048762D01*
X135743143Y-104024953D01*
X135647905Y-104001143D01*
X135576476Y-104001143D01*
X135481238Y-104024953D01*
X135433619Y-104048762D01*
X135386000Y-104096381D01*
X135362190Y-104167810D01*
X135362190Y-104215429D01*
X135386000Y-104286857D01*
X135409810Y-104310667D01*
X135362190Y-104477334D02*
X135362190Y-104786857D01*
X135552667Y-104620191D01*
X135552667Y-104691619D01*
X135576476Y-104739238D01*
X135600286Y-104763048D01*
X135647905Y-104786857D01*
X135766952Y-104786857D01*
X135814571Y-104763048D01*
X135838381Y-104739238D01*
X135862190Y-104691619D01*
X135862190Y-104548762D01*
X135838381Y-104501143D01*
X135814571Y-104477334D01*
X135862190Y-105620381D02*
X135862190Y-105334667D01*
X135862190Y-105477524D02*
X135362190Y-105477524D01*
X135433619Y-105429905D01*
X135481238Y-105382286D01*
X135505048Y-105334667D01*
X135528857Y-106048952D02*
X135862190Y-106048952D01*
X135528857Y-105834667D02*
X135790762Y-105834667D01*
X135838381Y-105858476D01*
X135862190Y-105906095D01*
X135862190Y-105977524D01*
X135838381Y-106025143D01*
X135814571Y-106048952D01*
X135600286Y-106453714D02*
X135600286Y-106287048D01*
X135862190Y-106287048D02*
X135362190Y-106287048D01*
X135362190Y-106525143D01*
X138775950Y-100248614D02*
X139133093Y-100248614D01*
X139204522Y-100224804D01*
X139252141Y-100177185D01*
X139275950Y-100105757D01*
X139275950Y-100058138D01*
X139275950Y-100486709D02*
X138775950Y-100486709D01*
X138775950Y-100677185D01*
X138799760Y-100724804D01*
X138823570Y-100748613D01*
X138871189Y-100772423D01*
X138942617Y-100772423D01*
X138990236Y-100748613D01*
X139014046Y-100724804D01*
X139037855Y-100677185D01*
X139037855Y-100486709D01*
X139275950Y-101248613D02*
X139275950Y-100962899D01*
X139275950Y-101105756D02*
X138775950Y-101105756D01*
X138847379Y-101058137D01*
X138894998Y-101010518D01*
X138918808Y-100962899D01*
X137048750Y-100329894D02*
X137405893Y-100329894D01*
X137477322Y-100306084D01*
X137524941Y-100258465D01*
X137548750Y-100187037D01*
X137548750Y-100139418D01*
X137548750Y-100567989D02*
X137048750Y-100567989D01*
X137048750Y-100758465D01*
X137072560Y-100806084D01*
X137096370Y-100829893D01*
X137143989Y-100853703D01*
X137215417Y-100853703D01*
X137263036Y-100829893D01*
X137286846Y-100806084D01*
X137310655Y-100758465D01*
X137310655Y-100567989D01*
X137096370Y-101044179D02*
X137072560Y-101067989D01*
X137048750Y-101115608D01*
X137048750Y-101234655D01*
X137072560Y-101282274D01*
X137096370Y-101306084D01*
X137143989Y-101329893D01*
X137191608Y-101329893D01*
X137263036Y-101306084D01*
X137548750Y-101020370D01*
X137548750Y-101329893D01*
M02*
