G04 #@! TF.FileFunction,Other,Fab,Top*
%FSLAX46Y46*%
G04 Gerber Fmt 4.6, Leading zero omitted, Abs format (unit mm)*
G04 Created by KiCad (PCBNEW 4.0.2+dfsg1-stable) date 2017年12月22日 星期五 14时14分46秒*
%MOMM*%
G01*
G04 APERTURE LIST*
%ADD10C,0.100000*%
%ADD11C,0.125000*%
%ADD12C,0.150000*%
G04 APERTURE END LIST*
D10*
X166893240Y-99146360D02*
X168798240Y-99146360D01*
X168798240Y-99146360D02*
X168798240Y-104226360D01*
X168798240Y-104226360D02*
X166258240Y-104226360D01*
X166258240Y-104226360D02*
X166258240Y-99781360D01*
X166258240Y-99781360D02*
X166893240Y-99146360D01*
X166893240Y-105013760D02*
X168798240Y-105013760D01*
X168798240Y-105013760D02*
X168798240Y-110093760D01*
X168798240Y-110093760D02*
X166258240Y-110093760D01*
X166258240Y-110093760D02*
X166258240Y-105648760D01*
X166258240Y-105648760D02*
X166893240Y-105013760D01*
X152798000Y-112903000D02*
X151223000Y-112903000D01*
X151223000Y-112903000D02*
X151223000Y-109093000D01*
X151223000Y-109093000D02*
X153323000Y-109093000D01*
X153323000Y-109093000D02*
X153323000Y-112378000D01*
X153323000Y-112378000D02*
X152798000Y-112903000D01*
D11*
X166357680Y-97795590D02*
X166452918Y-97795590D01*
X166500537Y-97819400D01*
X166548156Y-97867019D01*
X166571965Y-97962257D01*
X166571965Y-98128924D01*
X166548156Y-98224162D01*
X166500537Y-98271781D01*
X166452918Y-98295590D01*
X166357680Y-98295590D01*
X166310061Y-98271781D01*
X166262442Y-98224162D01*
X166238632Y-98128924D01*
X166238632Y-97962257D01*
X166262442Y-97867019D01*
X166310061Y-97819400D01*
X166357680Y-97795590D01*
X166786252Y-97795590D02*
X166786252Y-98200352D01*
X166810061Y-98247971D01*
X166833871Y-98271781D01*
X166881490Y-98295590D01*
X166976728Y-98295590D01*
X167024347Y-98271781D01*
X167048156Y-98247971D01*
X167071966Y-98200352D01*
X167071966Y-97795590D01*
X167238633Y-97795590D02*
X167524347Y-97795590D01*
X167381490Y-98295590D02*
X167381490Y-97795590D01*
D12*
X167980621Y-102424455D02*
X166980621Y-102424455D01*
X166980621Y-102043502D01*
X167028240Y-101948264D01*
X167075859Y-101900645D01*
X167171097Y-101853026D01*
X167313954Y-101853026D01*
X167409192Y-101900645D01*
X167456811Y-101948264D01*
X167504430Y-102043502D01*
X167504430Y-102424455D01*
X167075859Y-101472074D02*
X167028240Y-101424455D01*
X166980621Y-101329217D01*
X166980621Y-101091121D01*
X167028240Y-100995883D01*
X167075859Y-100948264D01*
X167171097Y-100900645D01*
X167266335Y-100900645D01*
X167409192Y-100948264D01*
X167980621Y-101519693D01*
X167980621Y-100900645D01*
D11*
X145971486Y-112867950D02*
X146257200Y-112867950D01*
X146114343Y-113367950D02*
X146114343Y-112867950D01*
X146352438Y-112867950D02*
X146638152Y-112867950D01*
X146495295Y-113367950D02*
X146495295Y-112867950D01*
X147042914Y-113367950D02*
X146804819Y-113367950D01*
X146804819Y-112867950D01*
X166228675Y-111315630D02*
X166228675Y-110815630D01*
X166466770Y-111315630D02*
X166466770Y-110815630D01*
X166752484Y-111315630D01*
X166752484Y-110815630D01*
X166990580Y-111315630D02*
X166990580Y-110815630D01*
X167181056Y-110815630D01*
X167228675Y-110839440D01*
X167252484Y-110863250D01*
X167276294Y-110910869D01*
X167276294Y-110982297D01*
X167252484Y-111029916D01*
X167228675Y-111053726D01*
X167181056Y-111077535D01*
X166990580Y-111077535D01*
X167490580Y-110815630D02*
X167490580Y-111220392D01*
X167514389Y-111268011D01*
X167538199Y-111291821D01*
X167585818Y-111315630D01*
X167681056Y-111315630D01*
X167728675Y-111291821D01*
X167752484Y-111268011D01*
X167776294Y-111220392D01*
X167776294Y-110815630D01*
X167942961Y-110815630D02*
X168228675Y-110815630D01*
X168085818Y-111315630D02*
X168085818Y-110815630D01*
D12*
X167980621Y-108291855D02*
X166980621Y-108291855D01*
X166980621Y-107910902D01*
X167028240Y-107815664D01*
X167075859Y-107768045D01*
X167171097Y-107720426D01*
X167313954Y-107720426D01*
X167409192Y-107768045D01*
X167456811Y-107815664D01*
X167504430Y-107910902D01*
X167504430Y-108291855D01*
X166980621Y-107387093D02*
X166980621Y-106768045D01*
X167361573Y-107101379D01*
X167361573Y-106958521D01*
X167409192Y-106863283D01*
X167456811Y-106815664D01*
X167552050Y-106768045D01*
X167790145Y-106768045D01*
X167885383Y-106815664D01*
X167933002Y-106863283D01*
X167980621Y-106958521D01*
X167980621Y-107244236D01*
X167933002Y-107339474D01*
X167885383Y-107387093D01*
D11*
X153507286Y-112942571D02*
X153531095Y-112871142D01*
X153554905Y-112847333D01*
X153602524Y-112823523D01*
X153673952Y-112823523D01*
X153721571Y-112847333D01*
X153745381Y-112871142D01*
X153769190Y-112918761D01*
X153769190Y-113109237D01*
X153269190Y-113109237D01*
X153269190Y-112942571D01*
X153293000Y-112894952D01*
X153316810Y-112871142D01*
X153364429Y-112847333D01*
X153412048Y-112847333D01*
X153459667Y-112871142D01*
X153483476Y-112894952D01*
X153507286Y-112942571D01*
X153507286Y-113109237D01*
X153721571Y-112323523D02*
X153745381Y-112347333D01*
X153769190Y-112418761D01*
X153769190Y-112466380D01*
X153745381Y-112537809D01*
X153697762Y-112585428D01*
X153650143Y-112609237D01*
X153554905Y-112633047D01*
X153483476Y-112633047D01*
X153388238Y-112609237D01*
X153340619Y-112585428D01*
X153293000Y-112537809D01*
X153269190Y-112466380D01*
X153269190Y-112418761D01*
X153293000Y-112347333D01*
X153316810Y-112323523D01*
X153316810Y-112133047D02*
X153293000Y-112109237D01*
X153269190Y-112061618D01*
X153269190Y-111942571D01*
X153293000Y-111894952D01*
X153316810Y-111871142D01*
X153364429Y-111847333D01*
X153412048Y-111847333D01*
X153483476Y-111871142D01*
X153769190Y-112156856D01*
X153769190Y-111847333D01*
X153269190Y-111680666D02*
X153269190Y-111371143D01*
X153459667Y-111537809D01*
X153459667Y-111466381D01*
X153483476Y-111418762D01*
X153507286Y-111394952D01*
X153554905Y-111371143D01*
X153673952Y-111371143D01*
X153721571Y-111394952D01*
X153745381Y-111418762D01*
X153769190Y-111466381D01*
X153769190Y-111609238D01*
X153745381Y-111656857D01*
X153721571Y-111680666D01*
X153269190Y-111204476D02*
X153269190Y-110871143D01*
X153769190Y-111085429D01*
D12*
X152820619Y-111093238D02*
X152773000Y-111188476D01*
X152677762Y-111283714D01*
X152534905Y-111426571D01*
X152487286Y-111521810D01*
X152487286Y-111617048D01*
X152725381Y-111569429D02*
X152677762Y-111664667D01*
X152582524Y-111759905D01*
X152392048Y-111807524D01*
X152058714Y-111807524D01*
X151868238Y-111759905D01*
X151773000Y-111664667D01*
X151725381Y-111569429D01*
X151725381Y-111378952D01*
X151773000Y-111283714D01*
X151868238Y-111188476D01*
X152058714Y-111140857D01*
X152392048Y-111140857D01*
X152582524Y-111188476D01*
X152677762Y-111283714D01*
X152725381Y-111378952D01*
X152725381Y-111569429D01*
X152725381Y-110188476D02*
X152725381Y-110759905D01*
X152725381Y-110474191D02*
X151725381Y-110474191D01*
X151868238Y-110569429D01*
X151963476Y-110664667D01*
X152011095Y-110759905D01*
X158877261Y-104096748D02*
X158401070Y-104430082D01*
X158877261Y-104668177D02*
X157877261Y-104668177D01*
X157877261Y-104287224D01*
X157924880Y-104191986D01*
X157972499Y-104144367D01*
X158067737Y-104096748D01*
X158210594Y-104096748D01*
X158305832Y-104144367D01*
X158353451Y-104191986D01*
X158401070Y-104287224D01*
X158401070Y-104668177D01*
X158877261Y-103191986D02*
X158877261Y-103668177D01*
X157877261Y-103668177D01*
X158877261Y-102334843D02*
X158877261Y-102906272D01*
X158877261Y-102620558D02*
X157877261Y-102620558D01*
X158020118Y-102715796D01*
X158115356Y-102811034D01*
X158162975Y-102906272D01*
M02*
