%FSLAX45Y45*%
G04 Gerber Fmt 4.5, Leading zero omitted, Abs format (unit mm)*
G04 Created by KiCad (PCBNEW 4.0.2+dfsg1-stable) date 2017年12月22日 星期五 14时15分11秒*
%MOMM*%
G01*
G04 APERTURE LIST*
%ADD10C,0.127000*%
%ADD11C,0.150000*%
%ADD12C,0.200000*%
%ADD13C,0.300000*%
G04 APERTURE END LIST*
D10*
D11*
X12691110Y-9611360D02*
X12691110Y-11389360D01*
X12691110Y-11389360D02*
X17009110Y-11389360D01*
X17009110Y-11389360D02*
X17009110Y-9611360D01*
X17009110Y-9611360D02*
X12691110Y-9611360D01*
D12*
X12765344Y-10239568D02*
X12805344Y-10279568D01*
X12805344Y-10239568D02*
X12765344Y-10279568D01*
X12846624Y-10041448D02*
X12886624Y-10081448D01*
X12886624Y-10041448D02*
X12846624Y-10081448D01*
X12946192Y-10047544D02*
X12986192Y-10087544D01*
X12986192Y-10047544D02*
X12946192Y-10087544D01*
X12980736Y-10580436D02*
X13020736Y-10620436D01*
X13020736Y-10580436D02*
X12980736Y-10620436D01*
X13050332Y-10368092D02*
X13090332Y-10408092D01*
X13090332Y-10368092D02*
X13050332Y-10408092D01*
X13183936Y-10218232D02*
X13223936Y-10258232D01*
X13223936Y-10218232D02*
X13183936Y-10258232D01*
X13286044Y-10212136D02*
X13326044Y-10252136D01*
X13326044Y-10212136D02*
X13286044Y-10252136D01*
X13359196Y-10303576D02*
X13399196Y-10343576D01*
X13399196Y-10303576D02*
X13359196Y-10343576D01*
X13377484Y-10859836D02*
X13417484Y-10899836D01*
X13417484Y-10859836D02*
X13377484Y-10899836D01*
X13380024Y-10753664D02*
X13420024Y-10793664D01*
X13420024Y-10753664D02*
X13380024Y-10793664D01*
X13433872Y-10241600D02*
X13473872Y-10281600D01*
X13473872Y-10241600D02*
X13433872Y-10281600D01*
X13542076Y-10675432D02*
X13582076Y-10715432D01*
X13582076Y-10675432D02*
X13542076Y-10715432D01*
X13574080Y-10527604D02*
X13614080Y-10567604D01*
X13614080Y-10527604D02*
X13574080Y-10567604D01*
X13606592Y-11033064D02*
X13646592Y-11073064D01*
X13646592Y-11033064D02*
X13606592Y-11073064D01*
X13809792Y-10897936D02*
X13849792Y-10937936D01*
X13849792Y-10897936D02*
X13809792Y-10937936D01*
X13905296Y-10214676D02*
X13945296Y-10254676D01*
X13945296Y-10214676D02*
X13905296Y-10254676D01*
X13911392Y-10729280D02*
X13951392Y-10769280D01*
X13951392Y-10729280D02*
X13911392Y-10769280D01*
X13919520Y-10323388D02*
X13959520Y-10363388D01*
X13959520Y-10323388D02*
X13919520Y-10363388D01*
X14145072Y-10662224D02*
X14185072Y-10702224D01*
X14185072Y-10662224D02*
X14145072Y-10702224D01*
X14230416Y-10816656D02*
X14270416Y-10856656D01*
X14270416Y-10816656D02*
X14230416Y-10856656D01*
X14370624Y-10784652D02*
X14410624Y-10824652D01*
X14410624Y-10784652D02*
X14370624Y-10824652D01*
X15259800Y-10972800D02*
G75*
G03X15259800Y-10972800I-32500J0D01*
G01*
X15259800Y-11099800D02*
G75*
G03X15259800Y-11099800I-32500J0D01*
G01*
X15259800Y-11226800D02*
G75*
G03X15259800Y-11226800I-32500J0D01*
G01*
X15588488Y-9806432D02*
X15588488Y-9882632D01*
X15550388Y-9844532D02*
X15626588Y-9844532D01*
X15588488Y-10822432D02*
X15588488Y-10898632D01*
X15550388Y-10860532D02*
X15626588Y-10860532D01*
X15588488Y-11076432D02*
X15588488Y-11152632D01*
X15550388Y-11114532D02*
X15626588Y-11114532D01*
X16350488Y-9806432D02*
X16350488Y-9882632D01*
X16312388Y-9844532D02*
X16388588Y-9844532D01*
X16350488Y-10822432D02*
X16350488Y-10898632D01*
X16312388Y-10860532D02*
X16388588Y-10860532D01*
X16350488Y-11076432D02*
X16350488Y-11152632D01*
X16312388Y-11114532D02*
X16388588Y-11114532D01*
X16788180Y-10076992D02*
X16788180Y-10006280D01*
X16717468Y-10006280D01*
X16717468Y-10076992D01*
X16788180Y-10076992D01*
X16788180Y-10330992D02*
X16788180Y-10260280D01*
X16717468Y-10260280D01*
X16717468Y-10330992D01*
X16788180Y-10330992D01*
X16788180Y-10663732D02*
X16788180Y-10593020D01*
X16717468Y-10593020D01*
X16717468Y-10663732D01*
X16788180Y-10663732D01*
X16788180Y-10917732D02*
X16788180Y-10847020D01*
X16717468Y-10847020D01*
X16717468Y-10917732D01*
X16788180Y-10917732D01*
X14389100Y-11176000D02*
X14439900Y-11125200D01*
X14389100Y-11074400D01*
X14338300Y-11125200D01*
X14389100Y-11176000D01*
X14406372Y-9842500D02*
X14457172Y-9791700D01*
X14406372Y-9740900D01*
X14355572Y-9791700D01*
X14406372Y-9842500D01*
X14406372Y-10096500D02*
X14457172Y-10045700D01*
X14406372Y-9994900D01*
X14355572Y-10045700D01*
X14406372Y-10096500D01*
X14643100Y-11176000D02*
X14693900Y-11125200D01*
X14643100Y-11074400D01*
X14592300Y-11125200D01*
X14643100Y-11176000D01*
X14660372Y-9842500D02*
X14711172Y-9791700D01*
X14660372Y-9740900D01*
X14609572Y-9791700D01*
X14660372Y-9842500D01*
X14660372Y-10096500D02*
X14711172Y-10045700D01*
X14660372Y-9994900D01*
X14609572Y-10045700D01*
X14660372Y-10096500D01*
X14897100Y-11176000D02*
X14947900Y-11125200D01*
X14897100Y-11074400D01*
X14846300Y-11125200D01*
X14897100Y-11176000D01*
X14914372Y-9842500D02*
X14965172Y-9791700D01*
X14914372Y-9740900D01*
X14863572Y-9791700D01*
X14914372Y-9842500D01*
X14914372Y-10096500D02*
X14965172Y-10045700D01*
X14914372Y-9994900D01*
X14863572Y-10045700D01*
X14914372Y-10096500D01*
D13*
X12955038Y-11862574D02*
X12955038Y-11562574D01*
X13026467Y-11562574D01*
X13069324Y-11576860D01*
X13097896Y-11605431D01*
X13112181Y-11634003D01*
X13126467Y-11691146D01*
X13126467Y-11734003D01*
X13112181Y-11791146D01*
X13097896Y-11819717D01*
X13069324Y-11848289D01*
X13026467Y-11862574D01*
X12955038Y-11862574D01*
X13255038Y-11862574D02*
X13255038Y-11662574D01*
X13255038Y-11719717D02*
X13269324Y-11691146D01*
X13283610Y-11676860D01*
X13312181Y-11662574D01*
X13340753Y-11662574D01*
X13440753Y-11862574D02*
X13440753Y-11662574D01*
X13440753Y-11562574D02*
X13426467Y-11576860D01*
X13440753Y-11591146D01*
X13455038Y-11576860D01*
X13440753Y-11562574D01*
X13440753Y-11591146D01*
X13626467Y-11862574D02*
X13597896Y-11848289D01*
X13583610Y-11819717D01*
X13583610Y-11562574D01*
X13783610Y-11862574D02*
X13755038Y-11848289D01*
X13740753Y-11819717D01*
X13740753Y-11562574D01*
X14126467Y-11862574D02*
X14126467Y-11562574D01*
X14226467Y-11776860D01*
X14326467Y-11562574D01*
X14326467Y-11862574D01*
X14597896Y-11862574D02*
X14597896Y-11705431D01*
X14583610Y-11676860D01*
X14555038Y-11662574D01*
X14497896Y-11662574D01*
X14469324Y-11676860D01*
X14597896Y-11848289D02*
X14569324Y-11862574D01*
X14497896Y-11862574D01*
X14469324Y-11848289D01*
X14455038Y-11819717D01*
X14455038Y-11791146D01*
X14469324Y-11762574D01*
X14497896Y-11748289D01*
X14569324Y-11748289D01*
X14597896Y-11734003D01*
X14740753Y-11662574D02*
X14740753Y-11962574D01*
X14740753Y-11676860D02*
X14769324Y-11662574D01*
X14826467Y-11662574D01*
X14855038Y-11676860D01*
X14869324Y-11691146D01*
X14883610Y-11719717D01*
X14883610Y-11805431D01*
X14869324Y-11834003D01*
X14855038Y-11848289D01*
X14826467Y-11862574D01*
X14769324Y-11862574D01*
X14740753Y-11848289D01*
X15012181Y-11834003D02*
X15026467Y-11848289D01*
X15012181Y-11862574D01*
X14997896Y-11848289D01*
X15012181Y-11834003D01*
X15012181Y-11862574D01*
X15012181Y-11676860D02*
X15026467Y-11691146D01*
X15012181Y-11705431D01*
X14997896Y-11691146D01*
X15012181Y-11676860D01*
X15012181Y-11705431D01*
X12643610Y-12336860D02*
X12683610Y-12376860D01*
X12683610Y-12336860D02*
X12643610Y-12376860D01*
X13012181Y-12192574D02*
X13040753Y-12192574D01*
X13069324Y-12206860D01*
X13083610Y-12221146D01*
X13097896Y-12249717D01*
X13112181Y-12306860D01*
X13112181Y-12378289D01*
X13097896Y-12435431D01*
X13083610Y-12464003D01*
X13069324Y-12478289D01*
X13040753Y-12492574D01*
X13012181Y-12492574D01*
X12983610Y-12478289D01*
X12969324Y-12464003D01*
X12955038Y-12435431D01*
X12940753Y-12378289D01*
X12940753Y-12306860D01*
X12955038Y-12249717D01*
X12969324Y-12221146D01*
X12983610Y-12206860D01*
X13012181Y-12192574D01*
X13240753Y-12464003D02*
X13255038Y-12478289D01*
X13240753Y-12492574D01*
X13226467Y-12478289D01*
X13240753Y-12464003D01*
X13240753Y-12492574D01*
X13512181Y-12292574D02*
X13512181Y-12492574D01*
X13440753Y-12178289D02*
X13369324Y-12392574D01*
X13555038Y-12392574D01*
X13726467Y-12192574D02*
X13755038Y-12192574D01*
X13783610Y-12206860D01*
X13797896Y-12221146D01*
X13812181Y-12249717D01*
X13826467Y-12306860D01*
X13826467Y-12378289D01*
X13812181Y-12435431D01*
X13797896Y-12464003D01*
X13783610Y-12478289D01*
X13755038Y-12492574D01*
X13726467Y-12492574D01*
X13697896Y-12478289D01*
X13683610Y-12464003D01*
X13669324Y-12435431D01*
X13655038Y-12378289D01*
X13655038Y-12306860D01*
X13669324Y-12249717D01*
X13683610Y-12221146D01*
X13697896Y-12206860D01*
X13726467Y-12192574D01*
X13955038Y-12492574D02*
X13955038Y-12292574D01*
X13955038Y-12321146D02*
X13969324Y-12306860D01*
X13997896Y-12292574D01*
X14040753Y-12292574D01*
X14069324Y-12306860D01*
X14083610Y-12335431D01*
X14083610Y-12492574D01*
X14083610Y-12335431D02*
X14097896Y-12306860D01*
X14126467Y-12292574D01*
X14169324Y-12292574D01*
X14197896Y-12306860D01*
X14212181Y-12335431D01*
X14212181Y-12492574D01*
X14355038Y-12492574D02*
X14355038Y-12292574D01*
X14355038Y-12321146D02*
X14369324Y-12306860D01*
X14397896Y-12292574D01*
X14440753Y-12292574D01*
X14469324Y-12306860D01*
X14483610Y-12335431D01*
X14483610Y-12492574D01*
X14483610Y-12335431D02*
X14497896Y-12306860D01*
X14526467Y-12292574D01*
X14569324Y-12292574D01*
X14597896Y-12306860D01*
X14612181Y-12335431D01*
X14612181Y-12492574D01*
X15197896Y-12178289D02*
X14940753Y-12564003D01*
X15583610Y-12192574D02*
X15612181Y-12192574D01*
X15640753Y-12206860D01*
X15655038Y-12221146D01*
X15669324Y-12249717D01*
X15683610Y-12306860D01*
X15683610Y-12378289D01*
X15669324Y-12435431D01*
X15655038Y-12464003D01*
X15640753Y-12478289D01*
X15612181Y-12492574D01*
X15583610Y-12492574D01*
X15555038Y-12478289D01*
X15540753Y-12464003D01*
X15526467Y-12435431D01*
X15512181Y-12378289D01*
X15512181Y-12306860D01*
X15526467Y-12249717D01*
X15540753Y-12221146D01*
X15555038Y-12206860D01*
X15583610Y-12192574D01*
X15812181Y-12464003D02*
X15826467Y-12478289D01*
X15812181Y-12492574D01*
X15797896Y-12478289D01*
X15812181Y-12464003D01*
X15812181Y-12492574D01*
X16012181Y-12192574D02*
X16040753Y-12192574D01*
X16069324Y-12206860D01*
X16083610Y-12221146D01*
X16097895Y-12249717D01*
X16112181Y-12306860D01*
X16112181Y-12378289D01*
X16097895Y-12435431D01*
X16083610Y-12464003D01*
X16069324Y-12478289D01*
X16040753Y-12492574D01*
X16012181Y-12492574D01*
X15983610Y-12478289D01*
X15969324Y-12464003D01*
X15955038Y-12435431D01*
X15940753Y-12378289D01*
X15940753Y-12306860D01*
X15955038Y-12249717D01*
X15969324Y-12221146D01*
X15983610Y-12206860D01*
X16012181Y-12192574D01*
X16397895Y-12492574D02*
X16226467Y-12492574D01*
X16312181Y-12492574D02*
X16312181Y-12192574D01*
X16283610Y-12235431D01*
X16255038Y-12264003D01*
X16226467Y-12278289D01*
X16655038Y-12192574D02*
X16597895Y-12192574D01*
X16569324Y-12206860D01*
X16555038Y-12221146D01*
X16526467Y-12264003D01*
X16512181Y-12321146D01*
X16512181Y-12435431D01*
X16526467Y-12464003D01*
X16540753Y-12478289D01*
X16569324Y-12492574D01*
X16626467Y-12492574D01*
X16655038Y-12478289D01*
X16669324Y-12464003D01*
X16683610Y-12435431D01*
X16683610Y-12364003D01*
X16669324Y-12335431D01*
X16655038Y-12321146D01*
X16626467Y-12306860D01*
X16569324Y-12306860D01*
X16540753Y-12321146D01*
X16526467Y-12335431D01*
X16512181Y-12364003D01*
X16797896Y-12192574D02*
X16797896Y-12249717D01*
X16912181Y-12192574D02*
X16912181Y-12249717D01*
X17355038Y-12606860D02*
X17340753Y-12592574D01*
X17312181Y-12549717D01*
X17297896Y-12521146D01*
X17283610Y-12478289D01*
X17269324Y-12406860D01*
X17269324Y-12349717D01*
X17283610Y-12278289D01*
X17297896Y-12235431D01*
X17312181Y-12206860D01*
X17340753Y-12164003D01*
X17355038Y-12149717D01*
X17455038Y-12221146D02*
X17469324Y-12206860D01*
X17497896Y-12192574D01*
X17569324Y-12192574D01*
X17597896Y-12206860D01*
X17612181Y-12221146D01*
X17626467Y-12249717D01*
X17626467Y-12278289D01*
X17612181Y-12321146D01*
X17440753Y-12492574D01*
X17626467Y-12492574D01*
X17912181Y-12492574D02*
X17740753Y-12492574D01*
X17826467Y-12492574D02*
X17826467Y-12192574D01*
X17797896Y-12235431D01*
X17769324Y-12264003D01*
X17740753Y-12278289D01*
X18269324Y-12492574D02*
X18269324Y-12192574D01*
X18397896Y-12492574D02*
X18397896Y-12335431D01*
X18383610Y-12306860D01*
X18355038Y-12292574D01*
X18312181Y-12292574D01*
X18283610Y-12306860D01*
X18269324Y-12321146D01*
X18583610Y-12492574D02*
X18555038Y-12478289D01*
X18540753Y-12464003D01*
X18526467Y-12435431D01*
X18526467Y-12349717D01*
X18540753Y-12321146D01*
X18555038Y-12306860D01*
X18583610Y-12292574D01*
X18626467Y-12292574D01*
X18655038Y-12306860D01*
X18669324Y-12321146D01*
X18683610Y-12349717D01*
X18683610Y-12435431D01*
X18669324Y-12464003D01*
X18655038Y-12478289D01*
X18626467Y-12492574D01*
X18583610Y-12492574D01*
X18855038Y-12492574D02*
X18826467Y-12478289D01*
X18812181Y-12449717D01*
X18812181Y-12192574D01*
X19083610Y-12478289D02*
X19055039Y-12492574D01*
X18997896Y-12492574D01*
X18969324Y-12478289D01*
X18955039Y-12449717D01*
X18955039Y-12335431D01*
X18969324Y-12306860D01*
X18997896Y-12292574D01*
X19055039Y-12292574D01*
X19083610Y-12306860D01*
X19097896Y-12335431D01*
X19097896Y-12364003D01*
X18955039Y-12392574D01*
X19212181Y-12478289D02*
X19240753Y-12492574D01*
X19297896Y-12492574D01*
X19326467Y-12478289D01*
X19340753Y-12449717D01*
X19340753Y-12435431D01*
X19326467Y-12406860D01*
X19297896Y-12392574D01*
X19255039Y-12392574D01*
X19226467Y-12378289D01*
X19212181Y-12349717D01*
X19212181Y-12335431D01*
X19226467Y-12306860D01*
X19255039Y-12292574D01*
X19297896Y-12292574D01*
X19326467Y-12306860D01*
X19440753Y-12606860D02*
X19455039Y-12592574D01*
X19483610Y-12549717D01*
X19497896Y-12521146D01*
X19512181Y-12478289D01*
X19526467Y-12406860D01*
X19526467Y-12349717D01*
X19512181Y-12278289D01*
X19497896Y-12235431D01*
X19483610Y-12206860D01*
X19455039Y-12164003D01*
X19440753Y-12149717D01*
X12683610Y-12752860D02*
G75*
G03X12683610Y-12752860I-32500J0D01*
G01*
X13012181Y-12588574D02*
X13040753Y-12588574D01*
X13069324Y-12602860D01*
X13083610Y-12617146D01*
X13097896Y-12645717D01*
X13112181Y-12702860D01*
X13112181Y-12774289D01*
X13097896Y-12831431D01*
X13083610Y-12860003D01*
X13069324Y-12874289D01*
X13040753Y-12888574D01*
X13012181Y-12888574D01*
X12983610Y-12874289D01*
X12969324Y-12860003D01*
X12955038Y-12831431D01*
X12940753Y-12774289D01*
X12940753Y-12702860D01*
X12955038Y-12645717D01*
X12969324Y-12617146D01*
X12983610Y-12602860D01*
X13012181Y-12588574D01*
X13240753Y-12860003D02*
X13255038Y-12874289D01*
X13240753Y-12888574D01*
X13226467Y-12874289D01*
X13240753Y-12860003D01*
X13240753Y-12888574D01*
X13512181Y-12588574D02*
X13455038Y-12588574D01*
X13426467Y-12602860D01*
X13412181Y-12617146D01*
X13383610Y-12660003D01*
X13369324Y-12717146D01*
X13369324Y-12831431D01*
X13383610Y-12860003D01*
X13397896Y-12874289D01*
X13426467Y-12888574D01*
X13483610Y-12888574D01*
X13512181Y-12874289D01*
X13526467Y-12860003D01*
X13540753Y-12831431D01*
X13540753Y-12760003D01*
X13526467Y-12731431D01*
X13512181Y-12717146D01*
X13483610Y-12702860D01*
X13426467Y-12702860D01*
X13397896Y-12717146D01*
X13383610Y-12731431D01*
X13369324Y-12760003D01*
X13812181Y-12588574D02*
X13669324Y-12588574D01*
X13655038Y-12731431D01*
X13669324Y-12717146D01*
X13697896Y-12702860D01*
X13769324Y-12702860D01*
X13797896Y-12717146D01*
X13812181Y-12731431D01*
X13826467Y-12760003D01*
X13826467Y-12831431D01*
X13812181Y-12860003D01*
X13797896Y-12874289D01*
X13769324Y-12888574D01*
X13697896Y-12888574D01*
X13669324Y-12874289D01*
X13655038Y-12860003D01*
X13955038Y-12888574D02*
X13955038Y-12688574D01*
X13955038Y-12717146D02*
X13969324Y-12702860D01*
X13997896Y-12688574D01*
X14040753Y-12688574D01*
X14069324Y-12702860D01*
X14083610Y-12731431D01*
X14083610Y-12888574D01*
X14083610Y-12731431D02*
X14097896Y-12702860D01*
X14126467Y-12688574D01*
X14169324Y-12688574D01*
X14197896Y-12702860D01*
X14212181Y-12731431D01*
X14212181Y-12888574D01*
X14355038Y-12888574D02*
X14355038Y-12688574D01*
X14355038Y-12717146D02*
X14369324Y-12702860D01*
X14397896Y-12688574D01*
X14440753Y-12688574D01*
X14469324Y-12702860D01*
X14483610Y-12731431D01*
X14483610Y-12888574D01*
X14483610Y-12731431D02*
X14497896Y-12702860D01*
X14526467Y-12688574D01*
X14569324Y-12688574D01*
X14597896Y-12702860D01*
X14612181Y-12731431D01*
X14612181Y-12888574D01*
X15197896Y-12574289D02*
X14940753Y-12960003D01*
X15583610Y-12588574D02*
X15612181Y-12588574D01*
X15640753Y-12602860D01*
X15655038Y-12617146D01*
X15669324Y-12645717D01*
X15683610Y-12702860D01*
X15683610Y-12774289D01*
X15669324Y-12831431D01*
X15655038Y-12860003D01*
X15640753Y-12874289D01*
X15612181Y-12888574D01*
X15583610Y-12888574D01*
X15555038Y-12874289D01*
X15540753Y-12860003D01*
X15526467Y-12831431D01*
X15512181Y-12774289D01*
X15512181Y-12702860D01*
X15526467Y-12645717D01*
X15540753Y-12617146D01*
X15555038Y-12602860D01*
X15583610Y-12588574D01*
X15812181Y-12860003D02*
X15826467Y-12874289D01*
X15812181Y-12888574D01*
X15797896Y-12874289D01*
X15812181Y-12860003D01*
X15812181Y-12888574D01*
X16012181Y-12588574D02*
X16040753Y-12588574D01*
X16069324Y-12602860D01*
X16083610Y-12617146D01*
X16097895Y-12645717D01*
X16112181Y-12702860D01*
X16112181Y-12774289D01*
X16097895Y-12831431D01*
X16083610Y-12860003D01*
X16069324Y-12874289D01*
X16040753Y-12888574D01*
X16012181Y-12888574D01*
X15983610Y-12874289D01*
X15969324Y-12860003D01*
X15955038Y-12831431D01*
X15940753Y-12774289D01*
X15940753Y-12702860D01*
X15955038Y-12645717D01*
X15969324Y-12617146D01*
X15983610Y-12602860D01*
X16012181Y-12588574D01*
X16226467Y-12617146D02*
X16240753Y-12602860D01*
X16269324Y-12588574D01*
X16340753Y-12588574D01*
X16369324Y-12602860D01*
X16383610Y-12617146D01*
X16397895Y-12645717D01*
X16397895Y-12674289D01*
X16383610Y-12717146D01*
X16212181Y-12888574D01*
X16397895Y-12888574D01*
X16655038Y-12588574D02*
X16597895Y-12588574D01*
X16569324Y-12602860D01*
X16555038Y-12617146D01*
X16526467Y-12660003D01*
X16512181Y-12717146D01*
X16512181Y-12831431D01*
X16526467Y-12860003D01*
X16540753Y-12874289D01*
X16569324Y-12888574D01*
X16626467Y-12888574D01*
X16655038Y-12874289D01*
X16669324Y-12860003D01*
X16683610Y-12831431D01*
X16683610Y-12760003D01*
X16669324Y-12731431D01*
X16655038Y-12717146D01*
X16626467Y-12702860D01*
X16569324Y-12702860D01*
X16540753Y-12717146D01*
X16526467Y-12731431D01*
X16512181Y-12760003D01*
X16797896Y-12588574D02*
X16797896Y-12645717D01*
X16912181Y-12588574D02*
X16912181Y-12645717D01*
X17355038Y-13002860D02*
X17340753Y-12988574D01*
X17312181Y-12945717D01*
X17297896Y-12917146D01*
X17283610Y-12874289D01*
X17269324Y-12802860D01*
X17269324Y-12745717D01*
X17283610Y-12674289D01*
X17297896Y-12631431D01*
X17312181Y-12602860D01*
X17340753Y-12560003D01*
X17355038Y-12545717D01*
X17440753Y-12588574D02*
X17626467Y-12588574D01*
X17526467Y-12702860D01*
X17569324Y-12702860D01*
X17597896Y-12717146D01*
X17612181Y-12731431D01*
X17626467Y-12760003D01*
X17626467Y-12831431D01*
X17612181Y-12860003D01*
X17597896Y-12874289D01*
X17569324Y-12888574D01*
X17483610Y-12888574D01*
X17455038Y-12874289D01*
X17440753Y-12860003D01*
X17983610Y-12888574D02*
X17983610Y-12588574D01*
X18112181Y-12888574D02*
X18112181Y-12731431D01*
X18097896Y-12702860D01*
X18069324Y-12688574D01*
X18026467Y-12688574D01*
X17997896Y-12702860D01*
X17983610Y-12717146D01*
X18297896Y-12888574D02*
X18269324Y-12874289D01*
X18255038Y-12860003D01*
X18240753Y-12831431D01*
X18240753Y-12745717D01*
X18255038Y-12717146D01*
X18269324Y-12702860D01*
X18297896Y-12688574D01*
X18340753Y-12688574D01*
X18369324Y-12702860D01*
X18383610Y-12717146D01*
X18397896Y-12745717D01*
X18397896Y-12831431D01*
X18383610Y-12860003D01*
X18369324Y-12874289D01*
X18340753Y-12888574D01*
X18297896Y-12888574D01*
X18569324Y-12888574D02*
X18540753Y-12874289D01*
X18526467Y-12845717D01*
X18526467Y-12588574D01*
X18797896Y-12874289D02*
X18769324Y-12888574D01*
X18712181Y-12888574D01*
X18683610Y-12874289D01*
X18669324Y-12845717D01*
X18669324Y-12731431D01*
X18683610Y-12702860D01*
X18712181Y-12688574D01*
X18769324Y-12688574D01*
X18797896Y-12702860D01*
X18812181Y-12731431D01*
X18812181Y-12760003D01*
X18669324Y-12788574D01*
X18926467Y-12874289D02*
X18955039Y-12888574D01*
X19012181Y-12888574D01*
X19040753Y-12874289D01*
X19055039Y-12845717D01*
X19055039Y-12831431D01*
X19040753Y-12802860D01*
X19012181Y-12788574D01*
X18969324Y-12788574D01*
X18940753Y-12774289D01*
X18926467Y-12745717D01*
X18926467Y-12731431D01*
X18940753Y-12702860D01*
X18969324Y-12688574D01*
X19012181Y-12688574D01*
X19040753Y-12702860D01*
X19155038Y-13002860D02*
X19169324Y-12988574D01*
X19197896Y-12945717D01*
X19212181Y-12917146D01*
X19226467Y-12874289D01*
X19240753Y-12802860D01*
X19240753Y-12745717D01*
X19226467Y-12674289D01*
X19212181Y-12631431D01*
X19197896Y-12602860D01*
X19169324Y-12560003D01*
X19155038Y-12545717D01*
X12645510Y-13110760D02*
X12645510Y-13186960D01*
X12607410Y-13148860D02*
X12683610Y-13148860D01*
X13012181Y-12984574D02*
X13040753Y-12984574D01*
X13069324Y-12998860D01*
X13083610Y-13013146D01*
X13097896Y-13041717D01*
X13112181Y-13098860D01*
X13112181Y-13170289D01*
X13097896Y-13227431D01*
X13083610Y-13256003D01*
X13069324Y-13270289D01*
X13040753Y-13284574D01*
X13012181Y-13284574D01*
X12983610Y-13270289D01*
X12969324Y-13256003D01*
X12955038Y-13227431D01*
X12940753Y-13170289D01*
X12940753Y-13098860D01*
X12955038Y-13041717D01*
X12969324Y-13013146D01*
X12983610Y-12998860D01*
X13012181Y-12984574D01*
X13240753Y-13256003D02*
X13255038Y-13270289D01*
X13240753Y-13284574D01*
X13226467Y-13270289D01*
X13240753Y-13256003D01*
X13240753Y-13284574D01*
X13355038Y-12984574D02*
X13555038Y-12984574D01*
X13426467Y-13284574D01*
X13797896Y-12984574D02*
X13740753Y-12984574D01*
X13712181Y-12998860D01*
X13697896Y-13013146D01*
X13669324Y-13056003D01*
X13655038Y-13113146D01*
X13655038Y-13227431D01*
X13669324Y-13256003D01*
X13683610Y-13270289D01*
X13712181Y-13284574D01*
X13769324Y-13284574D01*
X13797896Y-13270289D01*
X13812181Y-13256003D01*
X13826467Y-13227431D01*
X13826467Y-13156003D01*
X13812181Y-13127431D01*
X13797896Y-13113146D01*
X13769324Y-13098860D01*
X13712181Y-13098860D01*
X13683610Y-13113146D01*
X13669324Y-13127431D01*
X13655038Y-13156003D01*
X13955038Y-13284574D02*
X13955038Y-13084574D01*
X13955038Y-13113146D02*
X13969324Y-13098860D01*
X13997896Y-13084574D01*
X14040753Y-13084574D01*
X14069324Y-13098860D01*
X14083610Y-13127431D01*
X14083610Y-13284574D01*
X14083610Y-13127431D02*
X14097896Y-13098860D01*
X14126467Y-13084574D01*
X14169324Y-13084574D01*
X14197896Y-13098860D01*
X14212181Y-13127431D01*
X14212181Y-13284574D01*
X14355038Y-13284574D02*
X14355038Y-13084574D01*
X14355038Y-13113146D02*
X14369324Y-13098860D01*
X14397896Y-13084574D01*
X14440753Y-13084574D01*
X14469324Y-13098860D01*
X14483610Y-13127431D01*
X14483610Y-13284574D01*
X14483610Y-13127431D02*
X14497896Y-13098860D01*
X14526467Y-13084574D01*
X14569324Y-13084574D01*
X14597896Y-13098860D01*
X14612181Y-13127431D01*
X14612181Y-13284574D01*
X15197896Y-12970289D02*
X14940753Y-13356003D01*
X15583610Y-12984574D02*
X15612181Y-12984574D01*
X15640753Y-12998860D01*
X15655038Y-13013146D01*
X15669324Y-13041717D01*
X15683610Y-13098860D01*
X15683610Y-13170289D01*
X15669324Y-13227431D01*
X15655038Y-13256003D01*
X15640753Y-13270289D01*
X15612181Y-13284574D01*
X15583610Y-13284574D01*
X15555038Y-13270289D01*
X15540753Y-13256003D01*
X15526467Y-13227431D01*
X15512181Y-13170289D01*
X15512181Y-13098860D01*
X15526467Y-13041717D01*
X15540753Y-13013146D01*
X15555038Y-12998860D01*
X15583610Y-12984574D01*
X15812181Y-13256003D02*
X15826467Y-13270289D01*
X15812181Y-13284574D01*
X15797896Y-13270289D01*
X15812181Y-13256003D01*
X15812181Y-13284574D01*
X16012181Y-12984574D02*
X16040753Y-12984574D01*
X16069324Y-12998860D01*
X16083610Y-13013146D01*
X16097895Y-13041717D01*
X16112181Y-13098860D01*
X16112181Y-13170289D01*
X16097895Y-13227431D01*
X16083610Y-13256003D01*
X16069324Y-13270289D01*
X16040753Y-13284574D01*
X16012181Y-13284574D01*
X15983610Y-13270289D01*
X15969324Y-13256003D01*
X15955038Y-13227431D01*
X15940753Y-13170289D01*
X15940753Y-13098860D01*
X15955038Y-13041717D01*
X15969324Y-13013146D01*
X15983610Y-12998860D01*
X16012181Y-12984574D01*
X16212181Y-12984574D02*
X16397895Y-12984574D01*
X16297895Y-13098860D01*
X16340753Y-13098860D01*
X16369324Y-13113146D01*
X16383610Y-13127431D01*
X16397895Y-13156003D01*
X16397895Y-13227431D01*
X16383610Y-13256003D01*
X16369324Y-13270289D01*
X16340753Y-13284574D01*
X16255038Y-13284574D01*
X16226467Y-13270289D01*
X16212181Y-13256003D01*
X16583610Y-12984574D02*
X16612181Y-12984574D01*
X16640753Y-12998860D01*
X16655038Y-13013146D01*
X16669324Y-13041717D01*
X16683610Y-13098860D01*
X16683610Y-13170289D01*
X16669324Y-13227431D01*
X16655038Y-13256003D01*
X16640753Y-13270289D01*
X16612181Y-13284574D01*
X16583610Y-13284574D01*
X16555038Y-13270289D01*
X16540753Y-13256003D01*
X16526467Y-13227431D01*
X16512181Y-13170289D01*
X16512181Y-13098860D01*
X16526467Y-13041717D01*
X16540753Y-13013146D01*
X16555038Y-12998860D01*
X16583610Y-12984574D01*
X16797896Y-12984574D02*
X16797896Y-13041717D01*
X16912181Y-12984574D02*
X16912181Y-13041717D01*
X17355038Y-13398860D02*
X17340753Y-13384574D01*
X17312181Y-13341717D01*
X17297896Y-13313146D01*
X17283610Y-13270289D01*
X17269324Y-13198860D01*
X17269324Y-13141717D01*
X17283610Y-13070289D01*
X17297896Y-13027431D01*
X17312181Y-12998860D01*
X17340753Y-12956003D01*
X17355038Y-12941717D01*
X17597896Y-12984574D02*
X17540753Y-12984574D01*
X17512181Y-12998860D01*
X17497896Y-13013146D01*
X17469324Y-13056003D01*
X17455038Y-13113146D01*
X17455038Y-13227431D01*
X17469324Y-13256003D01*
X17483610Y-13270289D01*
X17512181Y-13284574D01*
X17569324Y-13284574D01*
X17597896Y-13270289D01*
X17612181Y-13256003D01*
X17626467Y-13227431D01*
X17626467Y-13156003D01*
X17612181Y-13127431D01*
X17597896Y-13113146D01*
X17569324Y-13098860D01*
X17512181Y-13098860D01*
X17483610Y-13113146D01*
X17469324Y-13127431D01*
X17455038Y-13156003D01*
X17983610Y-13284574D02*
X17983610Y-12984574D01*
X18112181Y-13284574D02*
X18112181Y-13127431D01*
X18097896Y-13098860D01*
X18069324Y-13084574D01*
X18026467Y-13084574D01*
X17997896Y-13098860D01*
X17983610Y-13113146D01*
X18297896Y-13284574D02*
X18269324Y-13270289D01*
X18255038Y-13256003D01*
X18240753Y-13227431D01*
X18240753Y-13141717D01*
X18255038Y-13113146D01*
X18269324Y-13098860D01*
X18297896Y-13084574D01*
X18340753Y-13084574D01*
X18369324Y-13098860D01*
X18383610Y-13113146D01*
X18397896Y-13141717D01*
X18397896Y-13227431D01*
X18383610Y-13256003D01*
X18369324Y-13270289D01*
X18340753Y-13284574D01*
X18297896Y-13284574D01*
X18569324Y-13284574D02*
X18540753Y-13270289D01*
X18526467Y-13241717D01*
X18526467Y-12984574D01*
X18797896Y-13270289D02*
X18769324Y-13284574D01*
X18712181Y-13284574D01*
X18683610Y-13270289D01*
X18669324Y-13241717D01*
X18669324Y-13127431D01*
X18683610Y-13098860D01*
X18712181Y-13084574D01*
X18769324Y-13084574D01*
X18797896Y-13098860D01*
X18812181Y-13127431D01*
X18812181Y-13156003D01*
X18669324Y-13184574D01*
X18926467Y-13270289D02*
X18955039Y-13284574D01*
X19012181Y-13284574D01*
X19040753Y-13270289D01*
X19055039Y-13241717D01*
X19055039Y-13227431D01*
X19040753Y-13198860D01*
X19012181Y-13184574D01*
X18969324Y-13184574D01*
X18940753Y-13170289D01*
X18926467Y-13141717D01*
X18926467Y-13127431D01*
X18940753Y-13098860D01*
X18969324Y-13084574D01*
X19012181Y-13084574D01*
X19040753Y-13098860D01*
X19155038Y-13398860D02*
X19169324Y-13384574D01*
X19197896Y-13341717D01*
X19212181Y-13313146D01*
X19226467Y-13270289D01*
X19240753Y-13198860D01*
X19240753Y-13141717D01*
X19226467Y-13070289D01*
X19212181Y-13027431D01*
X19197896Y-12998860D01*
X19169324Y-12956003D01*
X19155038Y-12941717D01*
X12668966Y-13580216D02*
X12668966Y-13509504D01*
X12598254Y-13509504D01*
X12598254Y-13580216D01*
X12668966Y-13580216D01*
X13112181Y-13680574D02*
X12940753Y-13680574D01*
X13026467Y-13680574D02*
X13026467Y-13380574D01*
X12997896Y-13423431D01*
X12969324Y-13452003D01*
X12940753Y-13466289D01*
X13240753Y-13652003D02*
X13255038Y-13666289D01*
X13240753Y-13680574D01*
X13226467Y-13666289D01*
X13240753Y-13652003D01*
X13240753Y-13680574D01*
X13440753Y-13380574D02*
X13469324Y-13380574D01*
X13497896Y-13394860D01*
X13512181Y-13409146D01*
X13526467Y-13437717D01*
X13540753Y-13494860D01*
X13540753Y-13566289D01*
X13526467Y-13623431D01*
X13512181Y-13652003D01*
X13497896Y-13666289D01*
X13469324Y-13680574D01*
X13440753Y-13680574D01*
X13412181Y-13666289D01*
X13397896Y-13652003D01*
X13383610Y-13623431D01*
X13369324Y-13566289D01*
X13369324Y-13494860D01*
X13383610Y-13437717D01*
X13397896Y-13409146D01*
X13412181Y-13394860D01*
X13440753Y-13380574D01*
X13726467Y-13380574D02*
X13755038Y-13380574D01*
X13783610Y-13394860D01*
X13797896Y-13409146D01*
X13812181Y-13437717D01*
X13826467Y-13494860D01*
X13826467Y-13566289D01*
X13812181Y-13623431D01*
X13797896Y-13652003D01*
X13783610Y-13666289D01*
X13755038Y-13680574D01*
X13726467Y-13680574D01*
X13697896Y-13666289D01*
X13683610Y-13652003D01*
X13669324Y-13623431D01*
X13655038Y-13566289D01*
X13655038Y-13494860D01*
X13669324Y-13437717D01*
X13683610Y-13409146D01*
X13697896Y-13394860D01*
X13726467Y-13380574D01*
X13955038Y-13680574D02*
X13955038Y-13480574D01*
X13955038Y-13509146D02*
X13969324Y-13494860D01*
X13997896Y-13480574D01*
X14040753Y-13480574D01*
X14069324Y-13494860D01*
X14083610Y-13523431D01*
X14083610Y-13680574D01*
X14083610Y-13523431D02*
X14097896Y-13494860D01*
X14126467Y-13480574D01*
X14169324Y-13480574D01*
X14197896Y-13494860D01*
X14212181Y-13523431D01*
X14212181Y-13680574D01*
X14355038Y-13680574D02*
X14355038Y-13480574D01*
X14355038Y-13509146D02*
X14369324Y-13494860D01*
X14397896Y-13480574D01*
X14440753Y-13480574D01*
X14469324Y-13494860D01*
X14483610Y-13523431D01*
X14483610Y-13680574D01*
X14483610Y-13523431D02*
X14497896Y-13494860D01*
X14526467Y-13480574D01*
X14569324Y-13480574D01*
X14597896Y-13494860D01*
X14612181Y-13523431D01*
X14612181Y-13680574D01*
X15197896Y-13366289D02*
X14940753Y-13752003D01*
X15583610Y-13380574D02*
X15612181Y-13380574D01*
X15640753Y-13394860D01*
X15655038Y-13409146D01*
X15669324Y-13437717D01*
X15683610Y-13494860D01*
X15683610Y-13566289D01*
X15669324Y-13623431D01*
X15655038Y-13652003D01*
X15640753Y-13666289D01*
X15612181Y-13680574D01*
X15583610Y-13680574D01*
X15555038Y-13666289D01*
X15540753Y-13652003D01*
X15526467Y-13623431D01*
X15512181Y-13566289D01*
X15512181Y-13494860D01*
X15526467Y-13437717D01*
X15540753Y-13409146D01*
X15555038Y-13394860D01*
X15583610Y-13380574D01*
X15812181Y-13652003D02*
X15826467Y-13666289D01*
X15812181Y-13680574D01*
X15797896Y-13666289D01*
X15812181Y-13652003D01*
X15812181Y-13680574D01*
X16012181Y-13380574D02*
X16040753Y-13380574D01*
X16069324Y-13394860D01*
X16083610Y-13409146D01*
X16097895Y-13437717D01*
X16112181Y-13494860D01*
X16112181Y-13566289D01*
X16097895Y-13623431D01*
X16083610Y-13652003D01*
X16069324Y-13666289D01*
X16040753Y-13680574D01*
X16012181Y-13680574D01*
X15983610Y-13666289D01*
X15969324Y-13652003D01*
X15955038Y-13623431D01*
X15940753Y-13566289D01*
X15940753Y-13494860D01*
X15955038Y-13437717D01*
X15969324Y-13409146D01*
X15983610Y-13394860D01*
X16012181Y-13380574D01*
X16212181Y-13380574D02*
X16397895Y-13380574D01*
X16297895Y-13494860D01*
X16340753Y-13494860D01*
X16369324Y-13509146D01*
X16383610Y-13523431D01*
X16397895Y-13552003D01*
X16397895Y-13623431D01*
X16383610Y-13652003D01*
X16369324Y-13666289D01*
X16340753Y-13680574D01*
X16255038Y-13680574D01*
X16226467Y-13666289D01*
X16212181Y-13652003D01*
X16540753Y-13680574D02*
X16597895Y-13680574D01*
X16626467Y-13666289D01*
X16640753Y-13652003D01*
X16669324Y-13609146D01*
X16683610Y-13552003D01*
X16683610Y-13437717D01*
X16669324Y-13409146D01*
X16655038Y-13394860D01*
X16626467Y-13380574D01*
X16569324Y-13380574D01*
X16540753Y-13394860D01*
X16526467Y-13409146D01*
X16512181Y-13437717D01*
X16512181Y-13509146D01*
X16526467Y-13537717D01*
X16540753Y-13552003D01*
X16569324Y-13566289D01*
X16626467Y-13566289D01*
X16655038Y-13552003D01*
X16669324Y-13537717D01*
X16683610Y-13509146D01*
X16797896Y-13380574D02*
X16797896Y-13437717D01*
X16912181Y-13380574D02*
X16912181Y-13437717D01*
X17355038Y-13794860D02*
X17340753Y-13780574D01*
X17312181Y-13737717D01*
X17297896Y-13709146D01*
X17283610Y-13666289D01*
X17269324Y-13594860D01*
X17269324Y-13537717D01*
X17283610Y-13466289D01*
X17297896Y-13423431D01*
X17312181Y-13394860D01*
X17340753Y-13352003D01*
X17355038Y-13337717D01*
X17597896Y-13480574D02*
X17597896Y-13680574D01*
X17526467Y-13366289D02*
X17455038Y-13580574D01*
X17640753Y-13580574D01*
X17983610Y-13680574D02*
X17983610Y-13380574D01*
X18112181Y-13680574D02*
X18112181Y-13523431D01*
X18097896Y-13494860D01*
X18069324Y-13480574D01*
X18026467Y-13480574D01*
X17997896Y-13494860D01*
X17983610Y-13509146D01*
X18297896Y-13680574D02*
X18269324Y-13666289D01*
X18255038Y-13652003D01*
X18240753Y-13623431D01*
X18240753Y-13537717D01*
X18255038Y-13509146D01*
X18269324Y-13494860D01*
X18297896Y-13480574D01*
X18340753Y-13480574D01*
X18369324Y-13494860D01*
X18383610Y-13509146D01*
X18397896Y-13537717D01*
X18397896Y-13623431D01*
X18383610Y-13652003D01*
X18369324Y-13666289D01*
X18340753Y-13680574D01*
X18297896Y-13680574D01*
X18569324Y-13680574D02*
X18540753Y-13666289D01*
X18526467Y-13637717D01*
X18526467Y-13380574D01*
X18797896Y-13666289D02*
X18769324Y-13680574D01*
X18712181Y-13680574D01*
X18683610Y-13666289D01*
X18669324Y-13637717D01*
X18669324Y-13523431D01*
X18683610Y-13494860D01*
X18712181Y-13480574D01*
X18769324Y-13480574D01*
X18797896Y-13494860D01*
X18812181Y-13523431D01*
X18812181Y-13552003D01*
X18669324Y-13580574D01*
X18926467Y-13666289D02*
X18955039Y-13680574D01*
X19012181Y-13680574D01*
X19040753Y-13666289D01*
X19055039Y-13637717D01*
X19055039Y-13623431D01*
X19040753Y-13594860D01*
X19012181Y-13580574D01*
X18969324Y-13580574D01*
X18940753Y-13566289D01*
X18926467Y-13537717D01*
X18926467Y-13523431D01*
X18940753Y-13494860D01*
X18969324Y-13480574D01*
X19012181Y-13480574D01*
X19040753Y-13494860D01*
X19155038Y-13794860D02*
X19169324Y-13780574D01*
X19197896Y-13737717D01*
X19212181Y-13709146D01*
X19226467Y-13666289D01*
X19240753Y-13594860D01*
X19240753Y-13537717D01*
X19226467Y-13466289D01*
X19212181Y-13423431D01*
X19197896Y-13394860D01*
X19169324Y-13352003D01*
X19155038Y-13337717D01*
X12632810Y-13991660D02*
X12683610Y-13940860D01*
X12632810Y-13890060D01*
X12582010Y-13940860D01*
X12632810Y-13991660D01*
X13112181Y-14076574D02*
X12940753Y-14076574D01*
X13026467Y-14076574D02*
X13026467Y-13776574D01*
X12997896Y-13819431D01*
X12969324Y-13848003D01*
X12940753Y-13862289D01*
X13240753Y-14048003D02*
X13255038Y-14062289D01*
X13240753Y-14076574D01*
X13226467Y-14062289D01*
X13240753Y-14048003D01*
X13240753Y-14076574D01*
X13440753Y-13776574D02*
X13469324Y-13776574D01*
X13497896Y-13790860D01*
X13512181Y-13805146D01*
X13526467Y-13833717D01*
X13540753Y-13890860D01*
X13540753Y-13962289D01*
X13526467Y-14019431D01*
X13512181Y-14048003D01*
X13497896Y-14062289D01*
X13469324Y-14076574D01*
X13440753Y-14076574D01*
X13412181Y-14062289D01*
X13397896Y-14048003D01*
X13383610Y-14019431D01*
X13369324Y-13962289D01*
X13369324Y-13890860D01*
X13383610Y-13833717D01*
X13397896Y-13805146D01*
X13412181Y-13790860D01*
X13440753Y-13776574D01*
X13655038Y-13805146D02*
X13669324Y-13790860D01*
X13697896Y-13776574D01*
X13769324Y-13776574D01*
X13797896Y-13790860D01*
X13812181Y-13805146D01*
X13826467Y-13833717D01*
X13826467Y-13862289D01*
X13812181Y-13905146D01*
X13640753Y-14076574D01*
X13826467Y-14076574D01*
X13955038Y-14076574D02*
X13955038Y-13876574D01*
X13955038Y-13905146D02*
X13969324Y-13890860D01*
X13997896Y-13876574D01*
X14040753Y-13876574D01*
X14069324Y-13890860D01*
X14083610Y-13919431D01*
X14083610Y-14076574D01*
X14083610Y-13919431D02*
X14097896Y-13890860D01*
X14126467Y-13876574D01*
X14169324Y-13876574D01*
X14197896Y-13890860D01*
X14212181Y-13919431D01*
X14212181Y-14076574D01*
X14355038Y-14076574D02*
X14355038Y-13876574D01*
X14355038Y-13905146D02*
X14369324Y-13890860D01*
X14397896Y-13876574D01*
X14440753Y-13876574D01*
X14469324Y-13890860D01*
X14483610Y-13919431D01*
X14483610Y-14076574D01*
X14483610Y-13919431D02*
X14497896Y-13890860D01*
X14526467Y-13876574D01*
X14569324Y-13876574D01*
X14597896Y-13890860D01*
X14612181Y-13919431D01*
X14612181Y-14076574D01*
X15197896Y-13762289D02*
X14940753Y-14148003D01*
X15583610Y-13776574D02*
X15612181Y-13776574D01*
X15640753Y-13790860D01*
X15655038Y-13805146D01*
X15669324Y-13833717D01*
X15683610Y-13890860D01*
X15683610Y-13962289D01*
X15669324Y-14019431D01*
X15655038Y-14048003D01*
X15640753Y-14062289D01*
X15612181Y-14076574D01*
X15583610Y-14076574D01*
X15555038Y-14062289D01*
X15540753Y-14048003D01*
X15526467Y-14019431D01*
X15512181Y-13962289D01*
X15512181Y-13890860D01*
X15526467Y-13833717D01*
X15540753Y-13805146D01*
X15555038Y-13790860D01*
X15583610Y-13776574D01*
X15812181Y-14048003D02*
X15826467Y-14062289D01*
X15812181Y-14076574D01*
X15797896Y-14062289D01*
X15812181Y-14048003D01*
X15812181Y-14076574D01*
X16012181Y-13776574D02*
X16040753Y-13776574D01*
X16069324Y-13790860D01*
X16083610Y-13805146D01*
X16097895Y-13833717D01*
X16112181Y-13890860D01*
X16112181Y-13962289D01*
X16097895Y-14019431D01*
X16083610Y-14048003D01*
X16069324Y-14062289D01*
X16040753Y-14076574D01*
X16012181Y-14076574D01*
X15983610Y-14062289D01*
X15969324Y-14048003D01*
X15955038Y-14019431D01*
X15940753Y-13962289D01*
X15940753Y-13890860D01*
X15955038Y-13833717D01*
X15969324Y-13805146D01*
X15983610Y-13790860D01*
X16012181Y-13776574D01*
X16369324Y-13876574D02*
X16369324Y-14076574D01*
X16297895Y-13762289D02*
X16226467Y-13976574D01*
X16412181Y-13976574D01*
X16583610Y-13776574D02*
X16612181Y-13776574D01*
X16640753Y-13790860D01*
X16655038Y-13805146D01*
X16669324Y-13833717D01*
X16683610Y-13890860D01*
X16683610Y-13962289D01*
X16669324Y-14019431D01*
X16655038Y-14048003D01*
X16640753Y-14062289D01*
X16612181Y-14076574D01*
X16583610Y-14076574D01*
X16555038Y-14062289D01*
X16540753Y-14048003D01*
X16526467Y-14019431D01*
X16512181Y-13962289D01*
X16512181Y-13890860D01*
X16526467Y-13833717D01*
X16540753Y-13805146D01*
X16555038Y-13790860D01*
X16583610Y-13776574D01*
X16797896Y-13776574D02*
X16797896Y-13833717D01*
X16912181Y-13776574D02*
X16912181Y-13833717D01*
X17355038Y-14190860D02*
X17340753Y-14176574D01*
X17312181Y-14133717D01*
X17297896Y-14105146D01*
X17283610Y-14062289D01*
X17269324Y-13990860D01*
X17269324Y-13933717D01*
X17283610Y-13862289D01*
X17297896Y-13819431D01*
X17312181Y-13790860D01*
X17340753Y-13748003D01*
X17355038Y-13733717D01*
X17483610Y-14076574D02*
X17540753Y-14076574D01*
X17569324Y-14062289D01*
X17583610Y-14048003D01*
X17612181Y-14005146D01*
X17626467Y-13948003D01*
X17626467Y-13833717D01*
X17612181Y-13805146D01*
X17597896Y-13790860D01*
X17569324Y-13776574D01*
X17512181Y-13776574D01*
X17483610Y-13790860D01*
X17469324Y-13805146D01*
X17455038Y-13833717D01*
X17455038Y-13905146D01*
X17469324Y-13933717D01*
X17483610Y-13948003D01*
X17512181Y-13962289D01*
X17569324Y-13962289D01*
X17597896Y-13948003D01*
X17612181Y-13933717D01*
X17626467Y-13905146D01*
X17983610Y-14076574D02*
X17983610Y-13776574D01*
X18112181Y-14076574D02*
X18112181Y-13919431D01*
X18097896Y-13890860D01*
X18069324Y-13876574D01*
X18026467Y-13876574D01*
X17997896Y-13890860D01*
X17983610Y-13905146D01*
X18297896Y-14076574D02*
X18269324Y-14062289D01*
X18255038Y-14048003D01*
X18240753Y-14019431D01*
X18240753Y-13933717D01*
X18255038Y-13905146D01*
X18269324Y-13890860D01*
X18297896Y-13876574D01*
X18340753Y-13876574D01*
X18369324Y-13890860D01*
X18383610Y-13905146D01*
X18397896Y-13933717D01*
X18397896Y-14019431D01*
X18383610Y-14048003D01*
X18369324Y-14062289D01*
X18340753Y-14076574D01*
X18297896Y-14076574D01*
X18569324Y-14076574D02*
X18540753Y-14062289D01*
X18526467Y-14033717D01*
X18526467Y-13776574D01*
X18797896Y-14062289D02*
X18769324Y-14076574D01*
X18712181Y-14076574D01*
X18683610Y-14062289D01*
X18669324Y-14033717D01*
X18669324Y-13919431D01*
X18683610Y-13890860D01*
X18712181Y-13876574D01*
X18769324Y-13876574D01*
X18797896Y-13890860D01*
X18812181Y-13919431D01*
X18812181Y-13948003D01*
X18669324Y-13976574D01*
X18926467Y-14062289D02*
X18955039Y-14076574D01*
X19012181Y-14076574D01*
X19040753Y-14062289D01*
X19055039Y-14033717D01*
X19055039Y-14019431D01*
X19040753Y-13990860D01*
X19012181Y-13976574D01*
X18969324Y-13976574D01*
X18940753Y-13962289D01*
X18926467Y-13933717D01*
X18926467Y-13919431D01*
X18940753Y-13890860D01*
X18969324Y-13876574D01*
X19012181Y-13876574D01*
X19040753Y-13890860D01*
X19155038Y-14190860D02*
X19169324Y-14176574D01*
X19197896Y-14133717D01*
X19212181Y-14105146D01*
X19226467Y-14062289D01*
X19240753Y-13990860D01*
X19240753Y-13933717D01*
X19226467Y-13862289D01*
X19212181Y-13819431D01*
X19197896Y-13790860D01*
X19169324Y-13748003D01*
X19155038Y-13733717D01*
M02*
